<?xml version="1.0" encoding="UTF-8" standalone="no"?>
<!-- Created with Inkscape (http://www.inkscape.org/) -->

<svg
   version="1.1"
   id="svg1"
   width="1213.8787"
   height="1337.3075"
   viewBox="0 0 1213.8787 1337.3075"
   sodipodi:docname="SanguFC.svg"
   inkscape:version="1.4.2 (f4327f4, 2025-05-13)"
   inkscape:export-filename="C:\SanguFC2.png"
   inkscape:export-xdpi="96"
   inkscape:export-ydpi="96"
   xmlns:inkscape="http://www.inkscape.org/namespaces/inkscape"
   xmlns:sodipodi="http://sodipodi.sourceforge.net/DTD/sodipodi-0.dtd"
   xmlns="http://www.w3.org/2000/svg"
   xmlns:svg="http://www.w3.org/2000/svg">
  <defs
     id="defs1" />
  <sodipodi:namedview
     id="namedview1"
     pagecolor="#505050"
     bordercolor="#eeeeee"
     borderopacity="1"
     inkscape:showpageshadow="0"
     inkscape:pageopacity="0"
     inkscape:pagecheckerboard="0"
     inkscape:deskcolor="#505050"
     showgrid="false"
     inkscape:zoom="0.62743507"
     inkscape:cx="674.17335"
     inkscape:cy="698.8771"
     inkscape:window-width="1920"
     inkscape:window-height="991"
     inkscape:window-x="-9"
     inkscape:window-y="-9"
     inkscape:window-maximized="1"
     inkscape:current-layer="g1" />
  <g
     inkscape:groupmode="layer"
     inkscape:label="Image"
     id="g1"
     transform="translate(-233.52188,-539.78293)">
    <path
       style="fill:#550000"
       d="m 867.75408,1870.3809 c 18.62255,-7.5189 35.7039,-15.9685 58.74527,-29.0592 54.6752,-31.0633 96.90535,-60.34 135.83085,-94.1666 6.7819,-5.8936 13.3069,-11.3454 14.5,-12.115 1.8756,-1.21 3.9959,-1.1443 15.6691,0.4855 7.425,1.0367 23.5374,3.2716 35.8053,4.9665 12.268,1.6949 31.843,4.8877 43.5,7.0952 11.6571,2.2075 25.9197,4.8947 31.6947,5.9717 12.4625,2.324 38.3113,7.8561 53,11.343 20.069,4.764 66.5352,16.3781 72.3762,18.0902 7.4006,2.1692 10.5024,1.679 24.259,-3.8337 5.9757,-2.3946 14.0148,-5.3861 17.8648,-6.6477 29.1713,-9.559 57.9978,-35.5634 68.187,-61.5115 3.8364,-9.7698 5.8559,-19.3832 7.2475,-34.5 2.0603,-22.3806 0.5899,-74.9041 -2.1743,-77.6684 -0.7838,-0.7838 -8.138,-4.1467 -16.3427,-7.4731 -8.2046,-3.3264 -15.3283,-6.4386 -15.8303,-6.9161 -0.535,-0.5087 0.086,-1.2272 1.5,-1.7355 1.327,-0.4771 8.6289,-3.0295 16.2264,-5.6722 7.5974,-2.6426 14.3945,-5.3856 15.1045,-6.0957 1.842,-1.842 3.0495,-53.8739 1.6197,-69.7965 -4.096,-45.6135 -20.5865,-72.0521 -55.3321,-88.7115 -11.1882,-5.3644 -19.5532,-7.5855 -36.1265,-9.5923 -7.7435,-0.9376 -14.4165,-1.9822 -14.8287,-2.3213 -0.4122,-0.339 2.2288,-8.9191 5.869,-19.0669 10.3309,-28.7994 20.6335,-71.6556 25.2868,-105.1864 3.1121,-22.4249 4.1837,-39.9413 4.4211,-72.2641 l 0.2203,-30 4.9761,-10.9584 c 4.6826,-10.3119 5.6184,-11.6099 15.8608,-22 17.2562,-17.5049 23.6678,-29.0362 29.1923,-52.5024 1.4966,-6.3566 4.4406,-14.7062 7.4185,-21.0392 5.9322,-12.6159 7.9701,-20.7256 7.9898,-31.7945 0.029,-16.1087 -4.8153,-27.4777 -16.9299,-39.73555 -5.7445,-5.8123 -8.3521,-7.4558 -24,-15.1261 -19.7643,-9.68815 -30.8046,-15.96614 -40.7542,-23.17452 -7.3144,-5.29916 -17.4568,-10.63936 -31.8011,-16.74387 -8.3212,-3.54126 -10.0302,-4.80776 -22.6591,-16.79239 l -13.659,-12.96225 0.5471,-15.08539 c 0.4794,-13.21687 0.2841,-16.13821 -1.5768,-23.58538 -3.8323,-15.33725 -11.2385,-27.80712 -34.3696,-57.86798 -3.9646,-5.15238 -10.0167,-11.75044 -13.4491,-14.66236 -7.0683,-5.99649 -8.4419,-7.51099 -21.2866,-23.46966 -14.337,-17.81285 -32.8245,-36.84666 -50.0753,-51.55509 l -15.7343,-13.41544 -6.1008,-11.76473 c -16.5902,-31.9927 -31.7781,-52.69923 -54.1365,-73.8071 -13.8107,-13.03827 -22.0776,-19.65358 -52.5,-42.0115 -18.1087,-13.30834 -59.89145,-38.14896 -62.63165,-37.23559 -1.299,0.43302 -8.89904,14.02496 -15.52497,27.76506 -4.00659,8.30841 -13.28109,34.88797 -17.80412,51.02439 -1.03644,3.69762 -2.41924,6.13308 -4.21964,7.43187 -3.12315,2.25299 1.38394,3.25798 -42.54246,-9.48618 -15.79759,-4.58329 -29.03604,-8.02009 -29.41879,-7.63734 -0.38275,0.38274 0.26099,4.85401 1.43052,9.93614 1.24355,5.40374 1.75664,9.61003 1.23579,10.13088 -0.52085,0.52085 -6.21219,0.39624 -13.70763,-0.30011 -24.12706,-2.24147 -24.20412,-2.26789 -62.817,-21.53192 -19.25,-9.60386 -38.51824,-19.78546 -42.81832,-22.62579 -4.30007,-2.84033 -21.62507,-15.51059 -38.5,-28.15614 -16.87492,-12.64555 -31.22103,-23.20431 -31.88024,-23.46391 -1.55527,-0.61247 -11.40049,19.10788 -18.17643,36.40808 -11.21349,28.63009 -18.09152,64.70769 -18.11538,95.02137 -0.009,11.58889 -0.12704,12.30075 -2.25963,13.64124 -4.67289,2.93726 -58.98527,18.79067 -72.37395,21.12546 -11.08943,1.93384 -33.47214,1.9404 -48.91406,0.0143 -16.48472,-2.05613 -17.46489,-2.01445 -17.44912,0.74201 0.0206,3.60055 8.36335,27.35227 13.41277,38.18597 3.75001,8.04578 4.38781,10.17502 3.35268,11.19256 -2.93374,2.88388 -38.8625,17.84514 -61.77832,25.72539 -15.28892,5.25753 -39.75172,9.83135 -75.43189,14.10355 -11.51254,1.37847 -21.37186,2.94628 -21.90961,3.48403 -1.33716,1.33716 2.54994,7.01479 11.05993,16.15447 17.0384,18.29916 33.73564,32.1381 50.06012,41.49065 1.80321,1.03308 3.15321,2.43544 3,3.11635 -0.1532,0.68091 -5.24138,6.3138 -11.30706,12.51753 -22.42901,22.93946 -35.52739,39.78618 -55.03132,70.7795 -19.71566,31.3298 -34.53596,64.34369 -53.57277,119.33919 -6.81943,19.7008 -7.79925,23.6607 -5.85444,23.6607 0.55713,0 6.74463,-2.7472 13.75,-6.1048 24.17465,-11.5868 29.37303,-13.2819 27.73674,-9.044 -1.17493,3.0429 -10.34759,35.542 -12.88407,45.6488 -17.38232,69.2609 -17.5907,147.6883 -0.58188,219 4.70591,19.7302 9.76922,36.0511 15.5969,50.2748 3.02702,7.388 5.26257,14.0611 4.96789,14.829 -0.38033,0.9911 -2.3692,1.3962 -6.85516,1.3962 -29.42908,0 -57.79306,10.3157 -76.41967,27.793 -16.36397,15.3543 -25.41197,31.4712 -30.46206,54.261 -2.10019,9.4776 -2.31696,12.9491 -2.33822,37.446 -0.0152,17.5622 0.4327,29.7964 1.28148,35 2.06418,12.6549 6.00363,25.3916 10.27503,33.2206 l 3.93948,7.2206 -2.25971,1.4469 c -1.24284,0.7958 -4.79541,2.6774 -7.8946,4.1813 -5.36926,2.6054 -5.66389,2.9459 -6.25,7.222 -0.96329,7.028 -0.6896,63.4281 0.36981,76.2086 2.79368,33.7022 14.57739,55.0653 39.51508,71.6382 9.16014,6.0875 15.79746,9.5784 33.11609,17.4171 24.21999,10.9623 35.25512,15.0876 40.38391,15.0967 2.475,0 21.6,-4.2321 42.5,-9.4144 68.38563,-16.9566 90.64586,-22.0633 138,-31.6582 24.52942,-4.9701 63.55149,-12.0278 81.59015,-14.7567 3.38029,-0.5114 4.31576,0.062 16.0037,9.8171 41.31517,34.4812 86.14074,64.7273 143.69714,96.9598 30.91101,17.3106 51.87262,27.4675 71.70901,34.7462 4.92325,1.8065 10.6956,0.5198 26.75473,-5.9642 z"
       id="path57"
       sodipodi:nodetypes="ssssssssssssssssssssssssssscsssssssssscsssssscsssssssssssssssssssssssssssssssssssssssssssssscsssssscssscssss" />
    <path
       style="fill:#000000"
       d="m 831.63129,1847.9993 c -27.44957,-12.1249 -68.30461,-34.7896 -108.13194,-59.987 -26.30122,-16.6399 -62.86191,-43.2606 -81.72172,-59.5034 -7.98876,-6.8803 -16.26082,-13.8212 -18.38235,-15.4243 l -3.85733,-2.9148 -15.2693,2.2283 c -19.54836,2.8527 -56.65102,9.6717 -87.2693,16.0391 -22.82715,4.7471 -31.70475,6.6997 -64,14.0764 -7.7,1.7588 -18.5,4.2045 -24,5.435 -5.5,1.2304 -25.525,6.1857 -44.5,11.0117 -18.975,4.826 -35.47654,8.7778 -36.67009,8.7818 -3.31929,0.011 -55.31732,-23.8846 -62.58878,-28.7626 -12.9583,-8.6931 -22.88739,-23.0305 -26.39186,-38.1093 -1.69792,-7.3057 -3.34514,-58.1611 -2.34927,-72.5298 l 0.5,-7.2141 12.92019,-4.2384 c 15.22766,-4.9953 20.57981,-7.2842 20.57981,-8.8011 0,-0.6099 -2.51544,-3.1161 -5.58986,-5.5693 -10.90509,-8.7018 -19.10594,-21.4672 -23.36988,-36.3774 -3.35647,-11.737 -4.27797,-23.8412 -3.78683,-49.7411 0.40014,-21.1013 0.75064,-25.3723 2.59286,-31.5946 4.27924,-14.4536 10.1102,-24.8236 19.90946,-35.408 11.90479,-12.8586 28.7964,-20.397 53.74425,-23.9851 5.42545,-0.7803 15.16046,-0.9239 30.25,-0.4462 15.76137,0.499 22.25,0.388 22.25,-0.3806 0,-0.5967 -3.77599,-9.5225 -8.39109,-19.8351 -14.32273,-32.0045 -19.58109,-47.1694 -26.09262,-75.2501 -4.3686,-18.8394 -5.08271,-22.6609 -7.4746,-40 -7.78019,-56.3996 -5.86611,-103.3902 6.49696,-159.5 6.38161,-28.963 17.44996,-64.9608 28.41007,-92.3987 2.28458,-5.7194 3.79322,-10.7557 3.35253,-11.1919 -0.44069,-0.4362 -10.14542,3.524 -21.56608,8.8006 -11.42066,5.2765 -21.02962,9.3289 -21.35324,9.0053 -1.66745,-1.6675 9.5086,-29.5255 21.30393,-53.10335 24.7729,-49.51889 47.4883,-80.02816 90.56414,-121.63758 8.1125,-7.83632 14.75,-14.6331 14.75,-15.10394 0,-0.47084 -5.93656,-3.83088 -13.19235,-7.46677 -17.13327,-8.58549 -44.80765,-27.06381 -44.80765,-29.91828 0,-0.56939 6.6375,-2.08354 14.75,-3.36477 14.76304,-2.33159 44.98394,-10.38083 61.25,-16.31376 18.43917,-6.72555 68.60371,-29.33169 69.33858,-31.24673 0.49799,-1.29775 -1.01739,-4.53114 -10.4945,-22.39234 -3.30708,-6.23274 -5.7395,-11.60564 -5.40538,-11.93976 0.33412,-0.33413 6.73899,-0.97073 14.23303,-1.41468 17.00437,-1.00735 28.33937,-2.83763 44.32827,-7.15774 13.36241,-3.61045 71.05306,-21.37527 71.78169,-22.10391 0.2399,-0.2399 0.82261,-11.14966 1.29489,-24.24391 0.97087,-26.91751 2.04087,-38.2258 4.93375,-52.14258 4.73589,-22.78295 13.88044,-49.32785 17.21432,-49.9699 0.91262,-0.17575 7.87292,4.3558 15.46733,10.07012 15.88235,11.95048 20.72783,15.26741 39.30802,26.90798 20.66059,12.94396 68.63122,37.2784 83.08141,42.14538 5.09049,1.71453 71.50344,8.42975 72.59308,7.34011 0.37571,-0.3757 -0.0724,-3.0797 -0.99569,-6.00886 -2.10899,-6.69047 -2.09999,-7.65429 0.0712,-7.63208 1.91425,0.0196 15.07485,3.24907 42.55627,10.44292 9.79345,2.56364 19.01845,4.52122 20.5,4.35017 2.56057,-0.29562 2.70526,-0.60758 2.92696,-6.31099 0.67923,-17.47348 4.45974,-37.51487 10.10577,-53.57333 3.3767,-9.60374 10.7308,-25.54277 12.2059,-26.45443 1.1941,-0.73801 29.48605,17.13986 43.42345,27.43954 25.923,19.15704 33.196,24.85802 42.7518,33.51119 22.4329,20.3138 38.677,42.04477 54.1574,72.45056 l 8.5107,16.71633 8.3058,6.40418 c 29.9161,23.06658 49.3744,43.76434 71.3059,75.84798 6.7001,9.80151 7.1303,10.21685 10.0411,9.69302 3.689,-0.66388 6.2258,1.77451 18.1699,17.46496 11.3647,14.92938 19.037,27.47201 21.4092,35 3.1687,10.05522 3.5483,24.24432 0.9807,36.65708 -1.1555,5.5864 -2.0981,10.9864 -2.0947,12 0,1.1492 3.0926,4.10149 8.2057,7.84292 7.5418,5.51868 19.3598,16.48319 26.018,24.13889 1.9107,2.19691 5.6619,4.26616 12.5,6.89523 16.5288,6.35485 31.4013,14.30812 43.5265,23.27628 3.716,2.7485 16.1458,9.802 27.6216,15.6744 17.8796,9.14945 21.727,11.53635 26.8873,16.68055 7.4596,7.4365 8.7034,11.1795 8.0099,24.1035 -0.45,8.3851 -0.9618,10.285 -5.5844,20.7311 -2.799,6.325 -6.0289,15.2411 -7.1774,19.8134 -3.2909,13.1007 -7.454,24.6532 -11.1291,30.8834 -3.1002,5.2556 -7.3596,9.8283 -22.1722,23.8032 -4.0667,3.8367 -5.8518,6.5123 -7.6727,11.5 -6.3587,17.4175 -14.653,30.3857 -28.4037,44.4098 -9.2607,9.4448 -11.0603,10.7876 -20.8456,15.5549 -7.9968,3.8959 -12.2347,5.3559 -16.7288,5.7635 -4.7089,0.4269 -6.1404,0.2292 -6.577,-0.9084 -0.3069,-0.7998 0.5819,-7.2739 1.975,-14.387 3.3002,-16.8502 3.2963,-19.8916 -0.028,-22.0699 -2.2232,-1.4567 -3.4007,-1.5329 -8.75,-0.5661 -3.3996,0.6144 -9.7811,1.4253 -14.1811,1.8019 l -8,0.6849 -7.5,7.1086 c -14.8096,14.0368 -28.0555,22.478 -41.7721,26.62 -11.831,3.5727 -12.4234,1.4517 -6.6611,-23.8503 1.9618,-8.6141 3.9691,-19.1667 4.4606,-23.4504 2.0586,-17.939 -4.2867,-16.7567 -13.5926,2.5326 -5.6679,11.7482 -6.5961,18.9187 -4.0656,31.4069 4.6713,23.0541 13.64,39.7734 22.8092,42.5206 5.0041,1.4993 6.2425,3.3147 9.4274,13.8195 6.6764,22.0214 10.1493,21.3701 33.2796,-6.2411 7.7198,-9.2153 9.9937,-10.3904 12.5517,-6.4864 3.459,5.2792 4.8165,14.6118 4.3225,29.7181 -0.5376,16.4417 -1.0492,18.3816 -9.4991,36.0183 -7.1051,14.8298 -8.2535,18.6946 -8.2931,27.9089 -0.02,4.5248 -0.7321,9.6108 -1.7642,12.5911 -3.9158,11.3079 -20.5526,31.106 -34.27,40.782 -26.9654,19.0209 -62.6161,26.0623 -94.2599,18.6173 -6.2435,-1.4689 -6.9584,-3.3992 -2.5854,-6.9809 2.4134,-1.9767 3.1017,-3.1086 2.3517,-3.867 -1.5717,-1.5892 -25.8955,-12.4054 -33.7047,-14.9876 -7.5091,-2.4829 -10.1801,-4.4986 -9.1997,-6.9427 1.3965,-3.4815 1.662,-13.1443 0.5016,-18.2527 -2.6625,-11.7202 -16.2536,-34.8684 -20.4726,-34.8684 -0.8604,0 -1.6787,3.0333 -2.4956,9.25 -4.2859,32.6176 -13.3247,60.008 -28.6969,86.9606 -3.0461,5.3409 -5.2493,10.1784 -4.896,10.75 0.4379,0.7086 34.4609,1.0394 106.909,1.0394 h 106.2667 l 2.045,-2.25 c 2.7089,-2.9805 13.0656,-21.9673 18.1455,-33.2661 9.4818,-21.0893 15.5396,-39.4324 17.6631,-53.4839 0.374,-2.475 3.0841,-11.925 6.0224,-21 2.9382,-9.075 5.8266,-18.3668 6.4186,-20.6484 1.345,-5.1836 3.6065,-22.2033 5.5949,-42.1042 0.8381,-8.3889 1.7837,-15.9297 2.1013,-16.7574 0.3176,-0.8277 6.4906,-4.3899 13.7176,-7.9161 11.7518,-5.7338 22.0339,-12.2595 33.0944,-21.0036 3.0417,-2.4047 3.8678,-2.6735 4.6104,-1.5 1.8836,2.9765 0.331,39.9386 -2.6015,61.9297 -4.5469,34.0989 -15.2157,79.563 -24.5721,104.7124 -5.2694,14.1637 -15.4685,38.5789 -19.0413,45.5823 -1.1065,2.1688 -1.6378,4.298 -1.1807,4.7316 0.457,0.4336 12.306,1.0079 26.331,1.2762 21.0636,0.4029 27.0255,0.8471 34.2682,2.553 11.4189,2.6897 24.3173,8.7986 32.3668,15.3295 20.8715,16.934 27.3819,39.0625 26.094,88.6921 -0.4133,15.9285 -0.8955,21.7111 -1.8919,22.6874 -0.7354,0.7207 -8.9871,3.5637 -18.3371,6.3178 -20.7046,6.0988 -45.1772,14.4022 -50.5979,17.1676 -4.5347,2.3135 -5.8161,4.4903 -3.7888,6.4364 0.7627,0.7321 16.2809,7.2531 34.4848,14.491 18.204,7.2379 34.4751,13.9972 36.1581,15.0206 2.8532,1.7352 3.1085,2.3791 3.7787,9.5318 0.9666,10.3149 -0.079,56.4212 -1.4552,64.1479 -5.5855,31.3672 -23.1331,48.8938 -69.3909,69.3083 -9.323,4.1144 -12.5884,5.113 -15.5,4.7403 -2.0289,-0.2596 -17.8638,-4.1054 -35.1888,-8.5461 -74.7979,-19.1719 -178.8731,-38.7408 -222.2583,-41.7905 l -9.4059,-0.6612 -8.9179,7.9181 c -27.6407,24.542 -55.6586,46.2558 -83.91785,65.0359 -32.15604,21.3699 -36.0233,23.7069 -70,42.3007 -29.30681,16.0383 -55.71863,28.0435 -61.59724,27.9985 -1.32152,-0.01 -7.96839,-2.4768 -14.77082,-5.4816 z"
       id="path58"
       sodipodi:nodetypes="sssscssssssssscsssssssssssssssssssssssssssssssssssssssssssssssscsssssscsssssssssssssssssssscsssssssssssscssssssssssssscssssssssssssssssssssssssscsssscssssss" />
    <path
       style="fill:#ffcc00"
       d="m 1112.0105,929.49511 c 1.3688,-0.52044 2.4888,-1.3659 2.4888,-1.8788 0,-0.5129 -3.7125,-3.40889 -8.25,-6.43554 -4.5375,-3.02665 -10.95,-7.9315 -14.25,-10.89967 -7.0942,-6.38085 -10.6806,-8.02077 -16.6122,-7.59598 -3.9462,0.28261 -4.4195,0.58973 -4.703,3.05187 -0.192,1.66718 0.9632,5.13619 2.9542,8.87182 3.8289,7.18371 11.4288,13.51123 18.6797,15.55243 4.9046,1.38067 15.2274,1.03149 19.6925,-0.66613 z"
       id="path109" />
    <path
       style="fill:#aa0000"
       d="m 1334.4993,1027.9993 c 10.1133,-1.7814 32.1368,-1.9612 47.2232,-0.3855 5.8978,0.616 11.4777,0.8305 12.3998,0.4767 3.7351,-1.4333 -6.2604,-8.8013 -17.2029,-12.6807 -11.8075,-4.186 -37.0894,-2.1152 -47.7577,3.912 -8.1177,4.5862 -11.0603,10.1797 -5.3534,10.1761 1.2051,-7e-4 6.016,-0.6751 10.691,-1.4986 z"
       id="path108" />
    <path
       style="fill:#aa0000"
       d="m 1387.3348,1063.2921 c 2.4012,-4.8398 2.2469,-7.1454 -0.4101,-6.1258 -1.7089,0.6558 -5.4254,7.4145 -5.4254,9.8665 0,3.1863 3.5173,0.9317 5.8355,-3.7407 z"
       id="path107" />
    <path
       style="fill:#aa0000"
       d="m 1345.3599,1066.5739 c 2.7174,-1.4543 5.5114,-5.6637 4.6666,-7.0306 -1.741,-2.8169 -11.0719,1.3682 -13.6055,6.1023 -2.0547,3.8392 2.5971,4.3223 8.9389,0.9283 z"
       id="path106" />
    <path
       style="fill:#ececec"
       d="m 1157.3519,1083.3763 c 2.4723,-1.8181 4.1193,-3.7845 3.9418,-4.7061 -0.6118,-3.1769 -8.1416,-7.2581 -15.4893,-8.3954 -3.8736,-0.5996 -7.7768,-0.8085 -8.674,-0.4642 -2.994,1.1489 -1.8768,4.5227 2.1836,6.5941 2.6056,1.3293 4.3969,3.2374 5.6518,6.0204 1.5851,3.515 2.2698,4.0742 4.9884,4.0742 1.9556,0 4.7622,-1.1848 7.3977,-3.123 z"
       id="path105" />
    <path
       style="fill:#ececec;stroke:#000000"
       d="m 1183.1431,1099.9679 c 5.8394,-3.4221 6.9266,-5.6094 4.0675,-8.1839 -4.1228,-3.7125 -15.8256,-12.2847 -16.7711,-12.2847 -1.4995,0 -1.0711,5.0049 0.9844,11.5 4.1343,13.0639 4.3931,13.262 11.7192,8.9686 z"
       id="path104" />
    <path
       style="fill:#aa0000"
       d="m 1366.799,1108.8873 c 9.0246,-4.5455 16.8761,-17.388 10.6305,-17.388 -3.8501,0 -19.9302,13.1645 -19.9302,16.3165 0,3.1426 4.222,3.6291 9.2997,1.0715 z"
       id="path103" />
    <path
       style="fill:#ececec;stroke:#000000"
       d="m 1213.9228,1115.1105 2.0765,-2.8046 -4.5799,-4.1533 c -10.5226,-9.5425 -13.2607,-8.7406 -10.082,2.9527 1.1571,4.2571 2.652,8.0789 3.3218,8.4929 1.8394,1.1367 6.9225,-1.3257 9.2636,-4.4877 z"
       id="path102" />
    <path
       style="fill:#ececec;stroke:#000000"
       d="m 1285.4103,1148.0028 c 3.1694,-3.0231 6.061,-5.1981 6.4258,-4.8334 0.3648,0.3648 0.6632,1.8831 0.6632,3.3741 0,1.491 0.6834,3.2781 1.5188,3.9714 1.6569,1.3751 2.9673,0.5715 8.9634,-5.4973 l 2.9822,-3.0183 0.5178,3.4886 c 0.7045,4.7468 3.0115,4.9153 7.8197,0.5714 2.1673,-1.958 4.4485,-3.56 5.0693,-3.56 0.6861,0 1.1288,1.9378 1.1288,4.941 0,2.7382 0.5299,5.2685 1.1887,5.6756 0.7406,0.4577 3.3736,-1.6877 6.9842,-5.6909 8.5109,-9.4365 10.8562,-15.1469 6.7556,-16.4484 -2.6147,-0.8299 -51.2133,-0.8391 -53.825,-0.01 -2.5794,0.8187 -4.0617,5.3885 -4.795,14.7829 -0.5387,6.9012 -0.4163,7.75 1.1175,7.75 0.9474,0 4.3156,-2.4734 7.485,-5.4965 z"
       id="path101" />
    <path
       style="fill:#ececec;stroke:#000000"
       d="m 1323.5336,1175.7493 c 8.2253,-9.293 17.9622,-25.3201 21.5353,-35.4472 0.7379,-2.0915 0.9818,-3.8028 0.5419,-3.8028 -0.8661,0 -16.5551,19.2807 -22.491,27.6399 -3.0347,4.2736 -6.5664,12.6145 -6.6097,15.6101 -0.03,2.1105 3.2876,0.2208 7.0235,-4 z"
       id="path99" />
    <path
       style="fill:#ececec"
       d="m 1237.0341,1175.2244 c 14.527,-14.9582 24.6669,-32.5818 24.8699,-43.2251 0.095,-4.9641 0.063,-5.0157 -4.4047,-7.1944 -5.4772,-2.6709 -19.9212,-4.629 -21.6754,-2.9384 -0.6479,0.6244 -1.649,6.778 -2.2307,13.712 -0.5805,6.9185 -2.2298,18.8435 -3.6652,26.5 -3.807,20.3066 -3.9272,21.4208 -2.3111,21.4208 0.7594,0 4.9972,-3.7237 9.4172,-8.2749 z"
       id="path98" />
    <path
       style="fill:#ececec;stroke:#000000"
       d="m 1076.1929,1180.4242 c 0.6564,-1.8837 1.2189,-5.3374 1.25,-7.6749 0.079,-5.954 -2.41,-8.25 -8.9436,-8.25 -6.1771,0 -6.406,1.2464 -1.8877,10.2785 5.2852,10.5652 7.4272,11.8275 9.5813,5.6464 z"
       id="path97" />
    <path
       style="fill:#ececec"
       d="m 704.47076,1188.3516 c 5.17219,-1.7467 7.79209,-3.5162 14.03042,-9.4763 7.54418,-7.2076 36.52975,-29.28 53.43976,-40.694 11.18644,-7.5507 20.18686,-18.682 15.10572,-18.682 -4.92406,0 -42.73495,18.2169 -54.2385,26.1315 -11.5844,7.9703 -40.30881,39.3386 -40.30881,44.019 0,1.4995 5.43064,0.9106 11.97141,-1.2982 z"
       id="path96" />
    <path
       style="fill:#f2f2f2"
       d="m 994.49935,1190.4016 c 0,-2.8071 -12.439,-18.5185 -22.9086,-28.9351 -13.7531,-13.6837 -25.73584,-21.9871 -45.1802,-31.3075 -15.21053,-7.291 -23.12506,-10.1753 -25.46099,-9.279 -1.4044,0.539 -1.37888,0.9362 0.23859,3.7139 2.6051,4.4737 11.87527,12.7727 19.36249,17.334 5.75212,3.5042 22.83633,15.6825 37.8218,26.9607 2.95521,2.2241 7.20018,6.2107 9.43328,8.859 4.87653,5.7833 8.62693,8.2151 17.49963,11.3468 7.5218,2.6549 9.194,2.8926 9.194,1.3072 z"
       id="path95" />
    <path
       style="fill:#ececec;stroke:#000000"
       d="m 1092.4993,1202.8796 c 0,-12.6505 -0.5162,-13.3803 -9.4644,-13.3803 -4.6705,0 -6.4706,0.3882 -6.8919,1.4861 -0.5975,1.5571 4.1081,11.0955 10.0773,20.4268 3.286,5.1369 3.6004,5.368 4.8953,3.5972 0.9649,-1.3197 1.3837,-4.9906 1.3837,-12.1298 z"
       id="path94" />
    <path
       style="fill:#ececec;stroke:#000000"
       d="m 1106.3263,1234.4895 c 0.6411,-6.5797 -0.6541,-10.02 -4.3544,-11.5661 -4.7696,-1.9929 -9.4726,-1.8779 -9.4726,0.2315 0,3.0132 10.4946,15.6739 12.4593,15.031 0.5724,-0.1874 1.1878,-1.8507 1.3677,-3.6964 z"
       id="path93" />
    <path
       style="fill:#e6e6e6"
       d="m 935.77564,1259.5509 c 22.53093,-7.5993 28.11664,-10.042 29.17593,-12.759 1.07387,-2.7544 2.49768,-23.4233 2.5241,-36.6415 0.0181,-9.0526 -0.37193,-12.6825 -1.65269,-15.3815 -3.44469,-7.2592 -36.84796,-33.9996 -54.79214,-43.863 -5.67501,-3.1194 -7.21921,-3.5522 -10.6912,-2.9971 -11.77962,1.8837 -44.40247,14.8875 -47.84029,19.0698 -1.25297,1.5242 -1.5,6.3669 -1.5,29.4049 v 27.5801 l 26,19.3134 c 31.41188,23.3335 31.2311,23.2139 35.08754,23.2186 1.69815,0 12.35809,-3.1231 23.68875,-6.9447 z"
       id="path92" />
    <path
       style="fill:#d40000"
       d="m 1170.4184,1265.3819 c 6.8298,-3.4129 10.6215,-7.7049 14.8743,-16.8365 3.4464,-7.4003 3.2221,-9.8474 -1.5786,-17.2206 -6.499,-9.9817 -10.6,-19.9584 -16.1298,-39.241 -2.8258,-9.8535 -5.9981,-19.8604 -7.0496,-22.2375 -3.3659,-7.609 -9.1917,-15.4002 -14.5281,-19.4292 -5.5403,-4.183 -10.2889,-5.3248 -9.0153,-2.1678 3.2828,8.1374 9.0094,27.9405 10.9164,37.75 4.1167,21.176 4.8392,25.5857 4.2832,26.1418 -0.8036,0.8036 -7.28,-13.4404 -12.2397,-26.9199 -9.0266,-24.5321 -22.0364,-41.4962 -38.5009,-50.2032 -6.9528,-3.677 -8.0193,-3.943 -15.951,-3.9796 -9.6279,-0.044 -14,0.8594 -14,2.8937 0,0.7671 4.2449,5.0465 9.4332,9.5097 10.8714,9.3522 17.346,16.2821 20.8486,22.3146 3.5449,6.1053 11.4504,31.8556 12.6619,41.2429 1.2116,9.3884 7.1707,22.4265 13.3196,29.1422 2.086,2.2782 5.3531,7.3486 7.2604,11.2677 6.4534,13.2602 15.7061,20.716 26.0666,21.0041 1.6996,0.047 5.8976,-1.3168 9.3288,-3.0314 z"
       id="path91" />
    <path
       style="fill:#f2f2f2"
       d="m 789.178,1261.1365 c 22.41624,-16.8047 44.82752,-34.7747 45.9983,-36.8827 1.7902,-3.2232 1.85621,-54.6929 0.073,-56.9649 -1.81689,-2.315 -27.98795,-14.1313 -39.38263,-17.7813 -6.05949,-1.941 -10.69805,-2.8911 -12.2335,-2.5058 -3.32878,0.8355 -29.69759,18.0154 -39.54076,25.7618 -17.44954,13.7325 -23.68146,21.4421 -24.90852,30.8149 -0.81438,6.2204 0.97108,37.6408 2.36615,41.6393 1.31439,3.7672 5.21764,5.8379 22.94926,12.1744 6.325,2.2604 15.775,5.6545 21,7.5425 5.225,1.888 10.48039,3.4624 11.67865,3.4987 1.2254,0.037 6.47592,-3.1556 12,-7.2969 z"
       id="path90" />
    <path
       style="fill:#000000"
       d="m 814.99935,1265.0019 c 4.4,-2.4073 12.24977,-7.3302 17.44393,-10.9398 5.19416,-3.6095 10.46611,-6.5628 11.71545,-6.5628 1.24933,0 6.70896,2.9074 12.13249,6.461 9.45988,6.1982 25.89201,15.4874 27.45813,15.5223 0.4125,0.01 0.75,-0.4089 0.75,-0.929 0,-2.2318 -38.17425,-30.0543 -41.23636,-30.0543 -1.91345,0 -25.50517,18.3892 -35.26364,27.4872 -5.78653,5.3949 -4.27038,5.1817 7,-0.9846 z"
       id="path89" />
    <path
       style="fill:#aa0000"
       d="m 1214.2993,1277.2993 c 1.8847,-1.8847 1.4569,-4.0177 -2.3194,-11.5661 -3.2387,-6.4738 -5.8526,-9.1944 -7.3737,-7.6747 -0.3338,0.3335 -0.7633,4.3378 -0.9544,8.8986 -0.3242,7.7371 -0.1922,8.401 1.9725,9.9172 2.7316,1.9133 6.9787,2.1213 8.675,0.425 z"
       id="path88" />
    <path
       style="fill:#ececec"
       d="m 1250.8529,1299.648 c 5.2962,-9.1822 8.6232,-18.4552 9.3816,-26.1487 l 0.5422,-5.5 -7.482,7.2014 c -5.5418,5.334 -9.7268,8.2886 -16.1387,11.394 -9.9963,4.8414 -11.1062,7.0008 -4.9067,9.5464 4.0149,1.6486 10.25,7.0347 10.25,8.8544 0,1.4882 2.1344,3.5388 3.077,2.9562 0.4162,-0.2572 2.7907,-3.9939 5.2766,-8.3037 z"
       id="path87" />
    <path
       style="fill:#ececec"
       d="m 1177.0422,1309.7521 c 7.1251,-7.3364 13.8937,-24.8243 15.1198,-39.0646 l 0.5758,-6.6882 -8.3692,8.2072 c -4.6031,4.514 -12.1891,11.0437 -16.8576,14.5106 -4.6686,3.4668 -8.6387,7.0839 -8.8224,8.0379 -0.1837,0.954 0.3774,4.1818 1.2469,7.1729 3.4403,11.8343 10.2066,14.929 17.1067,7.8242 z"
       id="path86" />
    <path
       style="fill:#ececec"
       d="m 1227.9863,1321.3883 c 5.7623,-1.1203 9.513,-3.2737 9.513,-5.4617 0,-2.5596 -2.9605,-7.4273 -4.5172,-7.4273 -0.8062,0 -2.0279,0.9 -2.7149,2 -1.5215,2.4363 -3.5047,2.5481 -5.9496,0.3355 -1.7239,-1.56 -1.9838,-1.5287 -4.1432,0.5 -2.8524,2.6797 -4.1675,2.7089 -7.4022,0.1645 -3.2235,-2.5356 -3.5066,-2.5157 -7.0905,0.5 -1.6341,1.375 -3.6419,2.5 -4.4617,2.5 -0.8199,0 -2.2278,-1.125 -3.1287,-2.5 -2.5947,-3.96 -5.9097,-3.2736 -9.9886,2.0683 -5.0628,6.6307 -4.0466,7.757 7.8966,8.7519 6.3744,0.531 26.5334,-0.371 31.987,-1.4312 z"
       id="path85" />
    <path
       style="fill:#000000"
       d="m 848.23382,825.35782 c -10.77269,-2.38503 -26.94635,-15.97993 -23.32242,-19.60385 0.35873,-0.35873 2.77527,-0.0276 5.37009,0.73579 2.59482,0.76342 6.74286,1.41538 9.21786,1.44881 l 4.5,0.0608 -0.10713,-3.5 c -0.14402,-4.70547 -8.27967,-21.80227 -13.194,-27.72676 -7.6332,-9.20224 -7.74445,-11.96054 -0.40727,-10.09817 2.35412,0.59754 4.53015,0.83651 4.83562,0.53104 1.55152,-1.55151 -1.98958,-6.22792 -12.51837,-16.53188 -12.99157,-12.71416 -18.94924,-17.52071 -30.60885,-24.69475 -14.29369,-8.79475 -25.81548,-17.26938 -35.16023,-25.86141 -5.03813,-4.6323 -11.78813,-10.33847 -15,-12.68037 -3.21188,-2.34189 -8.17533,-6.43593 -11.02991,-9.09785 -2.85458,-2.66193 -5.65124,-4.83987 -6.21482,-4.83987 -2.87101,0 -4.9201,12.21305 -7.04669,42 -0.60863,8.525 -1.36513,18.98524 -1.68111,23.24497 -0.94829,12.78386 -1.79464,10.32065 -6.44072,-18.74497 -1.62612,-10.17289 -2.06355,-17.33692 -2.01145,-32.94262 0.0366,-10.96845 0.32844,-21.54345 0.6485,-23.5 1.35107,-8.25934 4.75719,-22.13759 5.55408,-22.63009 0.47401,-0.29296 10.62602,7.84125 22.56002,18.07601 11.934,10.23477 23.52611,19.85627 25.76025,21.38113 2.23415,1.52486 11.26208,7.66068 20.06208,13.63515 8.8,5.97447 18.925,13.16856 22.5,15.98687 3.575,2.81831 13.27678,10.38192 21.5595,16.80801 31.74074,24.62584 51.10807,52.48322 55.39987,79.68554 1.38388,8.77137 1.30208,11.59569 -0.3847,13.28247 -0.78393,0.78393 -6.07143,2.3591 -11.75,3.50037 -13.81483,2.77649 -16.65989,3.05649 -21.0902,2.07563 z"
       id="path84" />
    <path
       style="fill:#000000"
       d="m 1177.3373,859.73008 c -1.4641,-0.9654 -11.1391,-10.34047 -21.5,-20.83348 -16.0661,-16.27092 -21.0785,-20.65522 -34.0647,-29.79546 -8.3746,-5.89449 -15.5072,-11.17121 -15.8501,-11.72605 -1.2023,-1.94533 0.479,-2.04614 6.2526,-0.3749 8.8342,2.55715 18.7299,7.42679 30.144,14.83373 20.3007,13.17372 22.2574,13.11257 11.9302,-0.37284 -9.6451,-12.59472 -11.9999,-16.04517 -11.376,-16.66905 1.1238,-1.12378 11.9657,8.25523 19.4975,16.86658 13.9358,15.93339 19.4753,27.46777 19.5691,40.7468 0.034,4.76766 -0.3734,8.5519 -0.9406,8.743 -0.55,0.18532 -2.1979,-0.45293 -3.662,-1.41833 z"
       id="path83" />
    <path
       style="fill:#000000"
       d="m 1095.4993,860.39311 c -23.9727,-12.14939 -41.9494,-13.18595 -67.0043,-3.86358 -13.8315,5.14644 -17.1352,5.9483 -24.4956,5.94562 -11.89355,-0.004 -28.27205,-6.83393 -39.11026,-16.30834 -6.0318,-5.27279 -14.89968,-21.66746 -11.71994,-21.66746 0.48767,0 5.14895,3.14656 10.35841,6.99236 9.80192,7.23611 19.32284,11.85803 30.13054,14.62682 8.99265,2.30381 29.08615,1.52316 37.28285,-1.44846 7.4783,-2.71118 8.3945,-3.58929 6.2347,-5.97583 -2.72,-3.00549 -1.9976,-4.04564 4.0255,-5.79662 10.6608,-3.09917 25.1797,-0.34309 42.7981,8.12427 14.2045,6.82661 25.4229,17.27195 25.4835,23.72746 0.024,2.50905 -1.1723,2.13647 -13.9835,-4.35624 z"
       id="path82" />
    <path
       style="fill:#000000"
       d="m 925.49935,958.94343 c -4.675,-0.71133 -17.13594,-1.32724 -27.69098,-1.3687 -12.59881,-0.0495 -19.42053,-0.4468 -19.85924,-1.15664 -1.11569,-1.80522 4.39034,-6.61325 18.27554,-15.95871 16.5934,-11.16822 19.96914,-12.8653 36.97796,-18.58983 12.04057,-4.05242 14.80154,-4.6313 21.69083,-4.54782 8.72848,0.10577 18.60589,1.81809 18.60589,3.22546 0,1.53041 -4.05015,3.66968 -15,7.92294 -13.13291,5.10122 -35.06484,16.0346 -35.75084,17.82231 -0.88344,2.3022 1.13468,3.24201 11.3498,5.28542 16.07738,3.21608 18.85294,5.16165 10.82089,7.58509 -4.86593,1.46815 -8.60598,1.42587 -19.41985,-0.21952 z"
       id="path81" />
    <path
       style="fill:#000000"
       d="m 847.3197,1152.2158 c 0.58589,-0.706 0.75205,-1.7903 0.36927,-2.4097 -0.84717,-1.3707 -25.84808,-8.5345 -28.0913,-8.0493 -2.16793,0.4689 20.7206,11.5895 24.02924,11.6748 1.44515,0.037 3.10691,-0.5099 3.69279,-1.2158 z"
       id="path100" />
    <path
       style="fill:#000000"
       d="m 1296.4993,997.36645 c -4.3575,-1.7537 -18.0037,-4.7369 -33.4106,-7.304 -8.2009,-1.3664 -15.4009,-2.9824 -16,-3.5911 -3.3228,-3.3755 12.3142,-5.7543 26.0102,-3.9568 15.3196,2.0106 30.4004,9.6596 30.4004,15.4191 0,0.8868 -4.2408,0.5432 -7,-0.5672 z"
       id="path80" />
    <path
       style="fill:#800000"
       d="m 1102.4993,708.39558 c 0,-2.69488 -7.8242,-15.55471 -16.4073,-26.96707 -13.7554,-18.28958 -39.0991,-41.94013 -56.2798,-52.51975 -4.2971,-2.6461 -11.6134,-7.19571 -16.2583,-10.11025 -10.7471,-6.74323 -12.4127,-6.80671 -14.40955,-0.54916 -1.9846,6.21923 -3.4332,14.09304 -4.1853,22.75 -0.7797,8.97418 1.0638,28.12376 2.9905,31.06428 1.5535,2.371 7.97585,4.72051 33.69285,12.32612 11.8908,3.51663 34.9382,11.99635 59.8569,22.02297 8.0007,3.21925 11,3.75991 11,1.98286 z"
       id="path110" />
    <path
       style="fill:#000000"
       d="m 1024.6751,1004.5065 c -3.8572,-1.6555 -2.133,-4.1905 5.8325,-8.57515 4.1204,-2.2681 7.6264,-4.8119 7.791,-5.6529 0.19,-0.9709 -2.7957,-3.5884 -8.1787,-7.1702 -12.3409,-8.2113 -16.6047,-14.39845 -22.5098,-32.66329 -6.1487,-19.01838 -8.99375,-36.66379 -6.1908,-38.39612 1.5594,-0.96377 4.8467,4.23057 7.1226,11.2546 2.6322,8.12358 8.2237,17.86582 14.3398,24.98423 2.499,2.90858 6.4728,8.0488 8.8306,11.42271 7.0764,10.12586 16.6569,15.19647 36.4595,19.29677 5.9544,1.2329 10.368,1.457 18.4443,0.9365 13.2879,-0.8565 14.3191,0.027 7.3724,6.3162 -6.3111,5.7138 -13.0645,9.0339 -28.9892,14.25155 -11.9473,3.9144 -14.0123,4.289 -25.5,4.626 -6.999,0.2053 -13.5229,-0.072 -14.8242,-0.6309 z"
       id="path79" />
    <path
       style="fill:#000000"
       d="m 796.49935,1055.2218 c 0,-1.9637 2.72744,-5.5909 9.74126,-12.9548 7.98315,-8.3815 8.00356,-10.1483 0.12203,-10.5639 -3.82455,-0.2017 -9.24691,0.6543 -16.99028,2.6823 -6.25516,1.6382 -14.07301,3.4941 -17.37301,4.1243 -3.3,0.6302 -10.82918,2.6856 -16.73151,4.5677 -10.54876,3.3636 -16.76849,4.2986 -16.76849,2.5207 0,-1.4396 14.7846,-14.8487 21.9501,-19.9079 13.01487,-9.1891 22.51004,-17.6373 21.55674,-19.1797 -0.85358,-1.3812 -8.47607,-1.1835 -17.50684,0.454 -8.79372,1.5945 -10.51842,0.7895 -6.87409,-3.2085 1.382,-1.5161 6.08153,-6.75025 10.44341,-11.63145 4.36187,-4.8811 9.9367,-10.4156 12.38849,-12.2988 2.4518,-1.8833 8.78552,-7.60305 14.07493,-12.71059 5.28941,-5.10754 14.44535,-13.0137 20.34652,-17.56923 16.96854,-13.09922 17.71784,-16.16348 3.44486,-14.08776 -4.57827,0.66581 -10.79912,1.85874 -13.82412,2.65093 -7.74361,2.02793 -18.96746,3.53535 -21.15461,2.84118 -2.94627,-0.93511 -2.15138,-3.9503 1.9995,-7.58457 2.11469,-1.8515 10.68343,-8.29967 19.04165,-14.32928 11.40113,-8.22476 15.12391,-11.43172 14.90511,-12.8399 -0.19033,-1.22491 -2.42207,-2.80111 -6.42403,-4.53708 -14.85299,-6.44292 -14.12334,-8.4309 4.50734,-12.28052 15.58327,-3.21994 29.23471,-6.74024 55.87717,-14.40904 10.29762,-2.96409 9.65432,-0.61647 -2.55343,9.31826 -4.78428,3.89348 -11.80783,9.47129 -15.60787,12.39513 -7.08592,5.45206 -9.53309,8.20715 -8.3451,9.39513 1.54727,1.54727 10.3,2.48359 27.24616,2.91465 9.89555,0.25171 18.12244,0.84927 18.28199,1.32792 0.15955,0.47865 -1.63681,2.13992 -3.9919,3.69172 -15.49682,10.21104 -49.68925,42.1003 -56.73309,52.91162 -4.71096,7.23065 -5.03466,9.33223 -1.54889,10.05593 1.375,0.2855 3.625,0.7527 5,1.0382 1.375,0.2854 2.5,1.0282 2.5,1.6505 0,0.6224 -5.87134,6.7774 -13.04743,13.6778 -10.85732,10.44025 -12.99751,12.97485 -12.75,15.09945 0.23172,1.9892 1.1811,2.8437 4.29743,3.8681 3.95358,1.2995 10.47438,1.2366 40.22122,-0.3882 13.17027,-0.7194 14.30231,-0.1397 10.3588,5.304 -3.35514,4.6317 -27.23703,20.8937 -39.96142,27.2112 -4.19023,2.0804 -11.20616,5.6445 -15.59096,7.9203 -7.95552,4.129 -14.52764,5.4229 -14.52764,2.8602 z"
       id="path78" />
    <path
       style="fill:#000000"
       d="m 1230.9993,1067.019 c -0.55,-0.1774 -3.475,-1.0816 -6.5,-2.0094 -10.6076,-3.2534 -32.9543,-16.0432 -44.0716,-25.2236 -5.7356,-4.7364 -12.9034,-9.776 -15.9284,-11.1991 -5.0196,-2.3616 -6.5917,-2.5841 -18,-2.5478 -13.9209,0.044 -17.9727,0.9084 -44.7487,9.5429 -23.0268,7.4255 -23.4681,6.2427 -1.7754,-4.7593 14.0357,-7.1185 30.9652,-13.7341 42.2014,-16.4913 27.476,-6.7418 58.5141,1.0178 85.3227,21.3312 9.2463,7.006 10.953,8.5684 10.9847,10.0553 0.024,1.1014 -1.9861,0.1431 -18.8453,-8.9867 -22.2141,-12.0295 -26.9909,-13.8992 -28.6507,-11.2137 -2.0037,3.2422 13.2917,18.4615 29.1914,29.0463 5.9509,3.9616 11.8185,8.1082 13.0391,9.2146 2.9749,2.6967 1.7304,4.5141 -2.2192,3.2406 z"
       id="path77" />
    <path
       style="fill:#aa0000"
       d="m 1187.4406,1375.9515 c 8.7959,-2.0732 16.8107,-6.2982 28.0478,-14.7853 12.5579,-9.4848 19.0109,-15.7586 19.0109,-18.4831 0,-2.7129 -0.6161,-2.7165 -13.3429,-0.078 -8.3313,1.7272 -12.3141,2.0075 -22.1571,1.5596 -14.449,-0.6576 -21.4076,-2.6115 -37.4646,-10.5192 -9.5843,-4.7201 -12.7086,-6.8761 -19.0498,-13.1461 -4.1719,-4.125 -10.9154,-12.225 -14.9856,-18 -12.2666,-17.4043 -33.2217,-43.7782 -44.0518,-55.4432 -7.4972,-8.0752 -19.7652,-27.1935 -28.2706,-44.0568 -12.4084,-24.6015 -17.8528,-37.4693 -21.7223,-51.3402 -2.2492,-8.0629 -4.7028,-15.2872 -5.4523,-16.054 -1.1624,-1.1891 -2.7325,-0.7915 -10.6783,2.7046 -9.645,4.2438 -12.5322,4.2397 -9.4855,-0.014 0.905,-1.2633 3.2236,-4.5469 5.1525,-7.2969 8.2601,-11.7765 28.7539,-30.7609 54.3381,-50.3361 15.5268,-11.8799 18.403,-13.754 30.2066,-19.6822 25.0582,-12.585 43.8203,-16.6748 60.4636,-13.1802 9.2632,1.945 22.3571,9.6652 33.3874,19.6852 5.2869,4.8026 12.3126,10.438 15.6126,12.5231 3.3,2.0851 8.0606,5.6945 10.5791,8.0209 7.7008,7.1133 31.5368,17.2069 47.4209,20.0808 4.4,0.7961 17.225,1.7076 28.5,2.0254 18.3224,0.5164 21.4738,0.3606 29.6677,-1.4672 14.8114,-3.304 20.322,-7.0902 18.8508,-12.9518 -1.2072,-4.8101 -4.2797,-7.6932 -14.0859,-13.2179 -11.4878,-6.472 -17.8446,-11.9163 -24.0227,-20.5741 -10.9251,-15.3101 -13.3784,-32.712 -6.1362,-43.5249 3.577,-5.3406 23.904,-14.4751 40.2263,-18.0769 4.052,-0.89415 6,-1.80715 6,-2.81205 0,-2.2112 -16.4385,-11.3011 -28.9699,-16.0194 -6.9532,-2.618 -13.8693,-4.461 -18.8887,-5.0335 -4.3553,-0.4967 -8.028,-1.0282 -8.1616,-1.1811 -0.1335,-0.1529 -1.7016,-3.203 -3.4846,-6.778 -7.2142,-14.46491 -31.2429,-31.82104 -39.591,-28.59689 -1.7199,0.66426 -1.5552,1.04323 1.7028,3.91616 14.5013,12.78766 19.893,18.00429 19.893,19.247 0,2.03264 -1.4792,1.78757 -5.8449,-0.96835 -11.9495,-7.54343 -39.8754,-19.84225 -51.24,-22.56661 -11.2794,-2.70394 -14.7548,-2.56781 -26.9904,1.05718 -18.4027,5.4521 -19.316,7.91151 -2.938,7.91151 24.0836,0 34.1286,3.24328 44.9508,14.51347 3.4708,3.61448 6.0636,6.81881 5.7616,7.12074 -0.3019,0.30193 -7.9831,-1.29225 -17.0692,-3.54262 -9.0861,-2.24997 -18.2633,-4.09119 -20.3937,-4.09119 -6.5189,0 -29.9126,6.62414 -39.5485,11.19852 -4.9836,2.36578 -13.9803,7.56398 -19.9927,11.55148 -13.65,9.0528 -15.3991,9.452 -9.6587,2.2042 1.6699,-2.1085 8.1949,-8.1863 14.5,-13.50625 6.674,-5.63127 11.4637,-10.41372 11.4637,-11.44635 0,-1.90687 -2.3298,-3.21475 -13.5,-7.57853 -6.5021,-2.54012 -8.3871,-2.7769 -26.5,-3.32885 l -19.5,-0.59422 -9.1522,-5.77769 c -9.544,-6.02501 -14.6451,-11.16416 -26.1795,-26.37483 -6.1277,-8.08058 -12.3355,-14.34748 -14.2123,-14.34748 -1.2624,0 -20.3577,-8.15636 -27.1319,-11.58917 -2.8779,-1.45835 -6.7156,-3.83488 -8.5282,-5.28118 -3.8668,-3.08533 -4.4166,-5.61378 -1.0458,-4.80982 5.3568,1.27765 13.0603,1.75783 42.7544,2.66497 35.2626,1.07726 37.7933,1.52379 51.7739,9.13543 4.0032,2.17947 7.7157,3.69246 8.25,3.3622 0.5344,-0.33025 0.9716,-2.57235 0.9716,-4.98243 0,-2.41008 0.4825,-4.68015 1.0721,-5.04459 1.1835,-0.73143 8.2879,6.28203 13.0062,12.83973 4.8794,6.78175 16.0892,19.09255 20.4971,22.51036 11.1606,8.65376 22.5926,8.00456 29.1005,-1.65256 6.7067,-9.95206 2.5062,-29.34347 -9.6713,-44.64713 -6.746,-8.4779 -6.7475,-10.46718 0,-6.37339 13.0288,7.91013 22.3935,21.08041 26.5,37.26879 1.375,5.42038 2.5,10.6654 2.5,11.65559 0,2.13904 2.5733,4.9432 4.5362,4.9432 2.8188,0 3.8336,-4.56231 4.4019,-19.78917 0.4454,-11.93295 0.8939,-15.48898 2.0434,-16.19941 3.6871,-2.27877 7.9363,7.55346 10.0049,23.15052 1.2656,9.54266 3.0722,12.70632 8.4176,14.7408 5.5849,2.12561 6.3877,0.68209 4.2532,-7.647 -0.9523,-3.71565 -2.06,-11.30854 -2.4617,-16.87307 -1.128,-15.62702 0.222,-18.19884 5.3045,-10.10547 12.0958,19.2613 13.4488,20.65553 16.4721,16.9738 2.5554,-3.11186 4.396,-14.98945 3.5488,-22.90081 -0.8435,-7.87654 -6.4352,-19.51413 -12.9002,-26.84819 l -4.4057,-4.998 -2.3068,4.748 c -1.2687,2.6114 -2.612,4.748 -2.985,4.748 -1.4095,0 -2.78,-2.72115 -4.79,-9.5109 -2.2795,-7.70016 -6.7334,-15.68902 -13.5758,-24.35102 -2.4496,-3.10094 -7.8329,-10.18612 -11.9628,-15.74483 -14.7309,-19.82686 -31.523,-37.02275 -49.5946,-50.78707 -11.2282,-8.55205 -31.8745,-22.40067 -40,-26.83024 -20.1873,-11.00504 -55.8493,-24.32653 -103.4999,-38.66227 -16.42685,-4.94064 -36.40704,-10.11367 -39.06739,-10.11367 -1.91251,0 1.14795,3.58808 9.00697,10.55974 10.20787,9.05535 9.85767,10.01487 -2.21097,6.05775 -16.05386,-5.26379 -41.62291,-11.72041 -53.94856,-13.62293 -13.57273,-2.09501 -24.2847,-2.57984 -24.2847,-1.09913 0,0.49249 7.9875,8.2997 17.75,17.34936 10.87324,10.0793 20.01507,19.52205 23.5965,24.37324 5.8161,7.87813 12.97793,20.39087 12.14673,21.22207 -0.23961,0.23961 -4.83739,-2.55139 -10.2173,-6.20222 -9.77516,-6.63348 -12.2915,-7.73948 -12.25827,-5.38788 0.01,0.6875 1.35972,5.50279 3,10.70064 4.91322,15.56936 3.97286,15.87112 -6.16718,1.97904 -9.96547,-13.65293 -15.42509,-20.32413 -22.44804,-27.42968 -12.25814,-12.4023 -36.49601,-29.41041 -52.59018,-36.90338 -5.12174,-2.38453 -14.93726,-6.94187 -21.81226,-10.12741 -51.18949,-23.71874 -66.74296,-32.13693 -99.5,-53.85358 -8.8,-5.83406 -16.58546,-10.60923 -17.30103,-10.6115 -2.92004,-0.009 -6.13295,13.00741 -8.78437,35.58861 -2.94691,25.09785 -1.06506,57.2261 5.06114,86.40726 3.80488,18.12393 18.18931,54.10829 27.36059,68.44578 1.74002,2.72018 3.16367,5.82371 3.16367,6.89674 0,1.81835 -0.51215,1.90766 -7.53514,1.314 -11.10698,-0.93888 -11.16486,0.51322 -0.65153,16.34348 5.97726,9.00015 19.14625,23.53501 22.20214,24.50491 1.08009,0.34281 5.8149,-1.32716 11.65197,-4.10964 13.48674,-6.42901 17.33256,-8.98266 17.33256,-11.50895 0,-1.19274 -2.85446,-5.15492 -6.65489,-9.23745 -11.30307,-12.14208 -17.80027,-20.94926 -23.17801,-31.41862 -4.75038,-9.24802 -6.30679,-14.25616 -4.4171,-14.2132 0.4125,0.009 3,1.35171 5.75,2.98295 2.75,1.63124 5.3375,2.97357 5.75,2.98295 1.67212,0.038 0.47117,-3.1146 -6.27898,-16.48295 -7.39806,-14.65149 -11.03365,-26.27757 -12.43049,-39.75081 -0.89244,-8.60805 0.63059,-9.6342 6.46963,-4.35897 4.15973,3.75806 6.00391,4.48704 5.9698,2.35978 -0.011,-0.6875 -1.12701,-5.525 -2.47996,-10.75 -1.35295,-5.225 -2.46893,-10.5125 -2.47996,-11.75 -0.0207,-2.32436 1.3856,-3.02071 2.49038,-1.23314 0.91348,1.47804 38.73682,34.56885 47.0665,41.17745 8.42298,6.68261 15.70993,15.06663 15.24179,17.53647 -0.4145,2.18685 -5.53526,2.77484 -12.74832,1.46382 -6.19339,-1.12568 -7.83113,0.10805 -5.2739,3.97291 0.93693,1.41603 5.97851,7.40637 11.20351,13.31187 5.225,5.90549 10.58756,12.28488 11.91681,14.17642 2.1767,3.09749 2.26373,3.59223 0.87602,4.97995 -0.98528,0.98527 -4.46524,1.7921 -9.65214,2.23785 -4.46125,0.38339 -8.57216,1.15787 -9.13536,1.72107 -2.41771,2.41771 7.72764,12.28777 20.77798,20.21419 7.91351,4.80644 10.91135,6.18644 30.21669,13.90968 15.17121,6.06934 12.53092,8.22455 -10.5,8.57091 -7.7,0.1158 -19.175,-0.18128 -25.5,-0.66019 l -11.5,-0.87074 -7.5,3.98311 c -26.42704,14.03491 -87.17596,51.72501 -89.42405,55.48085 -2.20081,3.67687 0.53873,4.30598 16.72699,3.8412 23.16033,-0.66496 24.64734,-0.63894 24.93217,0.43632 0.14569,0.55 -4.46011,4.75315 -10.23511,9.34034 -15.81334,12.56081 -37.11355,32.46136 -52.10153,48.67786 -12.91188,13.9702 -24.89847,29.92945 -24.89847,33.15025 0,2.5329 5.30006,1.1313 18.5,-4.89225 16.50439,-7.5316 38.93571,-15.8036 44.70873,-16.4873 6.30709,-0.747 6.25848,0.5817 -0.30195,8.2544 -18.95257,22.16575 -34.05981,47.64975 -45.97235,77.54945 -4.44386,11.1539 -10.83679,34.4906 -13.91022,50.7778 -2.0582,10.9071 -2.10726,14.1294 -0.21516,14.1294 0.47949,0 7.34479,-5.1986 15.2562,-11.5524 22.69452,-18.2264 45.78107,-32.7226 63.90978,-40.1292 5.78873,-2.365 11.58625,-4.3042 12.88338,-4.3092 2.07142,-0.01 2.27604,0.3254 1.68157,2.7408 -0.37226,1.5125 -2.6243,6.125 -5.00455,10.25 -5.65051,9.7924 -6.31897,12 -3.63367,12 1.1201,0 8.1598,-2.7091 15.64378,-6.0201 7.48398,-3.3111 19.21671,-7.6008 26.07274,-9.5326 21.08104,-5.9401 29.30826,-6.8609 61.38172,-6.87 31.60671,-0.01 36.61125,0.5786 58.78219,6.9004 26.16088,7.4594 57.66127,23.338 74.21781,37.4113 3.025,2.5713 7.525,6.2203 10,8.1089 9.6283,7.347 15.54455,13.268 27.09745,27.1193 11.1777,13.4016 12.5791,15.5767 20.541,31.8828 10.9038,22.3312 15.2668,33.2981 20.3452,51.1401 4.8023,16.872 6.4115,19.547 21.5964,35.899 11.5884,12.479 19.7177,23.9302 24.5429,34.5717 6.1042,13.4625 9.8151,23.533 10.923,29.643 0.6178,3.4066 1.5513,6.9937 2.0745,7.9713 2.1663,4.0478 14.5529,8.2982 37.3431,12.8143 17.3103,3.4302 19.0954,4.7368 8.7916,6.435 -7.9331,1.3075 -6.2627,3.6118 4.2511,5.8642 9.0938,1.9483 14.5343,1.9758 22.435,0.1136 z"
       id="path76" />
    <path
       style="fill:#f2f2f2"
       d="m 944.59567,1396.4778 c 4.07202,-1.2087 13.12634,-4.4243 20.12071,-7.1458 17.78787,-6.9212 20.53977,-9.5564 25.93217,-24.8327 9.97725,-28.2646 14.79925,-48.131 13.44055,-55.3737 -0.3634,-1.9372 -2.2822,-5.4581 -4.26405,-7.8242 -1.9818,-2.3662 -7.9613,-10.1521 -13.2879,-17.3021 -9.8563,-13.2306 -15.86001,-19.5 -18.67337,-19.5 -4.9799,0 -48.09097,14.3419 -50.53522,16.8117 -2.05587,2.0774 -9.45122,21.2289 -18.32484,47.4554 -7.82925,23.1397 -7.95979,21.1308 2.31322,35.5986 3.76254,5.2988 8.80511,12.5593 11.20571,16.1343 2.4006,3.575 6.61118,9.3668 9.35684,12.8707 l 4.99212,6.3707 5.16019,-0.5326 c 2.8381,-0.2929 8.49184,-1.5215 12.56387,-2.7303 z"
       id="path75" />
    <path
       style="fill:#f2f2f2"
       d="m 758.89314,1400.9017 c 0.85655,-0.3287 4.81126,-5.1662 8.78824,-10.75 3.97699,-5.5838 11.35581,-15.7774 16.3974,-22.6524 5.04159,-6.875 9.47606,-13.5032 9.85439,-14.7294 0.59949,-1.9429 -6.60602,-25.6526 -19.22832,-63.2706 -1.28813,-3.839 -2.77916,-6.1314 -4.93717,-7.5908 -3.19674,-2.1619 -42.81089,-15.7022 -49.61116,-16.9573 -3.70162,-0.6832 -4.02236,-0.5117 -8.72827,4.6694 -4.53764,4.9958 -15.96876,20.1756 -24.64759,32.7304 -5.03703,7.2865 -5.4288,13.5986 -1.77816,28.6483 4.89416,20.1761 15.83724,47.6528 20.85654,52.3682 2.37961,2.2355 20.32578,9.0371 40.14031,15.2131 9.83377,3.0652 10.59682,3.2025 12.89379,2.3211 z"
       id="path74" />
    <path
       style="fill:#e6e6e6"
       d="m 692.77381,1405.994 c 0.47399,-2.1971 0.70295,-6.9197 0.50882,-10.4947 -0.29938,-5.5129 -0.99301,-7.5717 -4.56773,-13.5575 -2.3181,-3.8816 -5.51575,-10.6316 -7.10589,-15 -3.45603,-9.4943 -9.38604,-31.7145 -11.53085,-43.2069 -1.88865,-10.1199 -3.15947,-12.6726 -8.97969,-18.0375 -4.84025,-4.4616 -7.52021,-5.3111 -7.7232,-2.4481 -0.51314,7.2374 2.07951,30.5058 4.67962,41.9984 4.54353,20.0826 15.28062,43.9577 27.23122,60.5515 4.14123,5.7502 6.27723,5.8058 7.4877,0.1948 z"
       id="path73" />
    <path
       style="fill:#f9f9f9"
       d="m 1001.9562,1407.5555 c 4.9984,-6.4959 19.2699,-34.6962 22.4931,-44.4461 5.1516,-15.5831 11.0588,-52.7406 9.5075,-59.8037 -0.339,-1.5435 -1.2749,-2.8064 -2.0798,-2.8064 -2.6827,0 -11.3232,9.0527 -12.3011,12.888 -0.5065,1.9866 -2.1262,8.787 -3.5992,15.112 -4.433,19.0349 -10.2637,36.8269 -16.14045,49.251 -5.0091,10.5897 -5.61,12.5792 -6.0812,20.1313 -0.6086,9.7556 0.2289,15.6177 2.2312,15.6177 0.7679,0 3.4544,-2.6747 5.96995,-5.9438 z"
       id="path72" />
    <path
       style="fill:#aa0000"
       d="m 648.49935,1413.1391 c 0,-0.748 -1.74157,-5.1355 -3.87016,-9.75 -9.12707,-19.7859 -16.43288,-44.0525 -19.8371,-65.8898 -1.41143,-9.054 -1.77952,-17.2429 -1.73059,-38.5 0.0568,-24.6886 0.28927,-28.2603 2.71502,-41.7216 1.7634,-9.7856 4.03717,-18.3355 6.78156,-25.5 7.02438,-18.338 8.15732,-23.9195 5.41233,-26.6645 -1.65379,-1.6538 -3.86455,-1.2395 -6.87323,1.2881 -3.06427,2.5743 -12.72967,17.9369 -17.55976,27.9102 -2.45406,5.0673 -4.92906,9.0603 -5.5,8.8735 -3.33888,-1.0926 -5.99653,-25.9946 -5.14776,-48.2343 1.42979,-37.4642 8.75971,-72.0811 25.08137,-118.4514 3.58145,-10.175 6.51546,-19.5125 6.52002,-20.75 0.0113,-3.066 -1.76912,-2.8754 -10.40193,1.1132 -12.24179,5.656 -26.42678,15.7123 -42.51251,30.1387 -9.67289,8.6751 -15.10373,12.805 -15.85266,12.0552 -0.74805,-0.749 4.27759,-15.4669 12.14149,-35.5571 9.55777,-24.4176 31.19274,-60.5957 50.76431,-84.88855 14.873,-18.46077 23.8877,-30.55666 23.54759,-31.59608 -2.24552,-6.86258 -53.40445,15.97186 -93.67799,41.81248 -10.57715,6.7866 -26.27354,18.36005 -35.67412,26.30345 -7.67871,6.4885 -10.19072,7.9039 -11.57359,6.521 -2.22603,-2.226 3.21928,-11.8767 12.9333,-22.92165 23.11349,-26.28027 59.36057,-56.96866 91.70705,-77.64328 12.67719,-8.10277 53.7981,-31.69653 65.28951,-37.46088 2.30018,-1.15382 4.47643,-2.574 4.83609,-3.15595 1.23636,-2.00048 -1.58766,-3.74872 -7.18522,-4.44809 -7.25009,-0.90583 -14.44538,-3.08617 -15.4272,-4.67479 -0.48278,-0.78114 0.55239,-2.71927 2.75388,-5.15606 5.13043,-5.67877 3.79795,-6.35902 -9.39936,-4.79854 -46.37245,5.48319 -46.4794,5.50322 -79.48314,14.88702 -10.84755,3.08423 -20.04618,5.28432 -20.44141,4.88909 -1.02454,-1.02454 8.84274,-10.85288 17.66421,-17.59449 7.78854,-5.95222 25.0301,-16.74231 38,-23.78112 10.40356,-5.64604 22.97704,-10.44521 40,-15.26758 19.96852,-5.6568 23,-6.8384 23,-8.96484 0,-0.97541 -1.68226,-3.9757 -3.73835,-6.66729 -4.87235,-6.37829 -12.26165,-19.37145 -12.26165,-21.56057 0,-2.52622 1.26983,-2.9849 12.19779,-4.40604 5.46386,-0.71055 10.58973,-1.83588 11.39083,-2.50073 1.71109,-1.42009 1.76266,-1.20687 -4.57781,-18.92646 -2.65683,-7.425 -5.38561,-16.425 -6.06396,-20 -1.52956,-8.06111 -2.48878,-10 -4.94722,-10 -1.0615,0 -10.60817,2.25642 -21.21482,5.01427 -24.60165,6.39671 -50.78481,15.60798 -50.78481,17.86616 0,1.11924 5.16228,5.17026 13.37741,10.49773 5.7035,3.69868 5.82186,3.86414 4,5.5918 -1.7572,1.66635 -9.99115,5.47527 -35.37741,16.36514 -5.775,2.47728 -16.575,7.40753 -24,10.9561 -19.24458,9.19741 -26.59423,12.25108 -43,17.86584 -15.05523,5.15254 -18.30246,6.9405 -16.2794,8.96356 3.03816,3.03816 19.96079,5.40181 46.3762,6.47756 8.02824,0.32694 15.22824,0.98483 16,1.46198 2.19677,1.35816 -0.002,2.93311 -15.5968,11.17369 -7.7,4.06872 -16.025,8.7067 -18.5,10.30663 -13.09354,8.46415 -39.01712,28.74836 -50.26532,39.3307 -10.38569,9.77088 -36.97278,40.23106 -44.44651,50.92127 -8.65136,12.37466 -17.78947,29.10627 -16.56525,30.33047 0.88538,0.8854 20.31267,-8.39352 46.27708,-22.10299 9.01674,-4.76092 28.49408,-12.01991 32.25188,-12.01991 0.96146,0 1.74812,0.41206 1.74812,0.91569 0,0.50364 -3.9375,5.1225 -8.75,10.26414 -28.00608,29.92157 -40.78542,48.06067 -55.53016,78.82012 -16.69651,34.8311 -26.25529,66.8305 -30.17054,101 -2.96237,25.8535 -1.93558,27.8831 7.9507,15.7163 18.80692,-23.1452 67.89504,-68.3313 91.45805,-84.1881 4.98802,-3.3567 10.27384,-4.5801 11.46456,-2.6534 0.29735,0.4811 -1.27398,4.1936 -3.49186,8.25 -16.82467,30.7713 -30.54508,67.576 -34.96829,93.8016 -2.72716,16.1696 -3.6948,46.935 -2.03612,64.7369 2.02043,21.6843 10.08508,57.1942 16.23734,71.4955 3.74505,8.7057 4.78102,7.1062 8.84671,-13.6588 5.28155,-26.9748 12.6699,-51.6957 21.30146,-71.273 4.88815,-11.0869 11.06274,-21.227 12.92573,-21.227 0.98162,0 1.27017,5.5052 1.29725,24.75 0.0325,23.1065 0.21742,25.6133 2.7845,37.75 5.91411,27.9609 12.54166,48.4066 20.03413,61.8044 3.91374,6.9984 5.292,8.456 6.67425,7.0585 0.46939,-0.4746 2.01842,-8.8133 3.44228,-18.5305 2.70357,-18.4505 4.92503,-27.8324 6.59019,-27.8324 1.47699,0 2.5664,3.1512 6.39562,18.5 6.5039,26.0698 10.36258,37.0072 19.75662,56 8.20804,16.595 16.95153,28.647 31.28758,43.127 11.91073,12.0303 20.49546,19.373 22.65004,19.373 0.46748,0 0.84996,-0.6121 0.84996,-1.3602 z"
       id="path71" />
    <path
       style="fill:#800000"
       d="m 567.49935,1423.1651 c 0,-2.4557 -3.34553,-7.599 -14.13224,-21.7268 -3.59505,-4.7086 -10.05264,-14.2713 -14.35022,-21.2505 -8.42393,-13.6804 -10.01119,-15.5949 -11.60654,-13.9995 -1.73248,1.7325 -4.90861,19.3355 -5.56449,30.84 -0.69604,12.209 0.77557,23.8405 3.38072,26.721 1.40861,1.5575 3.82117,1.75 21.92776,1.75 h 20.34501 z"
       id="path70" />
    <path
       style="fill:#f2f2f2"
       d="m 904.1673,1424.3087 c 0.64238,-0.505 3.05479,-3.8141 5.36093,-7.3537 3.01012,-4.6201 4.02983,-7.0856 3.61467,-8.7398 -0.31806,-1.2672 -3.26411,-6.1093 -6.54677,-10.76 -3.28265,-4.6507 -9.33457,-13.4059 -13.44869,-19.4559 -4.11413,-6.05 -9.11863,-12.575 -11.12111,-14.5 l -3.64088,-3.5 -29.69305,0.3737 c -16.33118,0.2055 -32.82563,0.6555 -36.65434,1 l -6.96128,0.6263 -4.53872,5.6463 c -4.94642,6.1535 -25.96373,39.851 -26.76401,42.9112 -0.27204,1.0403 0.64577,3.8155 2.0396,6.167 5.32844,8.9896 2.87062,8.2126 27.85328,8.8053 30.76413,0.7298 99.07464,-0.1 100.50037,-1.2204 z"
       id="path69" />
    <path
       style="fill:#aa0000"
       d="m 508.91756,1425.8923 c 1.16935,-0.4487 1.58179,-2.0005 1.58179,-5.9512 0,-5.115 -0.27964,-5.6787 -6.51954,-13.143 -6.91051,-8.2665 -30.33747,-43.6994 -37.22268,-56.2988 -7.86918,-14.3999 -18.66153,-40.3805 -25.56451,-61.5417 -7.81144,-23.9462 -11.69069,-51.1064 -12.09705,-84.6962 -0.13133,-10.8559 -0.5103,-20.0095 -0.84214,-20.3414 -2.85628,-2.8562 -20.53468,17.3696 -27.42528,31.3772 -4.37174,8.8872 -4.59599,9.7708 -5.07575,20 -1.32437,28.2378 6.43945,74.0683 18.9053,111.5995 6.93671,20.8846 30.47664,68.315 38.03528,76.6369 l 2.69363,2.9657 h 25.97458 c 14.28602,0 26.68639,-0.2731 27.55637,-0.607 z"
       id="path68" />
    <path
       style="fill:#e6e6e6"
       d="m 864.33092,1648.7604 c 11.88799,-3.9469 17.97247,-10.1551 20.60805,-21.0271 1.70979,-7.0531 2.96183,-77.7653 1.42553,-80.5105 -0.8756,-1.5646 -3.43963,-1.7235 -27.80785,-1.7235 -30.06578,0 -28.0573,-0.5474 -28.0573,7.6475 0,5.359 0.9595,7.3459 6.58317,13.6323 6.44302,7.2023 7.68434,12.0719 6.86188,26.9187 -0.42526,7.6766 -1.26643,13.5711 -2.2374,15.6784 -2.29585,4.9827 -7.66242,7.0739 -18.22325,7.1011 -9.94406,0.026 -14.33299,-1.7543 -17.4844,-7.0911 -1.9184,-3.2487 -2.01162,-5.458 -2.28488,-54.1505 -0.18617,-33.1756 0.0785,-52.1131 0.76395,-54.6587 2.1831,-8.1074 12.56134,-13.0242 24.8204,-11.7589 9.53062,0.9836 12.96743,4.7953 13.78924,15.2935 0.9696,12.3862 0.50459,11.7623 8.21513,11.022 9.79988,-0.941 32.19233,-6.2019 33.97187,-7.9814 1.33011,-1.3302 1.38596,-2.9745 0.42248,-12.4378 -1.899,-18.652 -6.62417,-27.1401 -18.35953,-32.9804 -20.90743,-10.405 -70.00326,-9.2016 -89.25875,2.1878 -9.14788,5.4109 -15.50148,14.9955 -18.11449,27.3261 -1.78622,8.4291 -2.10214,105.6201 -0.39314,120.9465 2.66352,23.8867 12.62762,34.8473 34.7977,38.278 3.09651,0.4792 18.68002,0.763 34.63002,0.6307 26.41247,-0.2191 29.56493,-0.4282 35.33157,-2.3427 z"
       id="path67" />
    <path
       style="fill:#e6e6e6"
       d="m 1015.4994,1655.0052 c 14.462,-4.4612 21.2373,-10.501 25.2416,-22.5014 2.1216,-6.3581 2.1851,-8.1476 2.8182,-79.5045 0.5533,-62.3665 0.8873,-74.0925 2.2927,-80.5 2.3181,-10.5686 2.1901,-13.6213 -0.6026,-14.3697 -1.2375,-0.3317 -12.4015,-0.6091 -24.8089,-0.6166 -17.2788,-0.01 -22.98715,0.2995 -24.38885,1.3245 -1.7732,1.2966 -1.7728,1.6151 0.013,10.25 1.6566,8.0087 1.8787,15.4999 2.1915,73.9225 0.3784,70.6573 0.3651,70.8534 -5.0821,74.8938 -2.3654,1.7545 -4.2367,2.0919 -11.5,2.0731 -14.93033,-0.038 -20.46234,-4.57 -21.67181,-17.7523 -0.36461,-3.9739 -0.47975,-33.5503 -0.25586,-65.7253 0.3586,-51.5363 0.62286,-59.5487 2.21994,-67.31 1.40587,-6.832 1.5445,-9.0771 0.61749,-10 -1.72619,-1.7184 -49.48977,-1.6853 -51.21038,0.036 -0.96719,0.9673 -0.83087,2.969 0.64694,9.5 1.71287,7.5697 1.89753,14.0923 2.16812,76.5865 0.24675,56.985 0.54927,69.4051 1.82449,74.9038 4.10059,17.6814 16.87039,29.1644 37.48617,33.7087 13.14039,2.8965 20.07199,3.457 38.5,3.1135 13.32205,-0.2484 19.42945,-0.7766 23.50005,-2.0322 z"
       id="path66" />
    <path
       style="fill:#e6e6e6"
       d="m 621.0335,1661.9612 c 12.06813,-1.396 22.301,-2.8971 22.73972,-3.3358 0.43871,-0.4387 0.10656,-6.0696 -0.73811,-12.5131 -2.03574,-15.5295 -2.27648,-95.0257 -0.28576,-94.3645 0.6875,0.2284 5.11265,8.9284 9.83366,19.3333 19.03947,41.9625 22.85894,50.5422 29.0064,65.1571 3.52547,8.3815 7.13095,16.2024 8.01218,17.3799 1.60023,2.1382 1.62797,2.1393 22,0.9084 12.7677,-0.7714 20.8672,-1.6768 21.65272,-2.4205 1.00573,-0.9521 0.94702,-3.2475 -0.2956,-11.5582 -2.31025,-15.4509 -1.61315,-160.5592 0.82888,-172.5399 0.8959,-4.3953 1.28608,-8.3343 0.86708,-8.7533 -1.11926,-1.1192 -37.80817,-1.9857 -43.65532,-1.0309 l -5,0.8164 0.0732,3.9796 c 0.0403,2.1888 0.56807,7.8046 1.17287,12.4796 1.4569,11.2618 2.10141,78.9295 0.75389,79.1526 -1.19352,0.1976 -2.98381,-3.1754 -9.10415,-17.1526 -2.52875,-5.775 -8.52929,-19.05 -13.33452,-29.5 -4.80523,-10.45 -11.37704,-25.2797 -14.60403,-32.955 -3.22698,-7.6752 -6.73128,-14.819 -7.78731,-15.875 -1.8083,-1.8083 -3.25019,-1.8948 -24.77021,-1.4865 -12.56758,0.2384 -23.16097,0.7444 -23.54088,1.1243 -0.3799,0.3799 0.17143,6.8785 1.22518,14.4415 1.74863,12.5501 1.91592,20.2993 1.91592,88.7507 0,67.9932 -0.1734,76.1447 -1.85604,87.2525 -1.02081,6.7389 -1.59744,12.9264 -1.28138,13.75 0.73964,1.9275 0.39353,1.9412 26.17157,-1.0406 z"
       id="path65" />
    <path
       style="fill:#e6e6e6"
       d="m 1188.0901,1675.1232 c 0.2904,-0.7568 -0.1568,-6.0443 -0.9939,-11.75 -1.9233,-13.109 -2.5018,-74.369 -0.7191,-76.1517 1.2523,-1.2523 14.4873,-0.063 32.2764,2.9007 5.8271,0.9708 10.3291,1.2898 10.8447,0.7685 1.192,-1.2053 1.5905,-41.2167 0.4214,-42.317 -0.5062,-0.4764 -10.2176,-1.0496 -21.5811,-1.2738 -15.6874,-0.3095 -21.0637,-0.7421 -22.335,-1.7971 -1.5137,-1.2562 -1.6062,-3.5047 -0.9647,-23.4465 0.3902,-12.1313 1.0985,-22.8056 1.5739,-23.7206 2.027,-3.9007 22.0825,-3.2987 44.9768,1.3499 5.8245,1.1827 11.4022,1.8387 12.3947,1.4579 1.6876,-0.6476 1.7581,-1.9296 1.0881,-19.7736 -0.3941,-10.4946 -0.9706,-19.7432 -1.2812,-20.5525 -0.3105,-0.8092 -1.6575,-1.8868 -2.9933,-2.3947 -2.622,-0.9969 -98.3337,-1.289 -101.9793,-0.3112 -3.1077,0.8335 -3.34,2.2523 -1.5524,9.4815 2.398,9.6983 3.0763,171.6588 0.7798,186.1964 -2.2526,14.2593 -2.2265,14.4452 2.2034,15.6466 2.0625,0.5594 12.3,2.2057 22.75,3.6585 10.45,1.4529 19.1875,2.8133 19.4167,3.0232 1.0529,0.9644 5.2014,0.2373 5.6741,-0.9945 z"
       id="path64" />
    <path
       style="fill:#e6e6e6"
       d="m 439.55234,1694.7208 c 7.0161,-1.3273 15.90654,-2.9454 19.75654,-3.5957 3.85,-0.6503 8.62991,-1.5911 10.62203,-2.0907 l 3.62202,-0.9084 0.67272,-14.2459 c 0.78497,-16.6232 2.07403,-24.2367 4.5172,-26.6799 1.06598,-1.066 5.39611,-2.4211 11.02915,-3.4517 14.45445,-2.6445 29.05696,-4.5438 30.54466,-3.9729 2.49617,0.9578 3.67607,6.7617 4.47839,22.0288 0.43847,8.3437 1.12695,15.7038 1.52995,16.3559 0.5255,0.8503 2.88938,0.9852 8.3583,0.4771 12.57549,-1.1683 41.11726,-6.0949 42.32876,-7.3064 1.20047,-1.2004 0.2531,-5.1815 -6.70997,-28.1968 -5.01691,-16.5826 -7.73453,-27.4438 -14.03179,-56.079 -3.07471,-13.9816 -7.41496,-32.396 -9.645,-40.921 -2.23004,-8.525 -7.13607,-30.1201 -10.90229,-47.9891 -5.05321,-23.9752 -7.29954,-32.8196 -8.57203,-33.75 -1.27025,-0.9288 -7.84124,-1.2609 -24.95144,-1.2609 -12.7749,0 -23.95139,0.2779 -24.83665,0.6176 -0.88526,0.3398 -2.04416,1.4297 -2.57532,2.4222 -0.53116,0.9925 -3.87717,15.2271 -7.43557,31.6324 -3.5584,16.4053 -8.75643,39.9528 -11.55117,52.3278 -2.79473,12.375 -6.88117,31.275 -9.08097,42 -6.93613,33.8168 -16.08004,72.4083 -21.43051,90.4466 -1.94895,6.5706 -3.31849,12.5331 -3.0434,13.25 0.68697,1.7902 2.6381,1.6651 17.30639,-1.11 z"
       id="path62"
       sodipodi:nodetypes="ssscssssssssssssssssssssss" />
    <path
       style="fill:#000000"
       d="m 487.77204,1594.2493 c 0.57763,-5.1783 7.93952,-48.3266 10.66836,-62.5275 2.19356,-11.4153 2.89681,-13.2636 4.17655,-10.9768 1.49269,2.6673 6.85175,28.6748 10.44472,50.6882 2.88666,17.686 3.269,21.6634 2.18655,22.7458 -0.72151,0.7215 -6.44405,1.9887 -12.71677,2.8161 -16.19351,2.1358 -15.32202,2.2979 -14.75941,-2.7458 z"
       id="path63" />
    <path
       style="fill:#e6e6e6"
       d="m 1370.5477,1708.5729 c 9.8987,-3.7612 15.9826,-10.4817 20.0576,-22.1565 1.9726,-5.6514 2.2919,-8.936 2.6762,-27.5264 0.5031,-24.3424 0.8789,-23.2692 -9.4907,-27.1036 -26.9146,-9.9524 -33.7529,-12.2257 -34.5071,-11.4715 -0.4749,0.4749 -1.1071,8.6982 -1.4048,18.274 -0.2977,9.5757 -0.9845,18.5877 -1.5264,20.0267 -1.5494,4.1151 -4.7681,5.2547 -13.0629,4.6252 -12.7792,-0.9698 -19.491,-5.2024 -21.7902,-13.7413 -0.7024,-2.6084 -0.9607,-27.1885 -0.7763,-73.8818 0.2731,-69.193 0.2995,-70.0045 2.3661,-72.7957 3.0753,-4.1535 7.0056,-5.7138 15.4605,-6.1377 9.1812,-0.4604 14.0314,1.2605 16.924,6.0048 1.8129,2.9735 2.0201,5.0392 2.0372,20.3102 0.01,9.35 0.4274,17.6454 0.9265,18.4341 0.9493,1.5002 -0.3347,1.7884 33.5619,-7.5343 4.95,-1.3614 9.582,-3.2458 10.2934,-4.1876 1.4135,-1.8713 1.488,-16.2666 0.1598,-30.891 -1.6527,-18.1977 -8.3795,-28.9996 -22.2952,-35.8018 -12.5424,-6.131 -17.6992,-7.0297 -39.658,-6.9118 -44.1474,0.2371 -57.6327,8.7448 -64.0243,40.3924 -1.9945,9.8759 -2.1389,14.0368 -2.4291,70 -0.4132,79.7028 0.2649,89.1416 7.491,104.2694 7.7687,16.2637 19.4795,23.7084 50.8466,32.3242 27.7572,7.6243 39.1188,8.917 48.1642,5.48 z"
       id="path61" />
    <path
       style="fill:#e6e6e6"
       d="m 342.72581,1712.4149 c 31.34604,-6.8659 47.26661,-13.2212 55.18601,-22.0295 5.29204,-5.886 10.21242,-15.7238 13.69712,-27.3861 2.24347,-7.5082 2.39041,-9.5368 2.39041,-33 v -25 l -3.61459,-7.5687 c -6.87772,-14.4013 -15.36058,-21.5555 -49.42582,-41.684 -25.38282,-14.9983 -28.00559,-18.6252 -27.29768,-37.7492 0.44784,-12.098 2.18245,-15.8823 8.82286,-19.2481 6.27041,-3.1783 16.36346,-3.1617 21.11735,0.035 4.68284,3.1486 5.7756,7.17 5.84144,21.4968 0.0447,9.7258 0.35592,12.3963 1.49563,12.8336 1.2714,0.4879 22.46139,-4.1991 37.45207,-8.2839 l 5.39126,-1.4691 -0.58882,-15.181 c -0.60744,-15.6608 -2.27237,-25.0071 -5.6047,-31.4625 -1.98512,-3.8456 -7.72293,-9.7242 -12.089,-12.3856 -3.70049,-2.2558 -13.72546,-5.8299 -19.46637,-6.9403 -7.62725,-1.4752 -35.77827,-1.1576 -45.32862,0.5114 -16.22568,2.8355 -27.94221,10.7825 -34.48066,23.3873 -5.72343,11.0335 -6.22519,14.6419 -6.21693,44.7087 0.007,25.8773 0.1035,27.2386 2.31782,32.7392 5.32144,13.219 13.80339,21.4411 35.29398,34.213 17.97198,10.6808 30.73328,19.5352 35.06499,24.3299 5.26154,5.8239 6.3121,9.8547 6.31201,24.2179 -7e-5,11.0763 -0.25837,12.9839 -2.2679,16.7489 -3.0013,5.6231 -8.52709,9.1391 -16.51269,10.507 -7.86951,1.348 -12.19327,0.3228 -15.11386,-3.5835 -1.87418,-2.5068 -2.13654,-4.421 -2.42284,-17.6783 -0.24071,-11.1466 -0.66814,-15.1552 -1.70796,-16.0182 -1.07779,-0.8945 -5.61243,0.251 -20.346,5.1393 -10.42751,3.4597 -19.78393,6.8954 -20.79204,7.6349 -1.68103,1.2332 -1.80812,2.8532 -1.53361,19.5473 0.44783,27.2339 2.11018,34.6318 9.55848,42.5379 9.2694,9.8391 20.66043,11.3827 44.86866,6.0803 z"
       id="path60" />
    <path
       style="fill:#aa0000"
       d="m 863.02351,1795.1986 c 14.49513,-6.4746 22.06016,-10.6378 57.1496,-31.4505 21.97496,-13.034 35.23209,-22.5029 57.49574,-41.0664 12.2813,-10.2402 15.2392,-13.1824 13.2529,-13.1824 -0.3177,0 -10.5552,4.8962 -22.75,10.8805 -28.74068,14.1037 -56.00128,26.6392 -71.6724,32.9577 -29.08458,11.7267 -46.34774,18.1618 -48.72201,18.1618 -7.78357,0 -84.72249,-32.4353 -130.21801,-54.8962 -10.14201,-5.0071 -18.80451,-9.1038 -19.25,-9.1038 -0.44549,0 -0.80998,0.4253 -0.80998,0.9451 0,1.0457 22.8847,19.5366 38.52276,31.1266 5.51252,4.0856 11.36252,8.4332 13,9.6613 8.97665,6.7328 49.18316,30.0453 69.47724,40.2843 11.65101,5.8783 26.08233,11.9218 28.5,11.9352 1.1,0.01 8.31087,-2.8079 16.02416,-6.2532 z"
       id="path59" />
    <text
       xml:space="preserve"
       style="text-align:start;writing-mode:lr-tb;direction:ltr;text-anchor:start;fill:#ff0000"
       x="496.9982"
       y="1546.7802"
       id="text111"><tspan
         id="tspan111"
         sodipodi:role="line"
         x="496.9982"
         y="1546.7802" /></text>
  </g>
</svg>
