<?xml version="1.0" encoding="UTF-8"?>
<svg id="Livello_1" data-name="Livello 1" xmlns="http://www.w3.org/2000/svg" viewBox="0 0 2798.11 2720.1">
  <defs>
    <style>
      .cls-1 {
        fill: #640e0e;
      }

      .cls-2 {
        fill: #686a6a;
      }

      .cls-3 {
        fill: #1d1d1b;
      }

      .cls-4 {
        fill: #807e81;
      }

      .cls-5 {
        fill: #312783;
      }

      .cls-6 {
        fill: #0c0409;
      }

      .cls-7 {
        fill: #d6353e;
      }

      .cls-8 {
        fill: #fff;
      }

      .cls-9 {
        fill: #030c18;
      }

      .cls-10 {
        fill: #250808;
      }

      .cls-11 {
        fill: #0a0c10;
      }

      .cls-12 {
        fill: #fefefe;
      }

      .cls-13 {
        fill: #c4c4c5;
      }

      .cls-14 {
        fill: #e99c90;
      }

      .cls-15 {
        fill: #e71b33;
      }

      .cls-16 {
        fill: #f9b233;
      }
    </style>
  </defs>
  <path class="cls-11" d="M0,1271c10.21-43.43,18.63-90.69,27.84-134.75l52.37-248.38,46.79,13.93c3.38-9.15,9.05-19.92,13.46-28.85-14.77-4.7-30.52-10.82-45.17-16.19,31.05-56.26,66.99-112.7,99.86-168.15,18.53-30.32,36.32-61.17,55.17-91.29,14.1-22.54,23.38-21.48,46.29-28.76,31.57-10.04,67.7-17.96,98.08-29.97,6.98-2.76,43.1-39.65,49.83-46.13,17.67-17.17,35.92-33.73,54.74-49.64-16.31-22.4-32.8-44.67-49.47-66.81l206.45-125.69c35.51-21.5,72.13-44.47,108.23-64.7,51.78,15.54,102.85,32.59,154.94,47.59,29.2-43.3,60.16-85.28,89.62-128.35l248.96-30.71c22.75,19.26,46.15,37.25,68.69,56.93-8.75-20.32-17.35-40.7-25.79-61.14,77.98,9.86,164.73,18.59,241.68,30.67,8.04,30.45,15.28,64.78,22.33,95.64,18.38-26.25,37.68-52.61,56.46-78.6l231.91,74.6c-15.87,14.51-31.83,28.91-47.87,43.22l21.96,10.26c30.8-6.93,61.7-13.48,92.67-19.67,39.37,29.37,78.54,59.01,117.52,88.89,33.22-42.34,59.52-64.58,100.62-98.64,2.36-17.81,4.4-36.06,11.17-52.85,15.65-38.83,58.71-52.02,97.11-53.03,19.25-.51,50.95,1.04,69.2-6.94,22.05-9.63,67.94-30.47,84.75-47.05,10.1-11.73,17.1-25.53,29.78-34.93,33-24.47,76.34-9.97,113.49-5.18,10.87-8.42,15.6-11.95,28.78-16.03,42.25-3.46,45.54,24.01,68.1,47.79,11.65,12.27,26.78,15.52,38.85,32.46,9.34,13.32,12.85,29.88,9.72,45.85-3.57,18.7-12.2,26.98-26.62,36.99,1.22,37.27-6.41,80.22-33.02,108.66-2.28,2.43-5.88,1.47-8.65,1.09-5.79-5.55-3.41-48.35-4.82-61.08-4.13,4.92-8.23,9.99-12.3,14.96,1.26,14.83-2.55,69.27-22.15,69.86-1.41-.88-2.81-1.76-4.24-2.63-4.15-11.69-5.5-20.68-11.14-31.62l-1.03-1.98c-4.15,3.03-5.64,4.29-9.39,7.8-1.96,12.3-7.41,47.6-20.21,52.27-8.73-2.33-9.81-12.24-16.13-22.55l-.96-1.55c-13.43,10.69-25.45,23.04-35.76,36.76-28.35,38.29-37.85,98.24,6.11,129.48,52.59-35.77,123.21-39.73,156.14,24.85,9.72,19.05,7.51,48.74,27.13,62.22,31.79,21.84,67.3-15.16,99.8,8.36,17.71,12.97,22.73,33.45,26.21,53.81-17.73-24.19-24.15-29.52-53.58-35.74,43.49,32.73,34.4,77.71-9.07,104.98,9.46-17.51,18.82-45.54,5.86-63.84-17.73-24.77-45.48-17.12-70.94-21.53-44.8-7.78-44.31-49.12-63.51-79.88-22.44-35.91-58.64-4.28-81.98,12.54,3.66,4.33,8.37,8.98,12.36,13.12,8.18-9.11,14.07-24.98,18.54-29.1,4.38-.72,2.52-1.3,5.86,1.03,8.23,14.96,6.47,40.59,3.61,57.08l18.54,16.54c.03-8.91-2.81-28.12,10.16-26.56,15.25,11.37,19.51,36.9,22.63,54.49,11.34,7.15,26.81,20.07,29.55,33.24,16.39,78.74-77.87,112.44-137.35,107.79-107.01-8.36-152.35-117.29-235.63-161.16,28.13,130.07,110.01,190.54,182.08,292.63,35.77,50.19,62.5,106.25,78.95,165.64,31.48,114.35,17.5,222.33-41.26,325.1,4.73,57.97,4.71,116.25-.03,174.22-18.64,264.58-128.29,514.56-310.32,707.49-32.95,34.7-62.56,60.61-98.43,91.27-5.96,20.24-8.89,31.1-26.33,45.9-24.59,20.85-60.92,26.62-86.78,42.45-206.15,126.21-463.11,191.13-704.45,164.41-62.07,107.19-174.91,142.17-290.68,95.92-23.17-9.26-58.99-29.28-71.28-50.93-5.65-9.94,6.86-25.17,18.13-23.02,12.29,1.62,23.71,8.62,35.73,12.8,65.85,22.95,145.46,13.03,183.03-51.89-59.1-6.83-105.26-18.24-161.75-33.95l-10,10.39c-25.46,22.91-70.84,34.8-103.8,41.27-93.26,18.1-189.63,11.49-279.54-19.16-87.4-29-187.28-93.06-228.94-176.97-27.03-54.46-19.87-97.52-1.2-152.24-63.82-66.46-121.54-222.22-165.65-302.36l-21.35,20.99c-26.05-71.33-54.55-148.92-82.82-219.31,15.6-9.76,32.66-21.73,48.11-32.06l-4.02-13.64c-19.02,1.38-38.02,3.02-57,4.9-9.47-49.44-27.57-118.2-40.37-167.37,26.4-12.62,52.98-24.85,79.74-36.7-27.72-4.76-61.79-10-89.55-13.11-7.51-78.41-14.32-148.6-23.37-226.77"/>
  <path class="cls-16" d="M2561.75,45.58c27.84-40.36,41.35,2.79,58.64,20.44,21.75,22.21,65.66,36.06,28.41,76.25-29.13-18.5-46.28-25.92-80.67-25.04,2.86-10.64,3.89-14,1.15-24.48-3.08,4.51-2.67,8.8-4.27,10.57-12.35,24.43-56.68,36.72-83.9,54.34-5.66-.57-4.41-2.41-7.05,3.33-22.37,18.18-36.06,27.2-56.8,48.66-8.79-8.68-20.69-15.82-33.13-10.16,8.44,3.25,32.73,7.39,24.73,23.4-11.11,22.24-36.25,37.08-56.48,49.99-34.25,21.86-68.1,46.84-96.17,76.27-21.7,22.75-44.83,55.44-33.69,88.22,8.4,25.84,37.43,30.78,56.43,46.23,15.17,12.27,27.64,25.36,42.06,38.32,71.16,63.99,162.68,219.94,275.51,144.77,5.76-3.83,13.1-16.28,18.58-18.02,2.9,1.47,3.03,1.19,4,4.66,9.89,35.99-26.37,60.49-56.32,69.61-117.7,35.83-174.94-87.57-257.5-141.59-45.32-29.65-98.37-33.06-143.56-70.71-44.15-36.8-62.06-90.3-32.66-143.13,17.18-28.95,44.62-52.29,71.42-72.93-65.06,30.7-126.89,94.46-90.54,170.69.84,2.96,1.67,6.6,3.03,9.24,4.92,6.93,8.49,14.62,13.64,21.56,19.51,26.3,43.54,48.62,68.34,69.82,14.26,12.19,28.54,20.9,43.87,31.26l4.32,1.1,1.06,2.6c1.15,2.01,19.93,57.76,21.79,63.89l1.81,5.8c12.42,21.29,30.31,64.09,47.67,81.79,2.06,2.68,2.06,2.9,3.41,6.04,23.37,31.15,41.51,54.07,67.2,83.11l3.21,4.83c18.74,22.37,60.41,76.96,72.59,102.57l2.92,6.18c22.15,39.43,38.43,81.87,48.35,125.99-25.04,24.27-53.62,31.71-88.09,31.09-19.11-.42-38.05-3.63-56.23-9.52l-4.98,4.25c47.69,15.6,111.62,18.39,150.51-18.75,6.48,40.92,11.59,80.28,6.25,121.62-.71,5.54-2.32,16.46-1.74,21.65-.15,3.13-.25,5.84-.2,8.97l-1.86-1.15c-9.63,50.78-26.16,89.44-53.27,133.44-58.87,14.67-126.37-18.8-142.32-78.98-1.28,2.12-2.86,4.4-3.7,6.66-30.94,18.19-56.94,35.19-68.07,70.72l-1.57,15.54c-42.85,7.04-82.68,15.89-102.68,59.04-23.34.67-33.83,2.26-56.22,9.1,9.11-11.92,20.32-23.43,29.8-36.22,33.38-45.12,50.96-84.5,61.1-138.95,2.68-2.3,5.32-4.64,7.94-7.01,39.18-35.62,54.36-75.72,47.93-128.09-12.13-98.74-77.79-161.6-137.41-234.93-19.82-24.54-38.07-50.28-54.69-77.08-47.61-77.39-76.4-156.64-72.43-249.17,4.58-106.79,38.33-197.46,111.34-277.15,25.55-27.88,54.88-51.2,82.79-76.34,2.06-15.05,4.45-35.32,8.6-49.28,16.28-54.67,88.61-39.02,130.88-44.79,17.32-2.36,35.12-11.32,50.85-19.4-5.44,12.92-7.47,20-11.14,33.69,4.47-6.57,7.82-13.31,12.11-19.4,16.93-24.04,40.87-36.18,66.1-49.61,8.49-20.94,14.97-29.39,33.32-42.1-1.71,7.85-2.41,12.33-3.31,20.25,1.86,2.33,1.64,2.27,4.4,3.27,3.7-13.73,5.18-18.73,16.96-27.86,29.41,2.7,58.01,8.81,87.59,11Z"/>
  <path class="cls-6" d="M2109.95,465.3c.84,2.96,1.67,6.6,3.03,9.24,4.92,6.93,8.49,14.62,13.64,21.56,19.51,26.3,43.54,48.62,68.34,69.82,14.26,12.19,28.54,20.9,43.87,31.26l4.32,1.1,1.06,2.6c1.15,2.01,19.93,57.76,21.79,63.89l1.81,5.8c12.42,21.29,30.31,64.09,47.67,81.79,2.06,2.68,2.06,2.9,3.41,6.04,23.37,31.15,41.51,54.07,67.2,83.11l3.21,4.83c18.74,22.37,60.41,76.96,72.59,102.57l2.92,6.18c22.15,39.43,38.43,81.87,48.35,125.99-25.04,24.27-53.62,31.71-88.09,31.09-19.11-.42-38.05-3.63-56.23-9.52l-4.98,4.25c47.69,15.6,111.62,18.39,150.51-18.75,6.48,40.92,11.59,80.28,6.25,121.62-.71,5.54-2.32,16.46-1.74,21.65-.15,3.13-.25,5.84-.2,8.97l-1.86-1.15c-9.63,50.78-26.16,89.44-53.27,133.44-58.87,14.67-126.37-18.8-142.32-78.98-1.28,2.12-2.86,4.4-3.7,6.66-10.2-36.43,8.59-67.59,29.2-95.72-24.39-35.2-16.71-69.86-2.89-107.21-4.89-3.47-9.47-7.37-13.71-11.64-24.37-24.4-32.19-64.28-32.35-97.49-3.48-1.77-6.91-3.68-10.23-5.74-31.67-19.45-47.06-57.66-55.33-92.1-43.38-20.39-54.91-50.05-67.23-94.18-41.53-18.59-53.89-77.41-45.19-117.85-29.68-31.97-29.91-72.32-11.81-110.05-19.31-27.87-10.42-73.89,1.93-103.07Z"/>
  <path class="cls-16" d="M2363.87,1106.88c47.69,15.6,111.62,18.39,150.51-18.75,6.48,40.92,11.59,80.28,6.25,121.62-.71,5.54-2.32,16.46-1.74,21.65-1.62.87-3.28,1.68-4.95,2.45-35.85,16.26-80.4,10.95-116.3-2.63-65.21-24.68-72.49-71.76-48.24-130.72,4.48,2.25,9.81,4.39,14.46,6.38Z"/>
  <path class="cls-16" d="M2464.81,955.08c22.15,39.43,38.43,81.87,48.35,125.99-25.04,24.27-53.62,31.71-88.09,31.09-19.11-.42-38.05-3.63-56.23-9.52-52.47-20.11-62.64-61.03-65.92-112.65,51.73,16.53,125.02,8.77,161.89-34.9Z"/>
  <path class="cls-16" d="M2350.09,1209.1c10.27,8.79,21.59,16.26,33.71,22.23,42.84,20.99,88.22,23.03,133.03,7.89-9.63,50.78-26.16,89.44-53.27,133.44-58.87,14.67-126.37-18.8-142.32-78.98-3.61-36.13,9.04-56.02,28.84-84.58Z"/>
  <path class="cls-16" d="M2389.3,846.32c18.74,22.37,60.41,76.96,72.59,102.57-18.34,22.03-33.74,32.31-62.21,38.08-86.36,17.5-140.37-6-161.41-95.32,53.92,13.54,117,1.54,151.02-45.34Z"/>
  <path class="cls-16" d="M2267.82,670.55c12.42,21.29,30.31,64.09,47.67,81.79-20.28,37.41-67.3,47.98-106.48,47.06-76.74-1.81-87.41-54.59-84.48-117.79,48.51,21.45,99.95,22.15,143.29-11.06Z"/>
  <path class="cls-16" d="M2318.9,758.38c23.37,31.15,41.51,54.07,67.2,83.11-15.15,21.15-34.11,36.74-59.58,42.69-85.19,19.92-133.02-1.08-154.6-85.27,51.88,15.28,113.46,4.73,146.99-40.53Z"/>
  <path class="cls-16" d="M2111.63,573.04c35.6,31.9,87.23,41.59,132.58,27.83,1.15,2.01,19.93,57.76,21.79,63.89-7.28,6.35-15.46,11.59-24.29,15.56-29.23,13.47-69.04,14.15-99.08,2.95-48.29-18.01-47.13-70.19-31-110.23Z"/>
  <path class="cls-16" d="M2112.98,474.53c4.92,6.93,8.49,14.62,13.64,21.56,19.51,26.3,43.54,48.62,68.34,69.82,14.26,12.19,28.54,20.9,43.87,31.26-40.62,9.68-76.69,2.64-112.47-18.86-35.56-21.37-24.68-71.32-13.38-103.78Z"/>
  <path class="cls-11" d="M2455.57,131.06l1.28.65c16.6,8.38,19.45,7.66,24.26,25.95-5.66-.57-4.41-2.41-7.05,3.33-.75-15.32-4.11-19.74-19.06-26.7l.58-3.23Z"/>
  <path class="cls-3" d="M2565,103.32c-.1-.83-1.25-20.06-1.58-19.68l.26.1.33-.1-.06.16,2.28,2.33-.39-.81c1.81,2.95,2.26,4.27,3.42,7.44-3.08,4.51-2.67,8.8-4.27,10.57Z"/>
  <path class="cls-11" d="M2452.8,59.17c1.86,2.33,1.64,2.27,4.4,3.27-.09,1.19-.52,5.9-1.09,6.82-3.15,5.11-3.31-10.09-3.31-10.09Z"/>
  <path class="cls-11" d="M2454.99,134.29c-2.47-.52-8.69-2.08-10.76-3.26l.49-.39,2.38-.24h-.77c3.84-.15,5.53.06,9.24.65l-.58,3.23Z"/>
  <path class="cls-11" d="M2407.93,136.46l-.3,1.94c-19.54,25.53-35.19,31.95-65.46,38.33-3.6,3.75,9.53,57.28-45.13,69.62-14.94,3.52-30.68.75-43.54-7.65-16.92-11.23-21.64-25.02-25.04-43.51-2.51,6.77-4.86,13.59-7.08,20.45-2.12,6.38-5.64,27.54-7.2,35.46-15.22-91.45,25.81-105.38,105.4-88.1,37.82,8.21,59.1-4.65,88.35-26.55Z"/>
  <path class="cls-12" d="M2254.72,170.03c7.17-.62,12.93-.84,20.08-.98-1.81,13.53-2.8,21.3.38,35.36,3.42,15.18,22.79,39.04,34.06,15.74,7.86-16.28,4.53-29.18-.86-45.36,5.06.36,10.13.69,15.2.98,11.59.62,9.44,7.97,10.23,18.55-2.97,19.92-10.74,33.27-29.88,41.82-35.93,16.06-74.44-15.87-65.85-53.95,1.42-6.25,11.75-10.05,16.64-12.16Z"/>
  <path class="cls-11" d="M1996.42,472.41c25.26,38.76,18.6,72.71-7.53,107.4-5.5,5.33-10.14,11.12-9.08-.37,3.13-34.08,5.69-74.45,16.61-107.03Z"/>
  <path class="cls-11" d="M1979.38,604.18c10.29,5.59,24.04,28.83,28.06,40.01,8.46,23.58,5.3,42.42-3.79,64.34-.83,1.79-2.12,6.32-4.4,6.61-2.35-1.05-10.62-30.68-11.37-34.18-5.63-25.21-8.49-50.96-8.5-76.79Z"/>
  <path class="cls-11" d="M2070.03,858.11c8.63,1.47,13.64,4.88,21.28,8.11,39.88,16.83,50.24,39.66,50.37,81.52-11.19-8.65-63.21-75.74-71.65-89.62Z"/>
  <path class="cls-11" d="M2004.89,738.4c43.04,22.7,57.04,44.75,55.74,93.12-.41,13.63-2.29,10.28-7.95-.18-6.86-10.88-13.19-21.2-19.27-32.56-10.63-19.58-20.15-39.74-28.52-60.38Z"/>
  <path class="cls-6" d="M2052.68,831.34l7.95.18c-.41,13.63-2.29,10.28-7.95-.18Z"/>
  <path class="cls-6" d="M2206.63,358.75l1.48,3.97c-10.81,10.11-20.88,27.47-26.48,41.06-11.24,27.24-3.25,53.09,17.02,73.69,3.39,3.49,7.01,6.76,10.82,9.77l-1.6,4.52c-11.17-7.14-18.73-10.45-28-21.1-34.28-39.46-6.19-83.84,26.75-111.92Z"/>
  <path class="cls-11" d="M2157.66,967.93c12.42,5.1,22.85,9.52,33.37,18.17,15.01,12.11,24.5,29.77,26.32,48.97.29,2.63,2.44,29.4-3.89,12.24-19.98-30.92-34.16-50.27-55.79-79.39Z"/>
  <path class="cls-10" d="M2217.35,1035.07c.29,2.63,2.44,29.4-3.89,12.24,4.09-4.28,2.93-6.31,3.89-12.24Z"/>
  <path class="cls-11" d="M2491.11,50.57c16.32,1.25,20.67,11.14,29.88,24.22,6.47,9.19,5.69,12.83-3.37,18.52-18.41-2.9-46.79-26.84-26.52-42.74Z"/>
  <path class="cls-11" d="M2591.98,41.01c14.22,4.21,16.92,30.24,9.57,42.19-1.78-.07-6.86-.11-8.27-.68-10.63-4.38-3.66-34.41-1.31-41.51Z"/>
  <path class="cls-11" d="M2246.14,1162.87c-1.38-23.28-6.57-47.15-12.97-69.5l5.03,6.25c16.84,21.01,18.93,37.42,12.22,62.79-2.18,5.43-4.53,11.06-4.28.47Z"/>
  <path class="cls-1" d="M2246.14,1162.87l4.28-.47c-2.18,5.43-4.53,11.06-4.28.47Z"/>
  <path class="cls-6" d="M2208.11,362.72l-1.48-3.98c11.36-12.65,20.67-13.33,1.48,3.98Z"/>
  <path class="cls-10" d="M2209.47,487.24c1.54.99,10.82,6.39,11.08,7.95-1.57,1.71-10.89-2.69-12.68-3.43l1.6-4.52Z"/>
  <path class="cls-5" d="M580.62,987.5c55.03-75.52,166.32-153.91,250.41-193.55,74.23-34.99,150.62-59.21,233.16-63.73,12.11-.66,30.78-2.51,41.73,1.25l.82,2.22c-1.48,3.97-1.89,6.59-5.36,8.89-10.65-.09-21.47.84-32.12,1.57l-3.09,5.59c13.02-1.31,24.1-1.88,37.21-2.36l-.51,2.43c-3.04,14.8-2.87,27.4-3.9,42.35-5.69,1.63-8.22,1.86-14.17,2.55,6.18.59,10.99.4,16.24,3.52,1.72,16.44,4.87,29.09,13.08,43.78-18.17,36.06-50.87,77.45-80.22,104.94,15.37,18.75,26.16,32.99,39.27,53.87-50.52,5.89-82.99,13.96-127.56,41.3,3.36-19.63,4.46-36.76,2.96-56.77-5.67-9.21-.44-16.69-6.49-20.34l-1.88,1.13c-.24,35.59-7.91,67.82-25.32,98.69-17.66-24.34-49.53-58.6-75.92-73.78l-1.98.15c-1.85.09-3.2.56-4.77,1.51-8.83-5.4-15.6-12.64-25.52-17.59l1.11-2.24c-1.54-1.61-2.27-2.39-3.64-4.14-1.2.88-2.83,1.04-4.23,1.42-3.8-1.6-1.39-.76-3.14,1.02l-5.44,2.97c-16,6.03-21.62,8.11-35.49,18.14-36.43-8.41-57.14-6.52-93.94-5.41-2.23-4.06-1.33-3.4-.33-9.26l-4.13-1.74-.08,6.79c-.11,7.73-4.88,14.14-11.31,18.01-2.85,2.53-6.76,6.58-8.27,10.1-2.63,6.32-11.97,21.36-17.33,25.31-.76,1.33-2.51,4.12-2.9,5.42-.46,4.97-1.7,13.27-6.74,15.59-6.11,7.41-32.96,16.71-44.84,23.66,5.34,2.73,3.45.78,6.21,5.7,7.99-3.49,20.77-8.85,29.31-10.07l4.44-1.73c11.69-6.35,40.4-11.87,53.9-14.09,80.81-14.09,163.8-9.06,242.33,14.67.24.08.48.15.71.23-25.79,26.93-39.82,44.35-58.03,77.92l-21.03,3.37,1.99,4.75,16.38-2.69c-7.48,15.05-12.75,28.88-17.43,44.95-1.86,6.4-4.09,18.57-8.81,22.44,5.42,5.37,5.96,11.11.94,17.48-2.07,4.35-2.62,12.97-2.92,17.89-2.79,46.29,2.76,94.47,21.73,137.06-17.51-.8-32.92-3.7-50.17-6.17-7.32-.1-8.25-1.48-13.68,2.23,8.93,5.96,26.36,11.81,36.96,15.7-33.33,10.14-68.2,14.23-102.96,12.08-126.28-7.15-230.12-101.83-217.71-232.98,7.52-79.46,34.2-135.68,93.54-187.81-3.36-2.31-7.67-2.45-7.87-4.6,1.78-3.68,3.48-7.1,6.81-9.62Z"/>
  <path class="cls-5" d="M804.16,968.75c77.48-89.65,175.23-160.94,296.88-170.5,1.72,16.44,4.87,29.09,13.08,43.78-18.17,36.06-50.87,77.45-80.22,104.94,15.37,18.75,26.16,32.99,39.27,53.87-50.52,5.89-82.99,13.96-127.56,41.3,3.36-19.63,4.46-36.76,2.96-56.77-5.67-9.21-.44-16.69-6.49-20.34l-1.88,1.13c-.24,35.59-7.91,67.82-25.32,98.69-17.66-24.34-49.53-58.6-75.92-73.78l-1.98.15c-1.85.09-3.2.56-4.77,1.51-8.83-5.4-15.6-12.64-25.52-17.59l1.11-2.24c-1.54-1.61-2.27-2.39-3.64-4.14Z"/>
  <path class="cls-9" d="M807.79,972.9c10.59,4.95,21.98,10.89,31.17,18.17l-1.98.15c-1.85.09-3.2.56-4.77,1.51-8.83-5.4-15.6-12.64-25.52-17.59l1.11-2.24Z"/>
  <path class="cls-11" d="M942.08,965.03c-1.12-8.46-.46-11.19.8-19.89,1.5,6.67,2.68,13.4,3.56,20.18.91,6.89,1.57,13.09,2.13,20.04-5.67-9.21-.44-16.69-6.49-20.34Z"/>
  <path class="cls-5" d="M940.2,966.16c-.13-3.08-.95-25.43,1.13-26.65.22.18.44.35.66.53l-.06-.28.07.03c.95,3.35.73,1.96.87,5.35-1.26,8.7-1.92,11.43-.8,19.89l-1.88,1.13Z"/>
  <path class="cls-12" d="M745.85,933.77c83.74-94.63,196.55-171.01,323.42-189.61l-3.09,5.59c13.02-1.31,24.1-1.88,37.21-2.36l-.51,2.43c-3.04,14.8-2.87,27.4-3.9,42.35-5.69,1.63-8.22,1.86-14.17,2.55,6.18.59,10.99.4,16.24,3.52-121.65,9.56-219.4,80.85-296.88,170.5-1.2.88-2.83,1.04-4.23,1.42-3.8-1.6-1.39-.76-3.14,1.02l-5.44,2.97c-16,6.03-21.62,8.11-35.49,18.14-36.43-8.41-57.14-6.52-93.94-5.41-2.23-4.06-1.33-3.4-.33-9.26l-4.13-1.74c9.22-32.66,58.12-46.04,88.39-42.14Z"/>
  <path class="cls-9" d="M745.85,933.77c83.74-94.63,196.55-171.01,323.42-189.61l-3.09,5.59c-126.2,20.08-228.89,92.78-314.31,184.79,9.46,4.92,14.12,7.8,22.92,13.86-45.49-14.51-84.29-17.62-113.19,29.24l-4.13-1.74c9.22-32.66,58.12-46.04,88.39-42.14Z"/>
  <path class="cls-9" d="M800.68,964.38c3.68-4.3,7.42-8.55,11.23-12.73,65.62-71.82,173.27-152.6,272.88-156.91,6.18.59,10.99.4,16.24,3.52-121.65,9.56-219.4,80.85-296.88,170.5-1.2.88-2.83,1.04-4.23,1.42-3.8-1.6-1.39-.76-3.14,1.02l-5.44,2.97c-3.35-10.11-5.56-12.88-11.24-21.79,6.75,3.72,13.9,8.08,20.58,11.99Z"/>
  <path class="cls-5" d="M605.94,1074.68c11.69-6.35,40.4-11.87,53.9-14.09,80.81-14.09,163.8-9.06,242.33,14.67.24.08.48.15.71.23-25.79,26.93-39.82,44.35-58.03,77.92l-21.03,3.37-1.88.24c-57.3,7.18-139.98,5.17-188.68-31.34-18.41-13.8-24.74-29.17-27.31-51.01Z"/>
  <path class="cls-12" d="M601.5,1076.41l4.44-1.73c2.57,21.85,8.91,37.22,27.31,51.01,48.7,36.51,131.38,38.52,188.68,31.34l1.88-.24,1.99,4.75,16.38-2.69c-7.48,15.05-12.75,28.88-17.43,44.95-1.86,6.4-4.09,18.57-8.81,22.44-13.22.47-32.77,3.59-47.58,4.53-45.16,2.8-90.45-2.62-133.68-15.99-33.97-10.73-110.47-45.53-97.72-97.91,3.5-14.4,22.21-24.17,35.23-30.39,7.99-3.49,20.77-8.85,29.31-10.07Z"/>
  <path class="cls-9" d="M601.5,1076.41l4.44-1.73c2.57,21.85,8.91,37.22,27.31,51.01,48.7,36.51,131.38,38.52,188.68,31.34l1.88-.24,1.99,4.75c-11.59,1.79-23.26,2.97-34.97,3.54-60.2,2.81-185.69-6.73-189.34-88.67Z"/>
  <path class="cls-9" d="M565.99,1080.77c5.34,2.73,3.45.78,6.21,5.7-13.02,6.22-31.73,15.99-35.23,30.39-12.75,52.38,63.75,87.18,97.72,97.91,43.23,13.37,88.52,18.78,133.68,15.99,14.81-.94,34.36-4.06,47.58-4.53,5.42,5.37,5.96,11.11.94,17.48.54-6.39,1.67-7.46-.59-12.46-12.99-.24-31.84,4.1-45.74,4.79-37.07,1.86-75.68-1.13-111.9-9.16-43.08-10.03-94.79-30.17-119.45-69.39-22.14-35.21-3.48-58.31,26.78-76.72Z"/>
  <path class="cls-9" d="M586.42,990.57c12.12-5.29,16.69-7.31,29.14-11.56l-6.1,4.13c-10.31,6.88-17.14,11.12-27.79,18.58-3.36-2.31-7.67-2.45-7.87-4.6,1.78-3.68,3.48-7.1,6.81-9.62,2.69,1.82,2.71,1.76,5.8,3.07Z"/>
  <path class="cls-5" d="M573.81,997.12c1.78-3.68,3.48-7.1,6.81-9.62,2.69,1.82,2.71,1.76,5.8,3.07-3.16,2.09-9.17,4.97-12.61,6.55Z"/>
  <path class="cls-9" d="M751.85,1383.66c12.06,3.5,21.77,5.73,33.68,8.83-7.32-.1-8.25-1.48-13.68,2.23-5.37-1.55-14.84-7.94-20-11.07Z"/>
  <path class="cls-9" d="M652.3,987.83c3.27-4.72,2.6-5,4.69-10.66l.47-1.26-.08,6.79c-.11,7.73-4.88,14.14-11.31,18.01,1.62-2.41,3.27-4.79,4.95-7.16.92-2.63.2-1.41-.61-3.78.22-.9,1.18-1.35,1.88-1.94Z"/>
  <path class="cls-9" d="M620.47,1036.11c4.36-9.12,10.24-18.08,17.33-25.31-2.63,6.32-11.97,21.36-17.33,25.31Z"/>
  <path class="cls-5" d="M651.03,993.55c-3.25-1.49-10.68-1.07-10.27-2.98,2.23-1.9,8.78-2.49,11.55-2.74-.7.59-1.66,1.04-1.88,1.94.81,2.37,1.53,1.15.61,3.78Z"/>
  <path class="cls-9" d="M617.57,1041.53c-.46,4.97-1.7,13.27-6.74,15.59.24-5.96,3.58-10.41,6.74-15.59Z"/>
  <path class="cls-5" d="M1505.06,400.37c7.89-5.7,15.97-11.1,24.26-16.2,35.93-21.99,80.94-36.98,122.43-25.55,9.82,2.71,9.76,1.88,14.48,9.7,2.42-.78,2.79-.87,5.28-1.19,31.89,9.61,50.12,55.58,52.37,85.87,71.69,80.47,106.35,153.24,102.38,265.12-.83,23.35-6.69,52.93-16.94,74.12-47.98,32.36-147.38,25.49-204.06,14.35-116.86-22.97-223.72-98.62-291.29-195.9-16.96-24.41-35.89-66.02-29.12-96.11,6.98-31,51.46-64.92,77.01-80.75,41.51-25.96,89.73-39.18,138.66-38,.84,3.01,1.87,3.04,4.56,4.54Z"/>
  <path class="cls-6" d="M1666.22,368.31c2.42-.78,2.79-.87,5.28-1.19,11.43,41.6,8.7,54.92-4.56,95.03,7.46,12.72,11.23,20.32,13.94,35.09l-3.19,1.52c-11.01-30.47-21.57-41.2-46.29-60.22,14.97,6.18,17.83,7.67,30.6,19.26,13.3-30.44,14.29-57.87,4.22-89.49Z"/>
  <path class="cls-11" d="M1500.5,395.83c.84,3.01,1.87,3.04,4.56,4.54-2.32,2.44-7.31,6.23-10.26,8.71l-4.08-1.57c3.71-3.96,6.5-7.33,9.78-11.68Z"/>
  <path class="cls-11" d="M1490.72,407.51l4.08,1.57-1.45,1.3c-1.06.97-4.93,5.16-6.6,4.55-.54-1.8,2.99-5.99,3.97-7.41Z"/>
  <path class="cls-11" d="M1680.88,497.25c.54,1.78,1.89,6.58-.1,7.92-2.07-.1-2.76-5.05-3.09-6.4l3.19-1.52Z"/>
  <path class="cls-5" d="M443.74,1981.43c8.03-5.18,16.67-10.55,24.53-15.89-20.26,52.76-36.59,106.87-26.65,164.34,23.69-24.21,49.07-48.22,82.23-58.57,7.58,18.41,13.95,29.45,30.23,42.03l11.41,106.8c4.63,43.3,3.84,99.46,40.54,128.95,3.21,2.63,6.57,5.05,10.07,7.27-18.67,14.3-35.93,28.46-48.38,49.18-4.05,6.73-6.22,26.4-10.94,30.38-3.01-.87-4.19-1.23-7.04-2.5,3.64,4.21,8.35,7.36,13.64,9.1.84.06,1.69.12,2.53.17-3.03-6.09-2.56-12.9.11-19.18,47.26-111.26,213.25-109.49,311.39-81.57,33.66,9.56,106.22,70.19,99.3,107.93-2.05,2.12-2.7,2.81-4.99,4.7,3.52.9,3.91.49,6.56,2.44-2.9,24.04-5.89,48.9-15.4,71.43-8.34,19.74-26.03,28.32-45.6,35.01-121.49,41.51-260.8,29.9-376.16-25.14-64.01-30.52-141.02-87.28-165.52-156.49-22.12-62.48,6.14-120.29,32.53-175.71l-8.8-.91c-5.97,5.4-12.6,12.13-18.46,17.8-1.18-4.69-2.2-9.42-3.06-14.17-3.23-18.26-3.57-34.73-5.26-52.53-4.52-47.41-4.79-89.89,24.32-130.32,6.12-8.5,26.49-32.8,36.46-34.53.78,6.63.71,8.23.26,14.96,3.28-8.14,6.66-17.02,10.17-24.98Z"/>
  <path class="cls-12" d="M565.91,2442.7c-3.03-6.09-2.56-12.9.11-19.18,47.26-111.26,213.25-109.49,311.39-81.57,33.66,9.56,106.22,70.19,99.3,107.93-2.05,2.12-2.7,2.81-4.99,4.7-91.52,60.76-273.06,39.39-371.39,1.48-10.29-3.96-21.11-9.31-31.58-12.52l-2.84-.84Z"/>
  <path class="cls-12" d="M443.74,1981.43c8.03-5.18,16.67-10.55,24.53-15.89-20.26,52.76-36.59,106.87-26.65,164.34,23.69-24.21,49.07-48.22,82.23-58.57,7.58,18.41,13.95,29.45,30.23,42.03l11.41,106.8c4.63,43.3,3.84,99.46,40.54,128.95,3.21,2.63,6.57,5.05,10.07,7.27-18.67,14.3-35.93,28.46-48.38,49.18-4.05,6.73-6.22,26.4-10.94,30.38-3.01-.87-4.19-1.23-7.04-2.5-1.59-1.8-22.57-14.81-26.58-17.41-56.96-36.76-107.48-95.07-98.43-167.28.96-10.24,6.24-24.82,5.22-34.77-7.52-73.32-13.01-134.93,3.63-207.55,3.28-8.14,6.66-17.02,10.17-24.98Z"/>
  <path class="cls-11" d="M492.7,2163.8c15.11-1.12,28.37,9.98,29.94,25.05,1.57,15.06-9.11,28.65-24.12,30.68-10.13,1.38-20.2-2.87-26.28-11.08-6.08-8.21-7.22-19.09-2.96-28.38,4.26-9.28,13.23-15.52,23.42-16.28Z"/>
  <path class="cls-11" d="M493.92,2236.23c15-2.96,29.6,6.66,32.82,21.6,3.21,14.96-6.15,29.73-21.04,33.19-9.86,2.29-20.2-.9-27.04-8.37-6.84-7.49-9.11-18.06-5.95-27.68,3.16-9.62,11.27-16.78,21.21-18.74Z"/>
  <path class="cls-11" d="M513.68,2304.61c9.61-3.03,20.1-.65,27.46,6.21,7.37,6.86,10.47,17.16,8.13,26.95-2.34,9.79-9.77,17.57-19.45,20.37-14.71,4.24-30.1-4.13-34.52-18.8-4.42-14.65,3.77-30.13,18.37-34.73Z"/>
  <path class="cls-6" d="M433.31,1991.45c.78,6.63.71,8.23.26,14.96-16.64,72.62-11.16,134.24-3.63,207.55,1.02,9.95-4.26,24.53-5.22,34.77-9.04,72.22,41.47,130.52,98.43,167.28,4.02,2.6,25,15.61,26.58,17.41,3.64,4.21,8.35,7.36,13.64,9.1.84.06,1.69.12,2.53.17l2.84.84c10.47,3.21,21.29,8.56,31.58,12.52,98.33,37.91,279.86,59.28,371.39-1.48,3.52.9,3.91.49,6.56,2.44-99.83,62-270.13,44.84-376.46,5.3-84.4-30.67-196.72-109.46-182.35-212.79,5.81-41.77,3.59-52.41-.38-94.25-4.73-49.92-3.66-117.23,14.22-163.82Z"/>
  <path class="cls-6" d="M399.32,2205.2c5.37-5.11,10.33-10.04,15.86-15-2.53,6.08-4.43,10.04-7.06,15.91l-8.8-.91Z"/>
  <path class="cls-16" d="M1994.86,1552.87c16.34,3.38,34.22,7.14,50.8,8.47-1,41.64,9.24,82.47,54.87,96.27l1.17-1.38c2.58,3.05,1.86,5.19,2.34,10.1l1.83-5.09c5.25-2.03,14.38,1.18,20.34,2.63,2.93-1.44,5.83-2.93,8.7-4.48,45.44-.13,67.1.91,107.77-23.84l2.31,4.74c18.84,22.37,37.3,118.8,40.39,150.88l.36,5.45c3.51,29.12,1.73,127.42-10.36,150.18l-.23,5.44c-5.59,30.2-22.04,68.98-35.19,97.02-4.99,10.62-11.61,21.47-16.03,32.08-2.34,2.42-3.08,3.26-5.67,5.4,2.03,16.9-66.47,92.79-81.14,108.02l-3.9,2.79c-23.28,23.94-44.93,39.26-71.98,58.39-16.93-30.39-51.82-54.23-84.37-64.25l-5.38-3.08c-13.49-5.16-26.84-7.63-39.92-13.33-6.41-1.65-3.55-11.56-6.96-17.48-9.3-16.1-28.3-5.19-34.67-26.9-2.74-9.31-21.75-14.33-30.93-17.07-1.52-11.23-2.68-14.46-9.88-23.17,148.61-66.79,195.46-206.02,148.37-357.21-4.41-15.48-12.17-31.79-19.09-46.38-9.92-21.21-26.53-44.12-40-63.45-7.01-7.79-18.41-18.64-21.57-27.93l1.09-1.71c8.76,3,18.93,17.38,24.89,24.82l1.47.46c4.28-3.64,2.21-7.56,2.52-13.74-2.38-9.5-12.36-16.05-11.62-19.16,22.85-10.04,39.47-19.19,59.7-33.48Z"/>
  <path class="cls-16" d="M2242.69,1635.55l2.31,4.74c18.84,22.37,37.3,118.8,40.39,150.88-54.47,23.23-161.78,16.36-180.01-53.89-5.59-21.54-2.93-48.73-1.33-70.94l1.83-5.09c5.25-2.03,14.38,1.18,20.34,2.63,2.93-1.44,5.83-2.93,8.7-4.48,45.44-.13,67.1.91,107.77-23.84Z"/>
  <path class="cls-6" d="M2242.69,1635.55l2.31,4.74c-35.02,25.95-77.54,25.88-118.79,23.57,2.93-1.44,5.83-2.93,8.7-4.48,45.44-.13,67.1.91,107.77-23.84Z"/>
  <path class="cls-16" d="M2145.81,1792.31c2.44,1.02,4.89,2,7.34,2.97,41.59,16.42,91,19.48,132.6,1.33,3.51,29.12,1.73,127.42-10.36,150.18-30.76,10.94-56.4,11.56-87.16-.29-77.79-29.99-68.04-90.61-42.42-154.2Z"/>
  <path class="cls-16" d="M2223.93,2081.34c-47.63,1.26-112.81-21.11-119.67-76.82-3.63-29.45,18.45-60.34,36.78-81.76,10.88,10.5,23.43,19.11,37.12,25.49,33.15,15.46,63.16,16.54,97,3.99-5.59,30.2-22.04,68.98-35.19,97.02-4.99,10.62-11.61,21.47-16.03,32.08Z"/>
  <path class="cls-16" d="M2106.41,2031.42c21.66,36.99,70.16,57.35,111.85,55.32,2.03,16.9-66.47,92.79-81.14,108.02-36.78-13.26-87.86-42.04-83.81-88.61,2.74-31.36,29.97-56.11,53.1-74.73Z"/>
  <path class="cls-16" d="M1976.86,2191.68c2.06-42.19,34.32-60.29,70.33-72.1,9.07,38.79,48.03,70.19,86.03,77.96-23.28,23.94-44.93,39.26-71.98,58.39-16.93-30.39-51.82-54.23-84.37-64.25Z"/>
  <path class="cls-6" d="M2100.53,1657.61l1.17-1.38c2.58,3.05,1.86,5.19,2.34,10.1-1.6,22.21-4.25,49.4,1.33,70.94,18.22,70.26,125.53,77.12,180.01,53.89l.36,5.45c-41.59,18.15-91,15.09-132.6-1.33-2.45-.97-4.9-1.96-7.34-2.97-25.62,63.59-35.37,124.21,42.42,154.2,30.76,11.85,56.4,11.23,87.16.29l-.23,5.44c-33.83,12.55-63.85,11.48-97-3.99-13.69-6.38-26.24-14.99-37.12-25.49-18.32,21.43-40.4,52.31-36.78,81.76,6.86,55.71,72.04,78.08,119.67,76.82-2.34,2.42-3.08,3.26-5.67,5.4-41.69,2.03-90.19-18.32-111.85-55.32-23.12,18.61-50.35,43.36-53.1,74.73-4.05,46.57,47.03,75.35,83.81,88.61l-3.9,2.79c-37.99-7.78-76.96-39.17-86.03-77.96-36.01,11.81-68.27,29.91-70.33,72.1l-5.38-3.08c2.23-44.03,38.15-62.16,75.07-74.09,3.02-41.61,27.35-62.76,57.06-88.03-16.06-42.58,7.57-76.66,33.74-108.15-29.3-41.29-12.88-85.27,2.63-128.21-48.25-31.52-49.89-80.37-39.45-132.51Z"/>
  <path class="cls-6" d="M1946.79,1605.52c1.09,3.29,5.35,17.47,2.28,19.64-2.23-.3-3.93-4.34-4.8-5.9,4.28-3.64,2.21-7.56,2.52-13.74Z"/>
  <path class="cls-11" d="M1964.05,1647.37c19.51,11.46,37.05,21.12,43.54,44.83,1.84,6.73,2.71,29.42-1.9,34.27-1.58.44-2.81-2.18-3.41-3.05-1.44-4.89-3.32-8.75-5.35-13.38l-4.22-9.72c-2.09-4.7-5.4-12.43-8.14-16.51-5.7-12.84-13.49-24.31-20.51-36.44Z"/>
  <path class="cls-11" d="M2012.04,1753.48c25.17,14.86,29.75,44.9,18.89,70.33l-.99,2.36c-.49.83-3.76,7.27-5.35,6.76,2.18,3.99-11.98-75.61-12.55-79.46Z"/>
  <path class="cls-11" d="M1884.32,2080.73c27.74-18.35,32.02-19.18,59.13-43.39-6.34,20.67-17.39,46.68-43.57,47.25-3.74.68-36.31,2.92-15.57-3.86Z"/>
  <path class="cls-6" d="M1899.89,2084.59c-3.74.68-36.31,2.92-15.57-3.86,5.9,3.79,8.53,2.35,15.57,3.86Z"/>
  <path class="cls-11" d="M2019.96,1883.4c1-6.75.38-31.26,7.91-13.2,11.05,30.38,3.54,46.07-19.82,66.99l3.06-12.93c3.68-15.32,6.73-24.37,8.85-40.87Z"/>
  <path class="cls-6" d="M2019.96,1883.4c1-6.75.38-31.26,7.91-13.2-1.45,7.44-1.76,7.91-7.91,13.2Z"/>
  <path class="cls-11" d="M1997.2,1960.71c9.46,28.65-8.25,54.4-36.5,61.84-3.16-2.89,2.95-7.8,5.77-11.01,13.61-15.42,20.34-33.85,30.73-50.83Z"/>
  <path class="cls-8" d="M32.79,1286.53c53.29,17.19,307.07,162.93,359.98,180.62,2.63,15.65,5.26,32.6,8.35,48.12-44.7,26.97-89.16,54.32-133.4,82.02,54.11,12.55,108.95,22.82,163.24,35.3,3.84,15.67,8.19,32.26,11.66,47.95-75.09,67.44-147.43,139.08-221.96,207.22-12.36,11.3-25.37,22.98-37.23,34.76-17.52-46.1-43.79-109.56-58.1-155.81l87.4-58.97c13.17-8.94,34.85-24.68,48.16-32.35-54.35,1.38-108.67,3.44-162.96,6.22-9.02-39.3-18.49-78.48-28.4-117.57,30.2-13.67,60.29-27.56,90.27-41.71,7.4-3.5,41.75-20.15,47.11-21.43l1.16-6.12c-50.75-6.44-104.99-16.87-156.05-24.56-6.2-59.6-13.72-122.47-18.87-181.98"/>
  <path class="cls-6" d="M208.07,1494.78l2.32.65c6.11,1.35-1.9,4.58-3.49,5.47l1.16-6.12Z"/>
  <path class="cls-12" d="M1165.99,1634.4c20.51,28.09,35.45,58,51.41,88.77,51.78-30.57,90.29-48.96,149.62-64.46l1.67,2.51c-52.78,18.79-92.05,40.63-138.06,71.67,56.44.86,100.45,7.53,155.65,20.46,19.06,4.47,52.66,14.83,70.32,17.79l1.7,1.03-.45,3.61-3.53.48c-12.56,10.08-20.5,37.3-20.47,52.94.06,24.33,8.69,41.07,24.88,58.01-7.24,13.35-8.25,17-9.84,32.05-57.62,13.61-68.89,51.73-67.6,104.16-26.58,42.06-39.1,81.01-49.89,128.56-93.58,10.31-170.83,49.83-215.8,135.32-87.36-19.66-154.42-48.6-230.92-93.69,16.61-19.89,23.49-26.98,23.92-53.15l1.49-.46,2.47-.8c17.14-5.41,23.91-11.34,37.74-16.44,18.16-6.67,35.59-7.62,54.63-17.73,19.92-10.58,37.3-24.76,49.84-43.8,4.47-6.47,11.81-23.5,18.34-27.39,63.42-37.73,141.82-72.43,166.39-149.79,5.85-18.51,7.33-38.13,4.32-57.32-3.26-20.01-12.27-36.76-19.57-55.53-16.82-43.3-34.53-84.81-55.88-126.15-1.18-4.47-2.27-6.11-2.4-10.65Z"/>
  <path class="cls-13" d="M1456.6,1771.13l1.7,1.03-.45,3.61-3.53.48,2.28-5.12Z"/>
  <path class="cls-14" d="M1023.8,1363.65c-5.31-17.51-8.15-35.67-8.43-53.97-.3-14.28,2.24-55.83,8.01-67.84,20.04-41.74,72.01-104.8,103.97-137.78,49.4-49.27,105.86-106.74,180.44-107.31,89.28-.68,169.08,71.88,172.51,161.61.75,19.93-9.1,32.29-22.4,45.51-22.25-51.26-63.38-112.91-110.81-144.65-9.07-6.06-33.06-11.66-43.83-9.26l-.97,2.26c5.22,4.02,28.29,4.38,36.17,8.77,42.38,24.48,78.85,75.49,101.71,118.4,24.84,46.63,34.44,105.04-22.05,132.33-.54,3.57-.99,8.79-2.32,11.9-8.82,22.02-19.9,35.02-42.3,44.78-4.74,2.12-9.63,3.9-14.62,5.37-17.13-58.97-47.63-109.91-87.53-156.19-5.26-6.1-16.15-18.96-22.25-23.22l-3.01.84c.86,4.9,17.74,21.65,21.99,26.8,36.15,44.16,69.21,93.36,83.3,149.53,9.57,38.17-28.9,44.19-56.08,50.14-45.85,10.01-121.16-12.87-81.82-72.94,8.05,3.61,26.75,9.05,29.82,10.81.58,1.55,1.11,2.76,1.77,4.27,4.33,5.06,14.39,17.22,20.93,18.18-2.94-6.31-10.66-15.46-15.09-21.44-8.5-11.43-9.53-24.81-16.13-38.76l-1.5-.42c0,14.8,1.24,17.38,5.83,31.21-54.57-17.23-30.22-32.95-47.07-46.93l-2.01.88c-1.56,15.84,9.01,29.58,19.86,39.82-33.1,20.37-65.8,25.27-103.41,17.95l-3.52,4.85c-11.1,9.02-33.66,15.6-47.23,19.28-12.09-7.37-21.44-15.35-31.91-24.75Z"/>
  <path class="cls-6" d="M1415.79,1323.63c-12.36-63.75-60.36-138.65-108.05-183.05-14.42-13.42-37.41-11.35-43.99-18.47l1.41-1.99c14.89-1.31,36.27,8.53,47.92,17.89,36.66,29.48,100.83,130.02,105.03,173.72-.54,3.57-.99,8.79-2.32,11.9Z"/>
  <path class="cls-6" d="M1102.94,1369.12c-21.33-8.63-42.82-17.89-57.54-39.49-.52-.77-.48-2.73,0-3.77,4.41-.7,7.43,4.71,11.09,8.52,17.22,17.86,28.64,21.49,49.98,29.9l-3.52,4.85Z"/>
  <path class="cls-6" d="M1243.28,1359.53c.58,1.55,1.11,2.76,1.77,4.27-2.73,2.83-20.24,25.72-19.2,15.03.47-4.77,13.32-16.39,17.43-19.29Z"/>
  <path class="cls-8" d="M1240.23,106.34c3.72-.55,7.16-1.43,10.49.94,13.64,9.74,26.47,20.97,39.34,31.74,28.67,24.42,57.59,48.53,86.77,72.32l-56.49,228.52c-15.83,13.98-25.62,24.23-38.99,40.58-13.78-2.84-27.85-5.89-40.68.44-15.67,7.73-49.63,11.59-68.61,15l-100.13,18c-6.38,1.29-7.84,1.72-14.22,1.53-4.55-5.56-7.87-13.14-11.26-19.54-39.28-74.22-76.96-149.47-116.8-223.38,25.69-40.53,69.23-100.61,97.98-139.96l212.61-26.2Z"/>
  <path class="cls-11" d="M1183.44,222.71l17.53-1.46c-.45,36.35-.08,72.44.07,108.78.13,34.05-1,68.59.08,102.59l-51.03,5.64-5.4-23.15c-14.57-61.19-27.99-123.26-42.83-184.23,27.18-2.87,54.37-5.59,81.58-8.17Z"/>
  <path class="cls-8" d="M767.58,217.7c43.52,13.77,87.11,27.3,130.77,40.59l-28.47,120.42c35.45,6.27,71,11.59,106.49,17.94-8.28,46.54-14.95,98.49-22.34,145.77-75.17,40.7-150.01,82.01-224.51,123.92l-11.8,6.44c-75.04-95.59-149.41-191.69-223.11-288.31l178.32-108.33c30.1-18.38,66.02-38.85,94.66-58.44Z"/>
  <path class="cls-11" d="M815.13,467.59c11.99-1.79,10.2-.29,15.92,10.43,3.91,7.32,7.69,14.77,11.75,22.01-13.02,18.93-25.71,38.92-38.76,58.11-4.5-5.88-8.89-11.84-13.19-17.87-14.89-21.68-31.83-43.93-47.06-65.58,23.8-2.11,47.59-4.47,71.34-7.09Z"/>
  <path class="cls-11" d="M669.04,361.12c27.9.13,55.76-.61,83.64-.39,5.06,10.02,10.3,19.25,15.49,29.08-8.32,10.93-15.63,22.74-23.83,33.85-5.13,6.79-10.94,14.61-15.52,21.74l-1.48,2.2c-19.09-27.52-40.11-58.4-58.3-86.48Z"/>
  <path class="cls-8" d="M442.93,558.39c5.08,3.48,30.85,37.74,36.57,44.82l141.42,175.83c-58.73,71.08-95.21,126.96-138.19,208.46l-111.94-47.92-230.45-98.11c47.6-74.19,95.51-159.31,141.9-235.53l160.69-47.54Z"/>
  <path class="cls-11" d="M362.17,701.95c5.16,1.07,120.56,98.53,135.71,110.97l-25.44,41.99-31.15-19.61-154.71-94.75,75.59-38.6Z"/>
  <path class="cls-14" d="M1526.67,1284.48c-17.74-39.51-19.57-65.33-4.93-107.15,23.82-68.07,112.46-102.12,177.74-76.9,29.44,11.37,53.66,32.74,76.13,53.96,49.44,43.71,92.73,95.92,118.93,156.93,9.07,21.11,20.83,50.12,10.26,72.17-23.1,48.18-72.88,71.72-122.79,50.25l-1.83-.8c9.79-6.53,31.57-27.35,25.49-39.5-9.37,7.2-10.87,39.07-50.33,39.43l-2-1.25c3.7-7.83,13.52-24.37,13.77-31.52-7.36,4.67-16.28,24.18-22.27,31.31-6.27,7.44-13.87,13.23-19.03,21.49l.9.74-.28-1.31,2.2.38-1.33-1.47,2.31.91c7.25-4.41,10.21-7.38,16.32-13.04,11.2-.16,14.36-.57,25.34-2.84-.45,16.67-1.12,35.54-14.84,47.54-28.48,24.91-90.55,11.46-115.81-12.94-19.73-19.06,12.74-64.5,21.28-85.37l-2.58-5.72c-14.22,23.73-26.98,50.91-32.6,78.11-4.58-1.12-9.05-2.63-13.36-4.5-56.22-23.98-51.43-59.28-28.2-107.01,23.15-47.63,52.36-99.68,97.05-130.49,10.62-7.32,22.01-5.83,33.08-9.99l.77-2.02-1.97-1.06c-9.11-.22-31.94,4.68-38.62,9.92-53.27,41.89-100.33,123.93-113.75,188.31-4.12-2.06-8.11-4.38-11.94-6.95-19.15-12.68-37.1-35.37-33.37-59.39,6.82-44.04,33.51-84.76,59.44-119.9l-4.58-2.48c-14.74,16.65-35.25,51.43-44.6,72.14Z"/>
  <path class="cls-6" d="M1571.27,1212.34c17.23-24.81,41.16-48.12,64.57-67.17,15.15-12.33,27.03-11.62,45.73-12.39,3.1-.13,8.94,1.69,3.93,5.1-9.63,1.77-22.21-.1-32.22,3.61-26.81,12.13-60.42,51.31-77.43,73.33l-4.58-2.48Z"/>
  <path class="cls-6" d="M1659.33,1379.78c18.63-32.24,41.65-61.71,68.39-87.61.7-.67,15.16-16.97,14.57-6.69-.1,1.83-16.49,15.18-18.57,18.32-26.82,26.36-41.53,52.24-61.8,81.7l-2.58-5.72Z"/>
  <path class="cls-6" d="M1022.98,1028.54c22.67-7.35,74.24-12.36,97.21-6.02l5.18.38c14.63.08,38.67,8.58,52.39,14.09-8.97,9.09-18.11,16.18-27.22,24.87l1.21,1.05c-3.22.54-4.68.33-7.1,1.94-4.58,10.75-26.26,18.99-36.62,22.3-89.44,28.52-157.48,115.6-137.4,212.96,8.85,41.9,34.18,78.46,70.28,101.48,51.29,33.24,109.47,39.1,166.92,20.47,18.37,13,32.71,15.68,55.08,15.77-12.3,20.18-21.69,34.21-39.51,49.73-2.87,1.58-2.71,1.41-4.36,4.24-28.32,20.57-48.78,36.57-84.46,44.23-3.5,1.89-3.22,1.9-7.16,1.55-24.92,10-67.4,6.95-93.4,3.24,7.89-10.31,10.82-15.03,16.16-26.87l-5.93-3.18c-5.41,12.68-8.85,17.93-18.19,27.97-35.03-10.85-56.8-18.54-86.89-41.24-2.7-3.1-2.44-2.96-6.37-4.16-33.57-26.91-47.54-42.26-69.23-80.11-.67-2.07-1.49-2.65-2.93-4.54-7.74-22.57-18.1-40.39-21.65-65.44-1.97-13.93-3.77-27.61-5.66-41.46l-.49-4.96c1.96-23.83.25-40.38,5.64-65.29,1.12-6.12,2.56-12.17,4.33-18.13,3-9.74,6.42-19.16,9.41-28.82,3.49-4.48,1.32-3.19,6.43-4.46-2.8-1.15-3.48-1.77-2.05-4.75,12.42-25.87,28.38-50.04,47.6-71.37,5.56-6.17,12.07-13.78,18.6-18.88,1.66-2.02,2.07-2.02,4.25-3.58,24.17-25.13,59.35-37.19,89.51-51.28l6.39-1.7Z"/>
  <path class="cls-16" d="M1037.97,1050.77c24.15,14.21,51.05,17.41,75.04.75,10.59,6.82,19.78,11.95,31.63,16.13-4.58,10.75-26.26,18.99-36.62,22.3-89.44,28.52-157.48,115.6-137.4,212.96,8.85,41.9,34.18,78.46,70.28,101.48,51.29,33.24,109.47,39.1,166.92,20.47,18.37,13,32.71,15.68,55.08,15.77-12.3,20.18-21.69,34.21-39.51,49.73-28.59-35.99-66.9-13.68-94.9,8.86-25.81-18.45-48.38-20.02-77.94-12.3-16.38-32.54-43.45-35.85-75.59-41.26-12.16-36.18-34.31-50.17-67.31-66.57,9.25-36.17-8.25-63.7-29.76-90.8,30.85-30.09,25.61-63.15,18.03-101.67,40.01-21.16,48.85-47.39,55.11-90.47,42.04,6.15,67.35-8.8,86.91-45.37Z"/>
  <path class="cls-16" d="M905.89,1384.16c17.71,9.55,32.49,17.25,46.53,32.26,29.91,31.96,18.04,62.48-19.61,79.7-33.57-26.91-47.54-42.26-69.23-80.11,22.74-9.94,27.37-10.71,42.3-31.86Z"/>
  <path class="cls-16" d="M976.42,1451.75c33.95,2.35,80.44,19.08,67.85,61.82-5.41,12.68-8.85,17.93-18.19,27.97-35.03-10.85-56.8-18.54-86.89-41.24,20.84-13.11,30.4-20.53,36.51-45.65l.72-2.89Z"/>
  <path class="cls-16" d="M833.35,1304.58c17.53-1.51,24.78-4.6,40.34-13.23,19.94,24.71,43.1,62.92,23.8,94.44-7.29,11.92-23.55,22.04-36.84,25.69-7.74-22.57-18.1-40.39-21.65-65.44-1.97-13.93-3.77-27.61-5.66-41.46Z"/>
  <path class="cls-16" d="M852.24,1187.37c17.2,1.96,20.93,1.47,37.97.09,11.03,57.52,11.01,100.63-57.35,112.15,1.96-23.83.25-40.38,5.64-65.29,1.12-6.12,2.56-12.17,4.33-18.13,3-9.74,6.42-19.16,9.41-28.82Z"/>
  <path class="cls-16" d="M1051.77,1488.04c36.15-5.06,94.23-3.47,75.66,49.54-24.92,10-67.4,6.95-93.4,3.24,7.89-10.31,10.82-15.03,16.16-26.87,3.39-15.68,1.83-11.94,1.58-25.91Z"/>
  <path class="cls-16" d="M858.68,1182.91c-2.8-1.15-3.48-1.77-2.05-4.75,12.42-25.87,28.38-50.04,47.6-71.37,5.56-6.17,12.07-13.78,18.6-18.88,8.83,4.05,13.48,5.13,22.8,7.85-10.34,52.94-23.37,91.63-86.95,87.15Z"/>
  <path class="cls-16" d="M1016.59,1033.04c5.74,5.75,10.26,9.54,16.38,14.65-23.04,47.99-59.27,50.69-105.89,36.64,24.17-25.13,59.35-37.19,89.51-51.28Z"/>
  <path class="cls-16" d="M1131.77,1501.14c24.26-21.04,63.97-44.3,87.28-9.34-28.32,20.57-48.78,36.57-84.46,44.23,3.53-12.77,4.34-19.99-1.68-32.39l-1.13-2.5Z"/>
  <path class="cls-16" d="M1022.98,1031.34c22.67-7.35,74.24-12.36,97.21-6.02-11.59,49.57-68.1,34.3-96.18,7l-1.03-.98Z"/>
  <path class="cls-16" d="M1125.37,1025.7c14.63.08,38.67,8.58,52.39,14.09-8.97,9.09-18.11,16.18-27.22,24.87-11.75-5.67-22.06-10.38-33.63-16.64,6.49-10.88,5.99-8.46,8.46-22.32Z"/>
  <path class="cls-12" d="M574.83,1887.87c-16.02-23.36-35.96-61.13-48.01-86.77-66.93-142.78-93.92-301.02-78.1-457.91,2-20.88,6.94-69.65,14-89.32,19.27,79.93,60.04,135.25,135.79,170.96-19.35,44.64-30.22,86.17-12.84,132.83-19.53,31-31.89,66.27-5.63,98,63.33,76.5,169.2,63.69,253.32,43.97-.97,3.53-1.84,7.08-2.58,10.66-7.31,35.89,8.25,59.73,27.3,88.45,3.98-26.53,8.41-44.38,17.74-69.32l2.81,5.45c-9.42,51.54-1.42,112.49,25.92,157.62l-3.62.71c-34.3-41.35-55.61-85.84-78.14-133.76-26.07,3.77-61.34,16.84-75.12,40.69-44.83,4.83-77.07,24.33-89.56,69.52-34.67-12.07-56.2-4.5-83.28,18.19Z"/>
  <path class="cls-6" d="M1838.04,1106.64c1.48-.08,3.37-.35,4.66-.01,30.26-1.1,74.63,9.25,100.78,25.16l4.79,2.02c.58.48,1.16.96,1.74,1.43,29.7,17.63,58.83,42.02,78.31,71.02.52.77,2.68,4.01,3.25,4.55,29.28,44.7,31.89,64.38,41.58,113.89l.29,4.45c-.45,7.15.04,15.09,0,22.07-.16,20.5-7.94,74.58-21.35,90.28-.77,2.65-.51,2.36-1.84,4.74,2.23,9.56-26.88,48.38-33.82,57.06-9.94,12.42-22.91,21.93-34.09,32.6-3.67,2.15-4.06,1.96-6.41,5.38h-1.19c-7.79,4.5-14.77,9.02-22.75,13.32-8.63,4.69-17.55,8.85-26.68,12.48-9.36,3.73-43.93,14.03-52.7,10.91l-5.8,1.09c-21.09,4.31-83.39-6.3-100.26-20.11l-3.71-2.76c-16.9.81-54.9-33.27-66.27-45.31,35.21,2.81,65.14,1.96,83.97-33.09,26.94,2.44,45.36,2.05,71.32-7.56,38.07-13.83,69.01-42.32,85.93-79.09,43.2-95.74-27.91-189.2-114.37-227.38-5.43-2.21-7.04-2.71-11.81-5.89l-8.18-.67-.87-1.51c-10.27-5.7-27.69-23.37-37.25-31.76,23.34-10.29,47.15-16.42,72.77-17.31Z"/>
  <path class="cls-16" d="M1851.75,1143.43c24.53,18.54,50.63,16.8,77.61,5.63,15.45,35.19,33.6,62.19,76.05,65.45-9.75,40.7-8.37,73.1,26.64,102.07-22.96,28.93-41.84,58.22-26.3,96.31-26.23,12.46-52.23,27.62-62.76,56.67-1.31,3.63-2.48,7.3-3.53,11.01-34.8,2.86-68.39,7.94-87.57,40.77-34.43-6.67-78.24-8.33-89.07,34.88-16.9.81-54.9-33.27-66.27-45.31,35.21,2.81,65.14,1.96,83.97-33.09,26.94,2.44,45.36,2.05,71.32-7.56,38.07-13.83,69.01-42.32,85.93-79.09,43.2-95.74-27.91-189.2-114.37-227.38-5.43-2.21-7.04-2.71-11.81-5.89,2.71-.6,4.93-1.03,7.65-1.48,12.29-3.86,21.01-7,32.53-12.98Z"/>
  <path class="cls-16" d="M1811.58,1157.89c2.71-.6,4.93-1.03,7.65-1.48l4.16,7.37c-5.43-2.21-7.04-2.71-11.81-5.89Z"/>
  <path class="cls-16" d="M1872.6,1577.98c-7.47-14.49-15.25-20.56-16.25-39.21-2.19-40.21,52.76-51.85,83.45-52.88,5.37,22.98,10.87,32.55,29.62,49.24,3.54,3.16,3.87,2.02,5.31,6.17-7.79,4.48-14.77,9.01-22.75,13.3-8.63,4.69-17.55,8.85-26.68,12.48-9.36,3.73-43.93,14.03-52.7,10.91Z"/>
  <path class="cls-16" d="M2009.17,1417.85c11.72,14.8,22.59,23.2,41.07,28.39,2.23,9.56-26.88,48.38-33.82,57.06-9.94,12.42-22.91,21.93-34.09,32.6-9.92-1.07-27.69-23.6-31.31-32.24-18.32-43.62,24.87-70.49,58.15-85.81Z"/>
  <path class="cls-16" d="M2036.96,1319.72c14.81,5.76,20.19,7.54,36.47,9.43-.45,7.15.04,15.09,0,22.07-.16,20.5-7.94,74.58-21.35,90.28-65.12-24.65-53.47-77.61-15.12-121.77Z"/>
  <path class="cls-16" d="M2011.61,1214.34c6.85-1.19,13.2-1.89,19.96-3.53,29.28,44.7,31.89,64.38,41.58,113.89-1.67-.44-4-1.16-5.69-1.36-30.57-3.76-53.27-23.82-59.44-54.09-4.34-21.24-1.13-33.83,3.34-53.75l.25-1.16Z"/>
  <path class="cls-16" d="M1766.54,1558.96c17.86-40.62,45.9-40.24,84.78-32.16l-.15,2.47c-1.49,22.33,3.03,31.5,15.62,49.8-21.09,4.31-83.39-6.3-100.26-20.11Z"/>
  <path class="cls-16" d="M1948.27,1133.8c.58.48,1.16.96,1.74,1.43,29.7,17.63,58.83,42.02,78.31,71.02-53.58,10.53-72.74-16.57-94.37-59.32,5.06-4.06,9.84-8.45,14.32-13.14Z"/>
  <path class="cls-16" d="M1842.7,1106.62c30.26-1.1,74.63,9.25,100.78,25.16-6.37,5.56-10.1,8.51-17.7,12.45-29.61,15.35-80.07,8.79-82.75-31.88l-.33-5.73Z"/>
  <path class="cls-16" d="M1765.27,1123.95c23.34-10.29,47.15-16.42,72.77-17.31-1.47,19.4,1.6,19.24,9.24,32.72-16.96,8.06-27.69,10.46-44.75,16.35-10.27-5.7-27.69-23.37-37.25-31.76Z"/>
  <path class="cls-12" d="M1746.37,1580.3c8.21,2.5,21.85,8.52,31.44,11.58,37.89,12.06,65.27,12.65,103.92,10.11,42.36,42.97,73.48,87.93,91.48,146.02,40.95,132.23-3,255.7-130.52,314.75l-15.36,6.62c-7.92-6.7-10.18-7.56-19.28-11.85-9.11-45.52-.64-75.36-53.27-95.78,17.87-12.04,34.66-25.08,41.93-46.67,3.67-8.79,8.81-23.44,15.32-30.06,53.3-54.17,57.35-110.28,14.01-172.87-19.98-28.85-37.46-41.35-66.41-63.79-18.93-14.93-38.53-28.99-58.73-42.14,13.48-8.53,31.29-17.97,45.48-25.91Z"/>
  <path class="cls-14" d="M1209.79,907.71c-47.26-12.71-76.39-43.49-90.77-89.97-15.69-50.73,5.02-144.93,76.39-99.05,31.62,20.33,52.35,52.2,60.56,88.6,2.77,1.76,3.38,2.67,6.7,2.29,19.9,21.92,36.13,39.19,58.36,58.8-18.15,40.81,6.33,82.65,45.07,98.76,24.39,10.15,45.29,9.21,69.81.9l17.9,14.78c12.93-8.7,27.97-18.34,39.43-28.62,13.69,4.34,27.72,9.02,41.59,12.6.33,11.6,2.22,18.9,5.05,30.1-10.14-6.13-15.04-8.92-26.72-12.56l-4.45,2.51c26.98,13,54.17,41,24.15,67.29l2.07,2.9c18.69-10.95,19.93-24.19,16.28-43.55,36.67,38.78,86.36,39.41,103.92-16.63,12.21-2.7,27.98-4.95,40.56-7.12-13.58,23.6-52.59,83.14-75.35,89.72-42.94,12.4-74.04,26.4-100.36,66.01-4.99,7.5-8.25,21.6-19.34,21.64-6.28-4.33-4.71-14.13-6.18-22.26-2.05-13.02-4.09-27.4-8.62-39.8-28.04-76.79-106.45-128.31-188.13-122.83-22,1.48-37.63,7.19-57.95,14.77-18.3-28.94-26.49-55.48-29.98-89.3Z"/>
  <path class="cls-6" d="M1255.97,807.29c2.77,1.76,3.38,2.67,6.7,2.29-.71,7.09-.38,12.39-2.13,19.37l-.45,2.33c-1.49-8.01-2.69-15.97-4.12-24Z"/>
  <path class="cls-3" d="M1534.94,1057.05c-6.24,4.34-15.67,6.31-2.07-2.9l2.07,2.9Z"/>
  <path class="cls-3" d="M1504.74,982.47c2.83.66,5.59,1.33,8.43,1.88l-4.45,2.51-8.97-2.06,4.99-2.34Z"/>
  <path class="cls-3" d="M1499.75,984.8c-11.62-1.68-.51-3.33,4.99-2.34l-4.99,2.34Z"/>
  <path class="cls-11" d="M1189.48,794.26c-16.75-33.47-18.47-33.59-47.47-53.76,24.38,6.3,42.81,13.72,56.32,37.78,11.15,19.85,22.75,57.55,11.72,79.6.04.38-2.47,2.76-2.73,1.36-2.7-14.76-3.88-38.55-20.93-44.88-14.45-5.36-20.13,6.85-24.1,17.24l-4.67,1.56c.26-25.85,7.98-34.15,31.87-38.9Z"/>
  <path class="cls-10" d="M1157.62,833.16l4.67-1.56c-.27,1.6-1.44,11.02-2.29,11.65-.09-.1-.17-.19-.26-.29-.36-.86-.73-1.73-1.09-2.59l.11.7c-.76-3.03-.9-4.87-1.14-7.92Z"/>
  <path class="cls-8" d="M1351.02,106.5c53.44,5.18,113.29,13.88,167.25,20.4,10.66,47.89,20.9,95.87,30.74,143.93,26.11-38.42,57.56-81.16,85.08-118.58,51.94,17.19,108.59,36.33,160.78,51.84l-35.47,31.83c-39.71,33.06-79.05,71.01-118.83,102.87-49.69-3.17-89.03,10.5-129.22,38.89-17.31.77-34.59,1.71-51.86,2.82,2.03-11.51,4.19-23,6.48-34.46-37.62-75.38-80.72-162.8-114.97-239.53Z"/>
  <path class="cls-5" d="M1350.84,2191.25c48.93,43.27,106.31,63.31,169.42,76.45,16.28,3.39,37.09,4.48,52.31,9.39,16.97,5.92,30.64,20.61,45.36,29.77,113.34,70.56,336.58,61.13,439.03-21.35,1.32,21.44,3.95,52.11-2.93,72.59-6.14,18.25-19.18,23.98-35.05,31.13-27.9,12.66-54.85,23.98-84.97,30.71-106.44,23.81-251.53,20.16-345.11-38.1-17.44-26.93-22.91-61.44-26.2-92.7-5.35,18.29-7.27,44.38-8.25,63.47-51.59-14.26-103.74-26.14-154.49-43.45-63.53-21.66-59.71-64.63-49.12-117.91Z"/>
  <path class="cls-8" d="M1910.36,258.37c6.85-.08,96.97,70.99,109.33,80.81-24.21,35.56-38.94,68.12-53.31,108.02-17.52-47.21-13.11-44.22-52.72-73.59l-36.2,33.76c22.33,40.96,47.99,80.95,70.32,121.99-3.45,30.81-5.9,57.27-4.63,88.29-4.74,3.67-90.9,23.06-103.99,26.16-6.48-42.19-14.42-64.7-31.76-102.45l22.94-22.06c-31.06-56-61.73-112.21-91.99-168.65,9.05-18.33,18.44-41.17,26.84-60.16l145.17-32.13Z"/>
  <path class="cls-8" d="M103.91,926.2c83.12,30.45,166.81,59.3,251.04,86.53l16.8-62.35,105.72,58.69c-12.94,29.14-25.04,61.68-36.77,91.53l-23.69,62.77c-114.52-27.98-230.65-61.83-344.84-88.47,11.1-42.34,23.09-105.08,31.75-148.7Z"/>
  <path class="cls-12" d="M1845.35,707c171.81,105.11,283.33,277.07,330.47,470.73l-2.9,3.65c-22.88-57.95-65.35-89.96-119.54-116.22-8.28-17.9-20.7-33.57-36.24-45.71-30.06-23.27-60.03-27.92-96.81-23.3-32.44-37.84-70.45-70.52-112.71-96.94,22.4-32.4,54.07-78.07,25.59-114.66,9.23-28.65,11.45-47.42,12.13-77.56Z"/>
  <path class="cls-5" d="M1312.89,634.4c1.48,1.08,3.83,5.55,3.68,6.65,11.17,13.77,22.92,27.06,35.21,39.84,5.7,5.81,20.96,19.98,25.01,24.98,2.23,2.17,3.02,1.92,5.27,3.66,14.67,13.06,51.11,42.36,67.79,49.72,3.48,3.86,4.08.95,5.66,3.68,13.29,9.75,54.34,30.63,70.71,35.58,1.8,1.47,2.54,1.98,4.48,3.25,27.3,5.29,50.66,16,83.04,21.18-2.96,53.82-22.07,91.86-55.52,133.63-32.19-7.78-55.19-13.97-86.16-27.06-2.16-1.69-2.63-1.49-5.5-1.54-9.94-5.25-22.66-10.02-33.13-15.35-15.41-7.83-30.09-15.98-45.15-24.46-4,.17-.84-1.41-4.73-4.32-14.2-6.38-58.39-42.12-70.56-52.02-5.35.1.07-4.25-6.03-5.28-15.49-13.4-34.1-29.09-46.69-45.04-6.71-8.5-10.41-19.99-18.16-29.93-1.77-5.27,1.39-4.69-3.41-7.76,2.89-6.42,5.46-12.9,8.34-19.35,9.46-21.49,21.92-41.52,37.02-59.5,5.66-6.65,27.87-27.19,28.85-30.58Z"/>
  <path class="cls-5" d="M1312.89,634.4c1.48,1.08,3.83,5.55,3.68,6.65,11.17,13.77,22.92,27.06,35.21,39.84,5.7,5.81,20.96,19.98,25.01,24.98-27.36,25.74-43.96,56.49-58.75,90.78-3.53,8.2-7.51,23.11-11.08,29.91-15.49-13.4-34.1-29.09-46.69-45.04-6.71-8.5-10.41-19.99-18.16-29.93-1.77-5.27,1.39-4.69-3.41-7.76,2.89-6.42,5.46-12.9,8.34-19.35,9.46-21.49,21.92-41.52,37.02-59.5,5.66-6.65,27.87-27.19,28.85-30.58Z"/>
  <path class="cls-6" d="M1312.89,634.4c1.48,1.08,3.83,5.55,3.68,6.65-41.58,30.9-55.2,65.56-74.48,110.53-1.77-5.27,1.39-4.69-3.41-7.76,2.89-6.42,5.46-12.9,8.34-19.35,9.46-21.49,21.92-41.52,37.02-59.5,5.66-6.65,27.87-27.19,28.85-30.58Z"/>
  <path class="cls-5" d="M1376.8,705.88c2.23,2.17,3.02,1.92,5.27,3.66,14.67,13.06,51.11,42.36,67.79,49.72-20.02,26.21-63.95,91.75-66.3,124.61-14.2-6.38-58.39-42.12-70.56-52.02-5.35.1.07-4.25-6.03-5.28,3.57-6.79,7.56-21.71,11.08-29.91,14.8-34.29,31.39-65.04,58.75-90.78Z"/>
  <path class="cls-6" d="M1376.8,705.88c2.23,2.17,3.02,1.92,5.27,3.66-9.79,2.9-38.28,46.14-43.78,56.52l-1.33,2.55c-3.54,6.58-6.96,13.84-9.98,20.68-2.63,5.82-4.99,11.74-7.12,17.75-2.07,5.71-7.91,19.19-6.85,24.8-5.35.1.07-4.25-6.03-5.28,3.57-6.79,7.56-21.71,11.08-29.91,14.8-34.29,31.39-65.04,58.75-90.78Z"/>
  <path class="cls-5" d="M1530.71,801.77c27.3,5.29,50.66,16,83.04,21.18-2.96,53.82-22.07,91.86-55.52,133.63-32.19-7.78-55.19-13.97-86.16-27.06,27.71-34.12,53.04-83.59,58.64-127.76Z"/>
  <path class="cls-6" d="M1449.86,759.26c3.48,3.86,4.08.95,5.66,3.68-17.45,13.09-70.2,105.5-67.23,125.24-4,.17-.84-1.41-4.73-4.32,2.35-32.86,46.28-98.39,66.3-124.61Z"/>
  <path class="cls-6" d="M1526.22,798.52c1.8,1.47,2.54,1.98,4.48,3.25-5.6,44.16-30.93,93.64-58.64,127.76-2.16-1.69-2.63-1.49-5.5-1.54,11.74-14.07,22.01-29.3,30.67-45.45,2.87-5.24,5.56-10.59,8.02-16.03,10.89-23.98,15.13-41.5,20.66-66.7l.3-1.29Z"/>
  <path class="cls-6" d="M1213.1,2217.78c8.27-3.99,15.88-9.4,24.41-13.51,33.44-16.1,64.85-23.05,101.69-25.61-2.58,9.62-8.27,36.36-11.61,44l.13,5.54c-3.64,31.79,5.99,53.73,27.17,76.74-21.33-.48-36.75-.51-57.84,4.66-39.2,9.6-73.27,34.45-73.84,78.8-.35,27.43,13.64,50.72,22.21,76.08,43.4,119.64-49.72,228.5-171.74,227.75-16.95-.1-39.07-1.49-55.22-7.46-6.92-.68-16.51-3.73-23.21-5.8,1.43-1.19,2.52-2.12,4.05-3.21,11.44,1.07,20.68,1.52,32.03,1.8,31.05-2.67,66.13-9.11,91.02-29.44l3.63-2.64c17.53-10.27,23.83-23.07,37.06-35.53.91-1.36,1.49-3.29,2.12-4.92,9.72-17.23,9.41-24.55,12.09-43.33l.37-5.12c.43-17.32-3.8-31.23-8.46-47.48l-1.43-4.27c-9.62-19.41-22.93-37.79-30.88-57.16l-2.11-5.57c-4.7-13.11-17.14-67.78-10.29-78.11l-.67-3.35,3.35-1.36c-13.82-1.31,11.71-61.28,17.35-67.72l1.41-1.65c.71-4.09-.27-2.65,2.01-5.4,25.02-32.28,29.03-37.05,60.18-63.18q2.68-1.67,5.01-3.57Z"/>
  <path class="cls-16" d="M1327.73,2228.21c-3.64,31.79,5.99,53.73,27.17,76.74-21.33-.48-36.75-.51-57.84,4.66-39.2,9.6-73.27,34.45-73.84,78.8-.35,27.43,13.64,50.72,22.21,76.08,43.4,119.64-49.72,228.5-171.74,227.75-16.95-.1-39.07-1.49-55.22-7.46-6.92-.68-16.51-3.73-23.21-5.8,1.43-1.19,2.52-2.12,4.05-3.21,11.44,1.07,20.68,1.52,32.03,1.8,31.05-2.67,66.13-9.11,91.02-29.44,16.91,14.62,40.43,16,58.37,2.18,14.06-10.84,13.56-17.21,17.93-31.89,28.01-16.1,32.24-34.41,25.85-64.46l2.33-5.22c20.49-45.68-15.81-45.45-14.59-76.16,1.61-40.46-25.74-36.36-32.66-53.27-1.17-2.84,2.38-19.08,1.65-24.36-1.85-13.35-10.39-26.93-17.06-38.37,17.91-17.86,19.32-37.17,20.15-61.06,1.85-.64,3.69-1.29,5.53-1.97,26.44-9.84,34.86-28.27,45.76-52.01,31.82,7.31,60.86-4.47,92.09-13.33Z"/>
  <path class="cls-16" d="M999.33,2675.77c11.44,1.07,20.68,1.52,32.03,1.8.97.15,9.67,1.12,9.88,1.32-1.35,3.67-13.08,2.19-15.39,2.15l-1.5-.04c-3.86-.06-3.86.64-5.87,3.79-6.92-.68-16.51-3.73-23.21-5.8,1.43-1.19,2.52-2.12,4.05-3.21Z"/>
  <path class="cls-6" d="M1111.66,2662.89c-14.15,18.03-23.65,18.61-44.93,20.05-1.12-.2-5.53-.68-6.2-1.84-.1-.19-.11-.41-.03-.59.52-1.23,4.01-1.78,4.94-2.02,17.61-4.66,29.22-8.73,46.21-15.6Z"/>
  <path class="cls-10" d="M1066.73,2682.94c-1.12-.2-5.53-.68-6.2-1.84-.1-.19-.11-.41-.03-.59.52-1.23,4.01-1.78,4.94-2.02.6,1.71.85,2.68,1.29,4.45Z"/>
  <path class="cls-16" d="M1213.1,2217.78c8.27-3.99,15.88-9.4,24.41-13.51,33.44-16.1,64.85-23.05,101.69-25.61-2.58,9.62-8.27,36.36-11.61,44-21.73,6.51-46.37,13.69-68.92,16.05-19.29,2-32.27-8.39-45.58-20.93Z"/>
  <path class="cls-11" d="M1316.9,2186.66c2.03-.2,10.37-1.44,11.66.3.06.49-14.42,23.23-15.99,25.46-18.96,6.43-42.19,12.36-62.29,10.91-9.63-2.89-10.24-3.66-19.32-8.14,23.76-14.65,58.33-24.63,85.93-28.54Z"/>
  <path class="cls-16" d="M1158.7,2359.38c24.33,35.56,29.07,76.25-23.94,82.73-4.7-13.11-17.14-67.78-10.29-78.11,16.56.93,18.56.65,34.23-4.63Z"/>
  <path class="cls-16" d="M1175.77,2426.65l6.77,5.02c40.39,30.19,29.43,60.6-15.73,74.12-9.62-19.41-22.93-37.79-30.88-57.16,3.38-.67,6.76-1.38,10.12-2.13,15.91-3.6,20.19-8.33,29.72-19.85Z"/>
  <path class="cls-16" d="M1208.09,2221.35c9.56,9.23,11.96,10.56,22.76,17.58-8.65,20.18-18.93,39.84-40.32,48.87-10.36,4.37-34.85,5.43-42.62-3.28,25.02-32.28,29.03-37.05,60.18-63.18Z"/>
  <path class="cls-16" d="M1168.24,2510.05c19.4-4.15,25.9-7.98,39.19-22.07,30.96,35.38,24.36,81.37-30.73,69.55.43-17.32-3.8-31.23-8.46-47.48Z"/>
  <path class="cls-16" d="M1145.91,2289.92c10.87,6.73,21.16,6.35,32.8,6.6-2.29,37.57-7.21,64.27-51.56,62.77-13.82-1.31,11.71-61.28,17.35-67.72l1.41-1.65Z"/>
  <path class="cls-16" d="M1176.34,2562.65c14.28,3.47,25.48,4.16,38.36-3.24,4.28-2.45,5.37,2.8,5.82,6.28,2.75,20.99-8.07,46.95-31.67,49.02-9.63.87-17.11-3.22-24.6-8.73,9.72-17.23,9.41-24.55,12.09-43.33Z"/>
  <path class="cls-16" d="M1162.13,2610.9c5.92,4.11,9.36,5.82,15.85,8.3,3.82,1.47,14.39-.97,13.55,2.97-7.17,33.64-41.31,42.01-66.46,24.26,17.53-10.27,23.83-23.07,37.06-35.53Z"/>
  <path class="cls-8" d="M64.41,1114.78l209.35,49.16c44.47,10.35,91.03,20.38,135.04,31.92-10.42,38.14-19.9,76.54-28.43,115.16-8.14,1.39-307.36-58.06-343.3-64.13,9.48-43.55,18.3-88.38,27.33-132.11Z"/>
  <path class="cls-12" d="M1414.01,1358.28c9.04,32.57,24.59,68.92,39.69,98.97-46.58,30.26-82.36,42.94-136.77,50.44,2.44,1.54,3.47,2.1,6.08,3.35,52.41-6.25,100.29-20.14,144.54-50.18l16.22,24.85c-29.38,17.97-47.77,26.85-80.09,39.75l3.25,3.02c35.4-11.17,51.56-17.93,85.06-35.17,8.37,11.82,12.95,17.89,25.01,26.52-105.31,107.02-256.61,98.29-383.83,38.13,17.06-3.99,36.67-10.63,52.05-19.05,36.65,9.05,68.59,12.62,105.96,5.45-4.57-2.86-6.8-2.31-12.1-3.73-26.01-1.45-51.84-5.25-77.18-11.33,37.52-20.93,63.89-52.69,81.05-91.66,38.14-3.05,72.47-8.05,83.43-50.93,22.31-7.41,30.1-12.75,47.64-28.43Z"/>
  <path class="cls-4" d="M1323.01,1511.05c-5.88,1.89-55.85,1.93-56.97-1.1l.08-.15c-3.38,1.38,51.33-2.12,50.8-2.1,2.44,1.54,3.47,2.1,6.08,3.35Z"/>
  <path class="cls-6" d="M1279.06,1540.64c3.36-.06,19.75-.67,21.53.64l.1.22c-1.15,1.96-7.37,2.54-9.53,2.87-4.57-2.86-6.8-2.31-12.1-3.73Z"/>
  <path class="cls-2" d="M1402.04,1529.59c-1.73.36-8.05,1.99-9.46,1.09-.03-.17-.07-.36-.12-.54.91-1.48,5.59-2.64,7.2-3.18l2.38,2.63Z"/>
  <path class="cls-6" d="M1399.66,1526.96c1.33-.51,2.67-1,4-1.49l3.25,3.02c-1.68.32-3.21.7-4.87,1.1l-2.38-2.63Z"/>
  <path class="cls-12" d="M1895.92,2195.39c54-7.79,123.79,14.49,152.56,64.08,3.21,5.51,5.14,14.87,6.62,21.24-56.78,44.03-123.7,57.68-193.11,66.24-56.36,4.28-103.47,2.73-158.85-11.14,19.4-98.66,101.28-130.42,192.79-140.42Z"/>
  <path class="cls-12" d="M1167.21,564.66l5.42-.52c1.02,3-14.9,27.13-18.14,33.72-14.86,30.23-5.66,56.81,4.83,86.52-18.21,2.08-29.07,5.08-41.27,19.16-1.48-.16-2.95-.3-4.43-.43-158.84-14.35-344.61,74.47-464.08,173.9l-17.35,14.43c128.72-174.73,320.81-292.04,535.03-326.77Z"/>
  <path class="cls-12" d="M1403.51,2041.86c3.45,7.75,6.22,18.7,9.69,26.97,16.35,39.58,54.01,67.36,97.26,68.59,25.01.71,51.46,24.55,71.83,39.17l80.46,57.72c18.61,13.32,39.01,29.39,60.06,37.69-14.77,21.22-20.69,37.41-24.49,62.67-30.15-9.08-57.54-18.93-84.37-36.08-9.75-6.22-22.78-21.14-33.69-24.62-21.31-6.79-46.15-9.11-68.74-13.78-60.34-12.93-112.1-33.42-158.78-74.52l6.09-29.49c22.95,18.16,47.32,34.44,72.88,48.69,14.59,8.11,72.38,37.17,83.66,33.95l-.26-2.38c-5.76-4-44.75-17.52-56.06-23.15-38.08-18.96-65.66-37.15-99.17-62.87,9.82-40.88,20.85-72.81,43.62-108.54Z"/>
  <path class="cls-12" d="M1793.2,923.52c42.4,27.86,78.27,58.2,110.43,97.85,1,2.86.23,3.8-.45,6.73,21.11-5.22,38.42-8.9,60.06-3.57,29.83,7.34,53.31,26.85,65.56,55.04-10.65-.87-17.08-1.42-27.67-.85l1.39.5c10.43,3.67,22.52,5.54,32.35,9.45,21.05,8.39,64.57,25.53,66.86,51.26-7.02,23.82-10.36,24.34-28.33,38.3-12.26,6.03-19.6,7.31-32.82,10.13-16.45-20.78-28.33-31.69-48.08-48.47.52-.28,1.04-.57,1.58-.85l2.42-1.35c31.89-17.54,11.23-41.48-13.68-52.21,2.55,2.88,5.48,6.37,8.09,9.1-23.69-10.42-23.86-8.98-48.12-11.46-6.37-1.67-14.16.03-22.73-1.72l-.78-2.94c-20.28,1.58-39.43,6.4-57.99,8-24.72,2.12-38.07.43-64.22,5.59,7.11-7.11,17.25-15.54,25-22.33-1.49-1.6-3.79-3.27-5.54-4.68-23.72,14.77-41.23,32.46-65.09,47.93-16.23-13.11-22.52-15.95-40.61-24.98,8.25-8.82,16.74-17.43,25.43-25.81-11.81-20.37-20.8-35.81-28.84-58.36,3.53-8.29,6.35-14.7,10.42-22.79,5.89-1.15,13.96-3.08,19.69-3.88,7.6,2.89,12.66,5.36,19.96,8.49,1,.64,1.38.97,1.85,1.19.48.23.37.25,1.94,1.21,3.84,2.49,9.15,6.24,13.26,7.81,3.5.63,8.08,1.63,11.5,1.92-10.45-7.98-27-16.53-38.63-22.45,20.03-9.43,30.04-28.99,37.07-32.17l-.17-.72c-.41-1.49-.39-1.88.55-3.11.77-5.11,5.35-10.96,8.34-15.83Z"/>
  <path class="cls-5" d="M1715.47,978.22c6.43-1.75,14.44-3.51,20.55-4.05,8.14,2.53,13.11,5.32,20.84,8.86q4.45,2.07,3.95,2.51c3.81,2.03,9.11,5.23,13.84,8.16l1.54.89c27.51,22.13,38.88,26.27,62.63,57.87-5.86,3.87-14.9,9.43-20.31,13.47-24.77,15.42-43.05,33.9-67.97,50.04-16.95-13.69-23.51-16.65-42.4-26.08,8.62-9.21,17.48-18.2,26.55-26.95-12.33-21.27-21.72-37.39-30.11-60.93,3.68-8.66,6.63-15.35,10.88-23.79Z"/>
  <path class="cls-5" d="M1821.32,1069.95c30.79-23.85,44.68-26.43,83.26-20.97,17.08,2.42,40.9,7.05,48.86,24.91l-.81,3.39c-6.93,2.06-24.55,1.98-33.14,1.74-20.31,3.51-39.38,8.05-58.56,8.29-25.11,2.76-37.8,1.37-64.86,5.79,7.32-8.31,16.79-16.43,25.24-23.14Z"/>
  <path class="cls-11" d="M1774.54,995.86c3.59,0,8,.65,11.5,1.92,21.11,14.94,37.83,30.33,53.94,50.8,9.08-4.07,20.01-9.49,29.58-11.46l1.26.7-4.13,3.86c26.56,8.45,82.33-8.66,91.22,35.95,7.6,1.79,18.32,3.9,24.92,7.86,3.42,2.35,7.03,5.52,8.09,9.1-23.69-10.42-23.86-8.98-48.12-11.46-7.13-.98-14.36.36-22.93-1.39l-.59-3.28c8.4-.68,25.95.31,32.82-1.68l.8-3.27c-7.88-17.24-31.47-21.71-48.38-24.04-38.2-5.27-51.95-2.78-82.44,20.24-2.98-.11-4.69-2.74-5.54-4.68,5.18-3.87,13.84-9.2,19.45-12.9-22.75-30.26-33.99-34.18-60.34-55.37l-1.12-.91Z"/>
  <path class="cls-5" d="M1792.21,922.47c43.72,28.84,80.7,60.25,113.87,101.29-11.1,3.55-6.13,3.64-13.78-3.84-28.68-28.11-70.44-67.86-108.69-81.06.79-5.29,5.52-11.35,8.6-16.38Z"/>
  <path class="cls-11" d="M1903.18,1028.1c-2.8.65-10.21,2.99-12.53,3.05l1.99-.46c-21.53-26.24-46.96-49.03-75.38-67.57-9.4-6.09-24.92-14.23-32.77-19.93l-.27-.7c-.41-1.49-.37-1.94.64-3.13,37.1,12.77,77.6,51.17,105.41,78.31,7.41,7.24,2.6,7.15,13.36,3.71,2.03,2.26,1.37,4.13-.45,6.73Z"/>
  <path class="cls-16" d="M2255.04,1372.6c10.69-32.25,34.14-51.17,63.83-66.43,24.4,54.75,79.59,81.94,138.18,74.65-29.58,37.75-55.14,61.93-94.98,89.07-4.31,1-3.21.42-6.93,2.51l-.41,1.1c-21.09,22.7-110.57,52.82-142.24,62.34-31.48-16.36-58.74-38.21-62.99-75.66-2.06-2.55-1.28-6.67-1.35-10.88-3.53-1.19-4.87.17-9.33,1.6-25.02,3.34-20.9,1.52-46.02,8.59l-3.79-4.76c22.38-6.83,32.87-8.43,56.22-9.1,20.01-43.16,59.83-52.01,102.68-59.04l1.57-15.54,5.56,1.54Z"/>
  <path class="cls-16" d="M2255.04,1372.6c10.69-32.25,34.14-51.17,63.83-66.43,24.4,54.75,79.59,81.94,138.18,74.65-29.58,37.75-55.14,61.93-94.98,89.07-29.54-4.53-53.79-8.63-77.38-28.42-22.66-18.99-32.38-39.17-29.65-68.88Z"/>
  <path class="cls-6" d="M2247.91,1386.6l1.57-15.54,5.56,1.54c-2.73,29.71,6.99,49.89,29.65,68.88,23.59,19.79,47.84,23.89,77.38,28.42-4.31,1-3.21.42-6.93,2.51l-.41,1.1c-50.76-.68-92.54-32.24-106.53-80.83-41.51,5.92-91.7,18.32-98.71,67.52-2.06-2.55-1.28-6.67-1.35-10.88-3.53-1.19-4.87.17-9.33,1.6-25.02,3.34-20.9,1.52-46.02,8.59l-3.79-4.76c22.38-6.83,32.87-8.43,56.22-9.1,20.01-43.16,59.83-52.01,102.68-59.04Z"/>
  <path class="cls-5" d="M624.19,1437.91c30.77,21.4,49.8,31.67,85.89,42.22-.89,22.09-2.89,33.63-8.73,54.91l6.67-1.45c9.06-17.05,15.11-30.86,21.18-49.12,50,13.27,103.03,5.34,150.48-13.16,28.31,35.09,61.95,55.32,101.89,74.03l-5.55,14.67c-30.06-5.15-68.21-5.59-97.64.99-76.79,17.18-146.95,45.32-225.9,17.09-66.77-23.88-48.16-89.97-28.3-140.17Z"/>
  <path class="cls-9" d="M701.35,1535.04l6.67-1.45c-4.67,8.31-6.07,10.07-11.25,17.41l-.9,1.28c1.86-5.86,3.36-11.4,5.48-17.23Z"/>
  <path class="cls-12" d="M1568.89,2105.25c-90.52-89.68,145.26-154.46,195.95-110.85,9.2,7.91,16.39,56.2,16.55,67.88l6.62,6.8c7.6,2.5,16.03,5.54,21.08,12.01.91,4.67,1.33,2.61-.99,6.44-16.86,1.28-40.42,1.19-56.3,3.15-36.2,4.48-128.03,24.75-148.66,54.84l-.7,5.4c-26.75,2.95-36.65-20.34-15.29-38.43,2.42-1.1,4.57-2.89,6.79-4.47-8.59-2.22-16.22-2.26-25.05-2.77Z"/>
  <path class="cls-5" d="M1593.94,2108.02c3.47-3.61,11.17-8.34,15.51-10.92,43.43-25.91,122.19-46.93,171.94-34.82l6.62,6.8c7.6,2.5,16.03,5.54,21.08,12.01.91,4.67,1.33,2.61-.99,6.44-16.86,1.28-40.42,1.19-56.3,3.15-36.2,4.48-128.03,24.75-148.66,54.84l-.7,5.4c-26.75,2.95-36.65-20.34-15.29-38.43,2.42-1.1,4.57-2.89,6.79-4.47Z"/>
  <path class="cls-6" d="M1593.94,2108.02c3.47-3.61,11.17-8.34,15.51-10.92,43.43-25.91,122.19-46.93,171.94-34.82l6.62,6.8c-63.86-11.88-136.59,5.03-190.7,42.78-19.67,13.72-25.81,35.64,5.83,33.66l-.7,5.4c-26.75,2.95-36.65-20.34-15.29-38.43,2.42-1.1,4.57-2.89,6.79-4.47Z"/>
  <path class="cls-15" d="M2353.19,419.39c6.18,1.82,12.84,4.18,18.73,5.86,22.88,11.92,36.17,28.94,53.07,47.85,3.66,4.08,10.29,10.11,11.63,15.04l-2.81,1.79c-12.66,2.25-11.91-2.99-22.43,3.99,13.33,5.6,30.38,6.38,43.71-.64,49.83-26.25,80.89-64.49,142.35-42.12,60.44,21.99,33.21,85.96,79.98,110.71,25.24,13.36,54.74-13.74,86.59.88,8.82,5.48,13.71,11.08,20.5,18.94-6.35-2.97-13.67-6.62-20.09-9.15-16.77-3.93-24.79-6.22-39.94,1.98l-1.22,1.7c8.63,4.95,17.35,6.88,25.58,12.56,17.28,11.92,20.47,33.52,12.84,52.26-1.65,4.97-3.95,8.93-6.25,13.57-.3-14.22-.58-17.49-2.39-31.51-3.57-4.65-5.15-9.95-10.2-15.81-25.74-29.86-52.1-7.16-84.05-23.92-34.02-17.84-24.87-53.06-48.15-76.29-43.26-43.15-80.33,21-120.18,33.32-25.81,8.33-37.97,6.69-63.67,6.13-4.29-7.5-7.18-16.24-15.91-18.02-5,1.18-6.54,3.95-9.97,7.9-26.62-16.22-40.98-41.64-62.42-63.32-15.16-15.32-34.64-28.76-52.43-41.1,38.65-15.93,67.68,1.61,93.54,29.08-4.9-12.92-7.21-18.52-14.55-30.11-2.61-1.64-9.52-9.1-11.84-11.59Z"/>
  <path class="cls-6" d="M2393.01,482.15c19.69,4.28,20.03,4.82,40.79,7.78-12.66,2.25-11.91-2.99-22.43,3.99-6.05-2.39-12.93-7.86-18.37-11.78Z"/>
  <path class="cls-7" d="M2753.03,623.11l1.54,1.96c6.38,7.93.58,11.06,7.11,15.98-1.65,4.97-3.95,8.93-6.25,13.57-.3-14.22-.58-17.49-2.39-31.51Z"/>
  <path class="cls-7" d="M2353.19,419.39c6.18,1.82,12.84,4.18,18.73,5.86-5.38,1.68-6.12.06-6.89,5.73-2.61-1.64-9.52-9.1-11.84-11.59Z"/>
  <path class="cls-12" d="M737.97,1829.2l1.09.28c2.38,3.06.41,46.25,1.99,55.93,21.45,130.91,142,225.18,275.38,178.02-30.49,25.63-56.22,29.67-94.68,31.94-9.52.93-25.44.75-35.46.97,11.19,3.38,22.42,6.6,33.7,9.65-15.44,5.64-25.46,8.83-41.48,12.94-45.34-38.34-95.05-64.06-151.17-82.55-30.98-41.64-61.77-120.11-37.08-172.16,9.25-19.5,27.98-28.87,47.7-35.02Z"/>
  <path class="cls-12" d="M646.84,2042.88c77.13-7.56,167.03,40.98,223.31,90.38,27.06,23.75-10.13,49.69-27.71,64.73-2.52-.36-24.44-17.12-29.01-20.25-43.59-29.9-99.99-45.7-152.18-50.67-24.03-2.29-30.51-8.28-51.95-14.2,5.09-32.21-.02-60.86,37.55-69.98Z"/>
  <path class="cls-5" d="M1771.18,823.32c-2.63,30.5-11.63,57.85-25.27,85.06-1.84,3.64-3.74,7.25-5.7,10.83-7.2,13.25-19.35,33.06-28.61,44.75-26.52,2.67-39.21,4.53-67.28,3.36-2.32-.02-4.32.02-6.63.11-25.3-.65-49.37-5.31-74.12-9.81,33.82-45.51,52.43-74.27,55.85-133.64,25.69,3.58,40.79,3.86,64.93,6.21l5.57.24c27.8-.35,53.87-2.31,81.25-7.11Z"/>
  <path class="cls-5" d="M1771.18,823.32c-2.63,30.5-11.63,57.85-25.27,85.06-1.84,3.64-3.74,7.25-5.7,10.83-7.2,13.25-19.35,33.06-28.61,44.75-26.52,2.67-39.21,4.53-67.28,3.36,17.67-23.52,36.3-56.76,41.46-86.15l1.16-6.53c2.86-16.16,3.15-27.91,2.99-44.22,27.8-.35,53.87-2.31,81.25-7.11Z"/>
  <path class="cls-6" d="M1684.35,830.2l5.57.24c.16,16.32-.13,28.07-2.99,44.22l-1.16,6.53c-5.16,29.39-23.79,62.63-41.46,86.15-2.32-.02-4.32.02-6.63.11,33.18-40.06,46.93-85.98,46.67-137.24Z"/>
  <path class="cls-5" d="M1181.9,688.64c-8.13-15.77-22.43-58.27-13.04-75.16,21.42-38.52,46.61-78.28,73.09-113.49,4.77-6.34,23.34-4.57,30.33-4.06-7.29,22.92-5.68,39.75.37,62.59,5.03,1.14,1.89,5.45,2.04,10.22,10.44,21.52,21.33,48.42,38.2,65.67-.97,3.38-23.18,23.93-28.85,30.58-15.1,17.98-27.56,38.01-37.02,59.5-2.88,6.45-5.45,12.93-8.34,19.35-2.13-1.86-14.39-14.39-16.6-16.66-7.11-7.33-31.26-24.66-35.75-31.76-1.13-4.47,0-6.89-4.45-6.77Z"/>
  <path class="cls-5" d="M1181.9,688.64c-8.13-15.77-22.43-58.27-13.04-75.16,21.42-38.52,46.61-78.28,73.09-113.49,4.77-6.34,23.34-4.57,30.33-4.06-7.29,22.92-5.68,39.75.37,62.59,5.03,1.14,1.89,5.45,2.04,10.22-7.29,7.54-17.3,14.44-24.79,22.23-16.11,16.79-30.42,36.79-42.19,56.82-7.6,12.93-19.1,33.13-21.37,47.61-1.13-4.47,0-6.89-4.45-6.77Z"/>
  <path class="cls-6" d="M1272.65,558.52c5.03,1.14,1.89,5.45,2.04,10.22-7.29,7.54-17.3,14.44-24.79,22.23-16.11,16.79-30.42,36.79-42.19,56.82-7.6,12.93-19.1,33.13-21.37,47.61-1.13-4.47,0-6.89-4.45-6.77,3.16-6.3,5.39-13.31,8.41-19.67,19.29-40.63,46.66-77.01,82.32-104.62,1.37-1.06.29-4.66.02-5.82Z"/>
  <path class="cls-5" d="M2101.74,1139.94c.97-3.98.2-7.44,4.47-8.16,5.61,6.02,11.72,12.35,16.71,18.86,66.23,86.47,34.72,203.79-34.93,277.82-1.92,2.77-8.3,9.5-10.84,12.35,2.7-7.37,4.8-14.8,7.02-22.31,23.18-79.12,5.89-158.05-39.95-225.1,10.47-2.38,15.41-3.99,25.52-7.76l3.67-7.39c17.97-13.97,21.31-14.48,28.33-38.3Z"/>
  <path class="cls-9" d="M2101.74,1139.94c.97-3.98.2-7.44,4.47-8.16-1.23,27.56-11.5,41.96-36.47,53.85l3.09-7.1c17.97-13.97,21.89-14.77,28.91-38.59Z"/>
  <path class="cls-16" d="M2051.44,1561.99c54.65,4.82,94.14,4.93,149.03-5.5,8.27,12.35,41.85,67.11,42.22,79.05-40.68,24.75-62.34,23.7-107.77,23.84-62.92-10.53-84.04-31.55-83.47-97.39Z"/>
  <path class="cls-5" d="M1467.42,1284.66c2.32,2.26,12.06,25.55,16.89,31.93,5.83,7.73,7.53,9.52,14.64,16.64,1.73,27.43,7.02,38.98,25.29,59.15,15.09,83.59,102.1,145.68,172.07,184.71l-24.08,16.09-13.59,9.17c-76.6-53.87-157.33-144.45-193.27-231.56-8.09-19.64-13.06-38.53-17.92-59.03,10.17-9.56,13.39-15.31,19.98-27.08Z"/>
  <path class="cls-5" d="M634.7,2268.44c8.61,2.03,75.48-1.71,83.09.99,38.06,1.32,74.39,4.92,111.26,15.31,11.12,3.13,50.12,14.46,31.87,32.05l-.07,2.68-3.33,2.54c-5.79-1.81-8.85-2.35-14.27-4.85-.49-.36-2.61-1-3.28-1.23-1.64,5.66-.92,6.6-4.52,10.1-40.38-3.96-78.77-6.27-119.32-1.97-7.7.81-55.26,10.88-57.52,10.07l-.37-.48-4.62-2.47c3.34-7.7,4.97-14.12,7.22-22.12-15.72.45-32.67,3.79-48.97,4.83-11.95-6.35-26.3-17.58-13.87-32.57,9.31-11.21,23.18-11.84,36.69-12.87Z"/>
  <path class="cls-12" d="M665.94,2308.29c70.3-4.29,105.86-2.18,174.04,7.63-1.64,5.66-.92,6.6-4.52,10.1-40.38-3.96-78.77-6.27-119.32-1.97-7.7.81-55.26,10.88-57.52,10.07l-.37-.48c4.29-10.72,5.74-14.06,7.69-25.34Z"/>
  <path class="cls-6" d="M634.7,2268.44c8.61,2.03,75.48-1.71,83.09.99-21.96.38-143.71-5.67-112.14,34.92,6.1,7.85,45.06-.54,54.62-1.12,66.05-5.69,136.64-4.93,200.66,13.55l-.07,2.68-3.33,2.54c-5.79-1.81-8.85-2.35-14.27-4.85-.49-.36-2.61-1-3.28-1.23-68.18-9.81-103.74-11.92-174.04-7.63-1.95,11.29-3.4,14.62-7.69,25.34l-4.62-2.47c3.34-7.7,4.97-14.12,7.22-22.12-15.72.45-32.67,3.79-48.97,4.83-11.95-6.35-26.3-17.58-13.87-32.57,9.31-11.21,23.18-11.84,36.69-12.87Z"/>
  <path class="cls-5" d="M1120.59,857.37c17.73,25.91,27.49,34.1,54.06,50.31,4.4,10.24-.02,43.12-.79,55.47-.63,10.19,2.43,24.2-4.31,31.11l-2.09,18c-28.23-6.89-51.19-10.82-80.33-11.55-11.47-20.72-21.27-34.11-35.38-52.71,25.23-27.51,50.86-57.8,68.84-90.62Z"/>
  <path class="cls-9" d="M1174.64,907.68c4.4,10.24-.02,43.12-.79,55.47-.63,10.19,2.43,24.2-4.31,31.11,1.81-17.29,3.03-34.63,3.65-52.01.38-10.11-.6-25.73,1.45-34.57Z"/>
  <path class="cls-12" d="M1460.97,1945.81c3.96,3.22,6.92,10.69,9.47,15.71-3.54,1.58-13,5.57-15.48,8.07-20.9,20.95-2.31,56.9,14.09,74.47,18.44,19.77,40.18,27.9,66.44,28.87,5.77,16.64,8.43,20.77,19.09,34.92-14.22,6.88-22.38,12.74-31.22,25.85-24.31-1.57-41.48-3.89-62.8-17.16-25.47-16.18-43.46-41.84-49.99-71.29-10.39-45.9-2.89-89.9,50.4-99.43Z"/>
  <path class="cls-12" d="M624,1892.09c16.42-1.12,26.04,3.13,40.77,9.13.22,5.95.82,12.37,1.25,18.34-36.3-4.21-57.71,11.84-77.88,39.84-30.62,42.46-31.17,89.6,14.54,121.32-1.68,10.23-3.61,19.74-5.73,29.88-13.45-.26-26.89-.81-40.31-1.64-52.59-47.13-45.08-119.42,2.08-167.08,14.16-14.3,46.16-45.44,65.29-49.79Z"/>
  <path class="cls-16" d="M2138.82,1450.91s5.02.87,5.02,1.83c-.07,34.59,15.6,54.16,45.34,76.37,9.08,6.06,18.28,8.23,2.61,10.58-9.08,1.62-20.64,2.94-30.02,4.08-20.15,2.39-40.45,3.48-60.74,3.24-9.2-.1-24.95-1.16-33.45-.57-2.2-1.31-2.28-1.15-5.09-1.93-11.61,1.13-37.66-4.32-49.93-6.64,15.36-15.22,23.59-25.92,36.98-42.03,2.28-4.02,2.31-4.06,5.64-7.17,5.41-4.24,3.06-4.83,10.18-6.14,13.04-12.87,5.79-11.48,27.45-23.02,25.11-7.07,20.99-5.25,46.02-8.59Z"/>
  <path class="cls-16" d="M2049.53,1495.83c2,3.97,1.83,4.27,2.42,8.62-.73,15.93,2.03,26.66,10.53,40.05-11.61,1.13-37.66-4.32-49.93-6.64,15.36-15.22,23.59-25.92,36.98-42.03Z"/>
  <path class="cls-6" d="M2055.17,1488.66c5.41-4.24,3.06-4.83,10.18-6.14-15.26,32.68-5.51,34.89,2.22,63.9-2.2-1.31-2.28-1.15-5.09-1.93-8.5-13.39-11.26-24.13-10.53-40.05-.59-4.35-.42-4.64-2.42-8.62,2.28-4.02,2.31-4.06,5.64-7.17Z"/>
  <path class="cls-16" d="M2049.53,1495.83c2.28-4.02,2.31-4.06,5.64-7.17-.73,5.34-1.83,10.58-3.22,15.78-.59-4.35-.42-4.64-2.42-8.62Z"/>
  <path class="cls-16" d="M2189.17,1529.11c9.08,6.06,18.28,8.23,2.61,10.58-1.77-.16-8.21-.03-9.24-1.04-.01-.06,5.6-7.6,6.63-9.53Z"/>
  <path class="cls-12" d="M550.99,1931.19c2.3-.26.97-.32,3.92.74-3.14,7.5-17.5,24.13-23.7,36.83-17.46,35.8-21.81,59.06-9.54,96.88-28.16,10.36-48.46,27.53-70.79,46.6-.57.54-3.7,2.95-4.39,3.48l-1.46-1.97c-5.2-52.44,10.53-105.25,31.13-152.79,26.84-15.48,44.21-24.55,74.83-29.77Z"/>
  <path class="cls-12" d="M1482.06,1902.22c1.76.84,1.65.64,2.97,1.76,59.36,50.11,153.89,67.17,227.4,38.69-1.55,6.83-2.77,14.46-4.03,21.41l-25.74,2.65c-35.76,5.9-77.95,16.28-108.7,35.96-43.1-9.49-119.21-44.25-91.9-100.48Z"/>
  <path class="cls-12" d="M559.79,2114.62c33.24.57,42.22.13,73.06,11.34-11.55.88-38.56,1.35-45.82,10.6-17.89,22.79,3.51,27.19,13.58,35.75-5.38,5.98-18.36,19.76-13.33,28.75,11.04,19.74,41.99,7.89,58.92,13.71-5.23,3.25-11.23,2.48-17.43,4.35-14.25.39-38.07,3.45-36.39,23.53.5,5.9,3.49,11.3,8.22,14.86,7.9,6.04,16.53,5.31,25.81,4.5,8.94-.3,17.69-.74,26.63-.3l-.3,1.54c-10.17,5.79-14.43,3.34-18.05,5.19-13.51,1.03-27.38,1.65-36.69,12.87-12.42,14.99,1.93,26.21,13.87,32.57,16.3-1.04,33.25-4.38,48.97-4.83-2.24,8.01-3.87,14.42-7.22,22.12-7.02,10.72-19.5,14.28-31.99,21.7-3.85-2.34-8.48-5.08-11.98-7.94-11.85-9.79-20.84-22.59-26.02-37.07-6.75-19.22-9.04-54.62-11.4-76.02-4.39-39.05-8.55-78.14-12.46-117.23Z"/>
  <path class="cls-12" d="M1532.48,2134.7c12.1-14.19,35.37-29.83,54.68-22.21-21.35,18.09-11.46,41.37,15.29,38.43l1.04-.7c14.74-9.72,13.48-12.42,31.86-20.5-7.99,10.46-21.49,16.18-20.5,29.97.45,5.61,3.15,10.81,7.47,14.42,4.05,3.35,9.3,4.89,14.51,4.22,14.36-1.89,27.62-19.47,34.79-15.51-1.19,4.9-.12,2.52-5.45,6.53,2.71.33,4.53.9,7.18,1.6-5.66,4.54-11.27,7.98-11.27,15.09,0,17.09,16.86,18.47,27.96,9.63,4.7-3.76,18.71-10,23.41-12.08-1.83,2.42-3.41,4.54-5.4,6.86,2.47,1.02,3.13,2,5.31,3.83-1.13,5.18-17.44,12.26-18.41,19.15-6.64,47.4,40.07,17.5,56.29,8.66l6.37,14c-13.04,10.92-20.53,18.69-32.03,31.28-24.52-9.11-70.11-44.81-93.69-61.76l-99.4-70.91Z"/>
  <path class="cls-6" d="M1666.16,2169.35c2.71.33,4.53.9,7.18,1.6-5.66,4.54-11.27,7.98-11.27,15.09,0,17.09,16.86,18.47,27.96,9.63,4.7-3.76,18.71-10,23.41-12.08-1.83,2.42-3.41,4.54-5.4,6.86-45.09,36.65-65.6-.62-41.88-21.09Z"/>
  <path class="cls-14" d="M664.82,1943.72c5.9.01,5.46,7.89,7.2,14.04,7.44,26.35,17.94,48.92,31.58,72.51-6.54-.88-12.83-1.81-19.39-2.61-9.86-1.26-19.82-1.58-29.74-.97-19.52,1.09-31.08,4.83-43.94,18.89-4.78,8.28-4.21,8.41-7.12,17.09l-1.79-1.74c-28.49-27.1-21.57-58.04-3.1-88.28,23.03-9.55,43.54-18.38,66.29-28.93Z"/>
  <path class="cls-5" d="M626.42,2262.01c-9.28.81-17.92,1.54-25.81-4.5-4.73-3.55-7.72-8.95-8.22-14.86-1.68-20.08,22.15-23.14,36.39-23.53,10.64,3.08,35.42-4.09,46.2,3.18,15.92,2.19,31.82,2.5,47.82,5.09,34.89,5.69,69.65,14.64,102.73,27.14,7.22,2.73,14.83,12.91,15.93,20.72-4.79,9.73-21.64.13-30.74-2.26-53.3-14.03-134.17-25.58-188.53-16.39,1.42,1.8,2.83,3.6,4.23,5.41Z"/>
  <path class="cls-6" d="M626.42,2262.01c-9.28.81-17.92,1.54-25.81-4.5-4.73-3.55-7.72-8.95-8.22-14.86-1.68-20.08,22.15-23.14,36.39-23.53,10.64,3.08,35.42-4.09,46.2,3.18-16.66.03-41.2-.64-57.5,2.86-25.68,5.5-27.28,30.78,4.71,31.44,1.42,1.8,2.83,3.6,4.23,5.41Z"/>
  <path class="cls-5" d="M639.45,2172.21c2.74-.17,5.49-.29,8.24-.35,47.33-1.04,156.45,22.7,190.35,55.17,4.42,10.18-2.94,17.35-12.27,14.26-6.65-2.21-15-6.11-21.52-8.91-35.45-12.58-72.32-20.72-109.77-24.24-17.42-1.74-31.77-1.89-49.3-1.26-12.18.42-49.64,5.9-51.81-11.42-2.75-22.01,31.74-22.08,46.08-23.25Z"/>
  <path class="cls-5" d="M633.97,2131.62c47.72-1.78,112.55,15.91,154.71,37.7,12.05,6.22,43.96,25.36,48.02,38.44-1.22,5.28.09,3.22-3.67,6.63-9.23-3.51-17.91-7.96-26.78-12.3-51.14-21.67-82.08-30.04-138.58-35.99-13.59-4.38-67.41,4.63-75.87-5.93-22.76-28.41,35.28-28.17,42.18-28.55Z"/>
  <path class="cls-5" d="M1764.01,2095.44c15.61-2.71,74.84-5.14,80.17,15.23-.62,1.15-1.25,2.31-1.89,3.45-6.47,1.87-21.14.74-27.43.99-49.18,1.91-93.27,17.39-137.59,36.09-14.23,4.64-25.63,16.34-38.5,20.79-16.09,3.45-22.99-15.75-11.45-26.08,34.41-30.71,92.64-46.26,136.69-50.47Z"/>
  <path class="cls-5" d="M1866.71,2154.67c13.06-1.28,47.21-2.89,49.05,15.55-.7,1.32-1.39,2.64-2.09,3.97-6.7,2.51-21.98,2.15-28.71,3.24-47.73,7.72-100.13,22.25-142.97,43.72-11.24,5.21-22.7,16.64-35.98,12.03-5.77-4.77-8.02-18.03-2.96-22.09,40.84-32.76,114.81-49.88,163.66-56.42Z"/>
  <path class="cls-5" d="M1673.34,2170.95c46.41-26.43,98.17-42.09,151.46-45.83,17.39-1.13,44.65-3.61,54.85,13.83l-.04,3.73c-5.74,5.34-34.05,4.86-43.68,6.27-30.7,4.45-97.98,16.71-122.48,34.64-4.7,2.09-18.71,8.33-23.41,12.08-11.1,8.84-27.96,7.46-27.96-9.63,0-7.11,5.61-10.55,11.27-15.09Z"/>
  <path class="cls-5" d="M1822.07,803.24c24.18,13.22-56.23,126.5-67.37,144.84-3.25,5.37-22.34,11.44-29.04,13.58l-3.19-.61c-.1-1.63,22.69-39.18,26.55-46.74,15.67-30.61,24.14-58.69,28.29-92.77,18.8-4.54,28.83-7.83,44.77-18.31Z"/>
  <path class="cls-12" d="M864.85,1578.56c2.93.42,3.08.99,1.75,4.06-12.3,28.56-21.95,58.13-32.01,87.52-6.6,1.58-13.19,3.6-19.83,5.02l-33.34,7.21c-.15-.01-2.45-.19-2.26-1.03,6.85-29.04,17.8-61.35,29.41-88.81,6.89-1.81,13.8-3.54,20.73-5.18,11.93-2.79,23.63-6.08,35.54-8.79Z"/>
  <path class="cls-12" d="M927.07,1570.23c2.62,2.65-2.6,10.85-4.29,14.55-10.93,23.81-18.31,49.11-28.57,73.09-2.27.45-4.62.97-6.9,1.33l-8.71,1.45c-11.81,2.18-23.55,4.7-35.21,7.54-.83-.59-1.5-.83-1.92-1.64.22-6.96,28.67-80.44,32.73-90.53,21.75-4.09,30.96-4.89,52.88-5.8Z"/>
  <path class="cls-12" d="M798.81,1594.52c4.88.36-.26,8.88-1.53,12.3-9.46,25.33-17.52,51.01-25.09,76.99-20.03,2.45-30.73,3.41-50.94,3.25-2.61-1.57-2.68-1.42-1.59-4.31,10.04-26.55,18.51-53.75,30.23-79.66,17.2-2.71,31.7-4.9,48.93-8.57Z"/>
  <path class="cls-12" d="M660.09,991.88c13.16.33,26.29,1.32,39.35,2.96,6.8.8,13.56,1.81,20.31,2.88l7.98,1.34c4.37.75,8.12,1.49,12.46,2.37-7.5,5.39-12.74,8.16-19.03,14.98-4.08,1.93-8.42,6.84-10.57,10.67-5.17,5.02-7.91,9.29-11.92,15.26-9.94,1.31-19.83,2.96-29.71,4.69-18.3,3.33-36.44,7.49-54.36,12.48,15.9-33.17,21.45-40.25,45.48-67.64Z"/>
  <path class="cls-12" d="M693.56,1602.48c21.45,1.44,28.97,2.12,50.75.62-13.09,30.62-20.05,54.94-31.29,83.91-18.51-2.36-32-4.22-50.37-9.18,9.32-24.53,19.26-48.82,29.81-72.84l1.09-2.51Z"/>
  <path class="cls-5" d="M994.32,1549.75c10.86,2.96,19.95,6.6,31.59,9.39-17.24,40-36.14,79.92-53.1,119.83-8.93-2.52-22.02-8.73-31.22-12.27,19.93-39.34,37.12-75.36,52.73-116.94Z"/>
  <path class="cls-14" d="M1484.62,1976.57c28.8,19.63,37.56,27.96,74.02,37.24-14.39,13.64-19.53,19.06-24.73,38.36-.28,7.51-7.05,4.41-12.65,3.64-25.62-3.47-42.04-20.24-52.99-41.8,6.56-11.97,12.04-24.5,16.36-37.44Z"/>
  <path class="cls-5" d="M1539.44,1406.1c4.61,2.06,9.08,4.42,13.68,6.51,14.36,35.11,34.73,45.38,68.6,57.97,16.6,21.37,20.76,21.8,43.78,32.73,3.63,5.67,7.95,11.72,11.3,17.23-17.67.73-29.35.07-46.76-.26-38.14-29.74-78.03-65.56-90.61-114.19Z"/>
  <path class="cls-12" d="M1481.55,1707.23l2.73-1.23c31.52,51.44,81.47,83.4,136.11,104.89-41.03.09-88.94-7.6-128.32-20.15,13.51,14.83,28.64,29.35,45.19,40.78l-.81,3.82c-24.39-12.84-60.87-38.43-78.6-59.55l.45-3.61c36.44,9.02,62.96,16.57,100.59,23.41-32.77-21.79-61.38-52.01-77.34-88.35Z"/>
  <path class="cls-12" d="M647.42,1590.23c15.06,4.74,25.43,7.94,41.17,10.97-10.41,22.96-21.66,51.5-30.84,75.16-19.91-9.33-23.14-9.92-41.74-23.66,9.89-21.11,20.37-41.93,31.4-62.47Z"/>
  <path class="cls-5" d="M740.11,1007.52c26.49-11.02,80.24,20.85,99.89,38.47-7.17-1.27-14.37-2.33-21.59-3.2-22.63-2.64-84.52-6.68-105.93-1.04-1.64,1.47-6.31,3.34-7.46,1.38-2.7-4.58,3.77-7.65,5.58-16.05,2.15-3.83,6.49-8.74,10.57-10.67l2.64-.74c7.33-1.97,8.49-8.62,16.31-8.15Z"/>
  <path class="cls-9" d="M721.16,1016.41l2.64-.74c7.33-1.97,8.49-8.62,16.31-8.15-2.79,3.53-45.75,32.31-27.63,34.23-1.64,1.47-6.31,3.34-7.46,1.38-2.7-4.58,3.77-7.65,5.58-16.05,2.15-3.83,6.49-8.74,10.57-10.67Z"/>
  <path class="cls-12" d="M934.42,1570.03c13.6.77,22.71,1.38,36.37,2.96-11.88,28.75-26.08,56.13-38.49,84.53-.89.19-26.78-.19-31.36.01,8.91-28.01,21.84-60.38,33.49-87.51Z"/>
  <path class="cls-5" d="M1942.73,1082.89c24.49,2.5,24.67,1.05,48.59,11.57,2.55,2.46,6.86,5.35,9.81,7.55,2.88,2.02,3.09,2.24,5.05,6.2l2.17,7.61c4.42,9.25-6.31,16.32-14.52,17.98-2.3.38-5.8,2.67-7.27,1.86-6.42-3.58-12.48-8.42-18.85-12.12-20.17-11.69-47.39-25.89-70.5-29.29l-1.58-.49c-5.71-1.72-.38-3.28,2.04-3.91,17.36-3.7,27.38-5.31,45.06-6.96Z"/>
  <path class="cls-5" d="M1898.19,1090.03l-.45,4.35-1.57-.48c-5.66-1.7-.38-3.25,2.02-3.87Z"/>
  <path class="cls-8" d="M2517.63,153.42c11.56,3.76,5.83,56.15,3.54,66.22-3.84,16.89-7.94,26.29-15.91,41.18-1.16-8.54-1.8-14.01-3.61-22.59-8.65-25.73-12.51-35.53-29.94-57.96,17-11.4,28.3-17.03,45.93-26.84Z"/>
  <path class="cls-5" d="M804.16,968.75c1.37,1.75,2.1,2.54,3.64,4.14l-1.11,2.24c9.92,4.95,16.69,12.2,25.52,17.59,24.55,22.75,31.49,28.79,48.35,59.4-37.11-22.1-74.67-42.72-115.74-56.56-.76-.26-1.05-.53-1.28-1.18.39-1.78,2.32-2.88,3.57-4.6,6.29-6.34,5.22-5.91,13.98-6.93,5.57-.27,12.65-3.81,14.73-9.32l.98-2.34c1.75-1.78-.66-2.62,3.14-1.02,1.4-.38,3.03-.55,4.23-1.42Z"/>
  <path class="cls-9" d="M767.1,989.79c6.29-6.34,5.22-5.91,13.98-6.93-5.44,3.16-8.17,4.63-13.98,6.93Z"/>
  <path class="cls-5" d="M804.16,968.75c1.37,1.75,2.1,2.54,3.64,4.14l-1.11,2.24c-2.29-1.6-4.54-3.26-6.75-4.96,1.4-.38,3.03-.55,4.23-1.42Z"/>
  <path class="cls-12" d="M1326.53,873.85c5.09,3.06,13.16,9.38,18.57,13.17-17.55,35.22,14.32,65.27,49.93,43.5,10.29,9.04,21.49,19.21,31.65,28.47.67.89,1.77,2.62-.04,3.18-57.85,18.09-116.19-26.93-100.11-88.33Z"/>
  <path class="cls-14" d="M1497.73,1218.15c1.76,1.49,1.96,2.01,1.8,4.6-1.6,27.52,10,45.98,24.01,68.35-2.54,6.15-9.76,32.69-14.2,32.98-29.58-30.92-45.9-71.83-11.61-105.93Z"/>
  <path class="cls-5" d="M1020.79,1167.88c4.03,2.18,3.85,1.9,6.26,5.88-14.96,38.39-25.78,78.64-27.71,119.99.47,15.49-.08,26.31.87,43.09-2.04-4.67-5.06-10.72-5.94-15.57-19.21-51.15-6.15-110.81,26.52-153.4Z"/>
  <path class="cls-5" d="M994.28,1321.28c7.22-10.46-.03-25.02,5.07-27.53.47,15.49-.08,26.31.87,43.09-2.04-4.67-5.06-10.72-5.94-15.57Z"/>
  <path class="cls-12" d="M2615.66,139.37c10.98,4.82,21.49,10.67,31.36,17.47,5.11,26.76,2.35,53.22-8.2,78.39l-.88,2.17c-.54,1.03-4.19,8.7-5.53,8.4-.77-1.35-1.18-17.28-1.44-20.29-1.86-21.82-6.89-37.96-18.37-56.67,2-11.26,2.96-18.03,3.05-29.46Z"/>
  <path class="cls-12" d="M611.56,1570.08c11.76,6.47,16.93,11.88,31.08,18.1-9.63,17.47-18.68,35.25-27.14,53.31-.61,1.32-2.72,7.59-5.22,5.27-9.67-8.99-13.96-19.43-17.66-31.71,4.57-18.7,10.04-28.36,18.93-44.97Z"/>
  <path class="cls-5" d="M1698.42,1019.19c3.13,2.96,17.41,33.57,21.37,40.84-7.41,7.64-14.77,15.34-22.04,23.12-7.21-2.14-12.55-3.55-19.92-5.13-10.78-1.47-13.91-1.6-25.04-1.95,20.79-22.33,28.38-30.65,45.63-56.89Z"/>
  <path class="cls-12" d="M1178.34,909.3c5.5,1.86,11.45,3.89,16.96,5.62.68,34.84-2.21,70.83-6.18,105.43-5.72-2.25-11.48-4.39-17.27-6.43,5.86-37.85,7.45-66.68,6.49-104.62Z"/>
  <path class="cls-12" d="M2460.82,188.12c4.02,1.83,2.5,5.63,3.05,9.76,3.66,27.34-2.15,50.65-13.58,74.92-1.36-4.57-2.63-9.17-3.8-13.8-6.83-19.2-8.5-22.24-18.67-39.81,14.22-16.13,17.32-17.74,33-31.07Z"/>
  <path class="cls-12" d="M1897.13,2182.34c13.23-1.65,17.96,1.17,29.45,6.66-53.53.12-101.96,9.63-149.25,34.98l-14.97,8.66c-1.81-3.26-4.29-8.78-5.99-12.3,40.07-18.16,97.14-33.26,140.76-37.99Z"/>
  <path class="cls-12" d="M1644.25,995.49c8.68-.32-5.05,20.5-7.3,23.08-19.22,21.98-48.12,18-68.91.6-5.25-5.16-9.73-7.48-1.8-8.32,8.52-1.87,9.3,6.57,18.06,9.33,20.67,6.5,31.1-2.14,38.55-20.16,7.08-1.72,14.2-3.25,21.4-4.52Z"/>
  <path class="cls-12" d="M2554.2,134.44c1.81.25,3.74.36,4.53,2.58,7.51,21.23,3.55,39.78-3.1,60.41-2.28-6.34-3.95-11.29-6.48-17.63-7.85-14.48-11.71-19.32-23.7-30.81,9.72-5.18,19-9.63,28.77-14.55Z"/>
  <path class="cls-5" d="M1900.92,1259.01c.81-3.93.8-3.66,3.31-7.03,17.16,22.06,33.67,75.94,24.5,103.09-4.69,1.58-2.13,2.92-5.93,3.66-3.84-39.87-7.96-62.19-21.88-99.72Z"/>
  <path class="cls-12" d="M2460.15,585.52c10.75,10.7,9.27,48.27,8.07,62.85-3.86-3.12-7.76-6.18-11.72-9.17-7.5-5.94-14.78-12.15-21.83-18.6,15.28-11.83,18.31-17.29,25.49-35.08Z"/>
  <path class="cls-12" d="M2567.26,131.01c26.24-1.66,39.74-2.41,34.88,22.64-2.29,11.81-2.51,16.55-6.46,28.37-2.19,6.09-4.61,2.25-4.51.74.84-11.52-23.12-45.79-23.91-51.74Z"/>
  <path class="cls-12" d="M2412.19,542.16c10.42,13.86,8.25,48.82,7.57,65.29-2.99-3.05-5.93-6.15-8.81-9.31-7.22-7.6-13.98-15.41-21.02-23.18,12.55-13.82,12.88-17.48,22.25-32.8Z"/>
  <path class="cls-12" d="M2507.23,614.38c8.04,9.55,9.08,44.22,9.24,57.1-6.56-1.89-12.53-3.86-18.77-6.6-5.21-2.98-10-5.5-15.25-8.63l.75-.81c12.04-12.81,18.25-24.59,24.02-41.06Z"/>
  <path class="cls-12" d="M2557.14,621.91c6.02,9.14,5.18,37.02,4.56,48-9.57,2.24-17.67,2.84-27.42,3.32-9.21-2.36,2.6-10.96,6.88-17.69,5.51-8.67,10.1-17.89,13.71-27.51l2.28-6.11Z"/>
  <path class="cls-12" d="M2597.32,587.12c7.15,15.4,7.34,34.24,6.33,50.91-7.54,11.16-11.01,13.95-21.78,21.86-1.23.51-2.99,1.74-4.08.51.1-1.24,6.83-18.46,7.82-20.8,7.54-18.01,8.72-33.59,11.71-52.48Z"/>
  <path class="cls-12" d="M1645.39,1529.53c8.33-.52,13.97-1.2,19.32,5.66,6.56,8.4,49.41,27.2,47.84,34.95-9.79.35-64.06-32.6-67.17-40.61Z"/>
  <path class="cls-5" d="M1491.46,1181.99c14.1.31,12.11-1.13,9.4,13.57-13,9.63-16.49,12.34-25.63,25.4-2.21,4.42-2.97,4.38-4.73.28-5.34-12.42,1.78-11.75,9.57-20.85,5.31-6.19,8.01-11.24,11.39-18.39Z"/>
  <path class="cls-12" d="M2591.11,239.12c4.85,5.03-3.97,42.89-7.07,32.67-3.18-6.58-5.95-12.75-9.31-19.33,5.53-4.37,10.98-8.82,16.38-13.34Z"/>
  <path class="cls-14" d="M1541.18,968.5c4.44.93,31.83,7.46,36.43,10.7.2.15.07.39-.03.65-.44.33-1.41.37-2.03.45-22.99,3.77-31.65,12.08-34.37-11.81Z"/>
  <path class="cls-12" d="M1663.69,1528.05c5.83-.32,11.69-.42,17.55-.71,8.5,11.13,14.38,15.38,24.59,24.53l-4.19,1.91c-12.61-7.11-26.33-17.09-37.95-25.74Z"/>
  <path class="cls-14" d="M1441.82,935.19c11.56,2.89,23.4,8.56,34.54,12.91,1.71.67-.68,2.97-1.03,3.36-.7.41-7.33,4.6-7.94,4.24-7.47-4.4-18.69-14.81-25.58-20.51Z"/>
  <path class="cls-12" d="M843.26,2317.15c5.42,2.5,8.48,3.03,14.27,4.85,3.84,4.79,12.63,9.81,17.87,13.39-6.91-1.87-14.5-4-21.5-5.38-12.32-2.41-11.3-1.09-10.64-12.85Z"/>
  <path class="cls-12" d="M2555.51,534.74c3.48,3.36,4.22,30.39-3.18,22.72-2.83-3-5.21-5.46-7.79-8.69,4.4-5.26,6.96-8.56,10.97-14.03Z"/>
  <path class="cls-5" d="M1020.79,1167.88c4.91-7.68,16.5-19.77,22.99-26.32-1.87,3.72-15.09,29.86-16.73,32.21-2.41-3.98-2.23-3.7-6.26-5.88Z"/>
  <path class="cls-12" d="M2541.67,279.84c3.09,2.92-3.22,20.06-7.14,21.37-6.88-15.05-8.17-10.93,7.14-21.37Z"/>
  <path class="cls-13" d="M1141.41,1600.28c4.58,5.22,22.83,28.22,24.58,34.12.13,4.54,1.22,6.18,2.4,10.65-9.11-13.23-18.37-30.6-26.98-44.77Z"/>
  <path class="cls-5" d="M1885.7,1228.4c5.53,6.01,15.06,16.27,18.53,23.58-2.51,3.37-2.5,3.1-3.31,7.03l-15.22-30.61Z"/>
  <path class="cls-13" d="M1705.84,1551.87c2.07,1.26,14.23,9.18,14.28,11.63-2.29,1.92-15.33-7.75-18.47-9.72l4.19-1.91Z"/>
  <path class="cls-5" d="M1922.79,1358.73c3.8-.74,1.25-2.07,5.93-3.66-.26,3.1-1.06,14.67-3.95,15.89-1.32-.96-1.83-10.46-1.99-12.23Z"/>
  <path class="cls-13" d="M883.01,1710.88l-.05,2.29c-.03,4.09-1.64,9.63-2.57,13.72l-1.75,7.99-2.81-5.45c1.07-4.06,5.42-14.14,7.18-18.55Z"/>
  <path class="cls-16" d="M980.05,2672.23c4.08.68,16.34,2.25,19.28,3.54-1.53,1.09-2.62,2.02-4.05,3.21-6.4-1.36-9.89-3.1-15.23-6.75Z"/>
  <path class="cls-2" d="M1367.02,1658.71c2.71-1.39,5.4-2.15,8.4-2.74.32-.06,4.48-1.48,5.3-.45.06.13.12.26.17.39.03.32-.45.83-.7.99-2.57,1.6-6.38,2.52-9.24,3.54-.75.26-1.51.52-2.26.78l-1.67-2.51Z"/>
  <path class="cls-13" d="M1537.26,1831.51c4.12,2.77,8.3,5.44,12.53,8.05l-1.81,1.45c-3.79-2.03-7.67-3.74-11.53-5.69l.81-3.82Z"/>
  <path class="cls-13" d="M904.56,1892.51c9.65,15.13,3.79,10.94-3.62.71l3.62-.71Z"/>
  <path class="cls-13" d="M1481.55,1707.23c-1.57-2.57-3.47-5.77-4.44-8.62l.41-1.52-.62-.22c1.74-1.54,6.5,7.78,7.38,9.13l-2.73,1.23Z"/>
  <path class="cls-2" d="M1549.8,1839.56c2.64,1.06,5.79,2.34,7.44,4.73-.96,2.32-8.39-2.74-9.26-3.28l1.81-1.45Z"/>
  <path class="cls-13" d="M2175.83,1177.74c.42,2.33.71,4.51,1.03,6.85l-2.52.98c-.38-1.19-.9-3.01-1.41-4.17l2.9-3.65Z"/>
  <path class="cls-4" d="M2176.86,1184.59c.67,1.96,1.73,5.09.25,6.83-1.07-.56-2.38-4.83-2.77-5.85l2.52-.98Z"/>
</svg>